<svg width="50" height="50" viewBox="0 0 50 50" fill="none" xmlns="http://www.w3.org/2000/svg">
<rect width="50" height="50" rx="15" fill="#E22F2F"/>
<g opacity="0.300003">
<g opacity="0.300003">
<path opacity="0.300003" d="M43 39.6054C43 40.1615 35.165 40.6123 25.5 40.6123C15.835 40.6123 8 40.1615 8 39.6054C8 39.0493 15.835 38.5985 25.5 38.5985C35.165 38.5985 43 39.0493 43 39.6054Z" fill="#000072"/>
</g>
</g>
<path d="M40.2299 38.3462C39.5354 39.0684 38.5166 39.4746 37.4527 39.4746H13.5458C12.4819 39.4746 11.463 39.0684 10.7685 38.3462C10.3848 37.947 10.1012 37.5024 9.91043 37.0474C9.90971 37.0474 9.90971 37.0474 9.90971 37.0468C9.30954 35.6192 9.61534 34.0871 10.5728 33.536C12.1804 32.6095 13.42 33.7417 13.42 33.7417C13.5572 33.4527 13.743 33.2022 13.9509 32.9876C14.734 32.1764 15.8314 31.8675 15.8314 31.8675C15.2348 28.7989 16.5666 26.0187 16.5666 26.0187C16.5666 26.0187 19.8483 28.2427 25.4992 28.2427C31.1501 28.2427 34.4318 26.0187 34.4318 26.0187C34.4318 26.0187 35.7636 28.7989 35.167 31.8675C35.167 31.8675 36.924 32.3622 37.5784 33.7417C37.5784 33.7417 38.8181 32.6095 40.4257 33.536C41.6882 34.2633 41.8175 36.6963 40.2299 38.3462Z" fill="#B11313"/>
<g opacity="0.300003">
<g opacity="0.300003">
<path opacity="0.300003" d="M14.377 36.5703C14.5985 34.6474 13.4238 33.8176 13.4238 33.8176C13.561 33.5286 13.7468 33.2781 13.9547 33.0634C15.7767 35.0177 14.377 36.5703 14.377 36.5703Z" fill="#000072"/>
</g>
</g>
<g opacity="0.300003">
<g opacity="0.300003">
<path opacity="0.300003" d="M36.6347 36.5703C36.4132 34.6474 37.5878 33.8176 37.5878 33.8176C37.4506 33.5286 37.2649 33.2781 37.057 33.0634C35.235 35.0177 36.6347 36.5703 36.6347 36.5703Z" fill="#000072"/>
</g>
</g>
<g opacity="0.300003">
<g opacity="0.300003">
<path opacity="0.300003" d="M36.8213 38.1843C36.651 38.1463 36.4755 38.1332 36.3012 38.1504C36.0527 38.1749 35.6252 38.2128 34.9982 38.255C34.0545 38.3184 33.2303 37.6824 33.1659 36.8357C33.1382 36.472 33.1989 36.1895 33.2209 36.1021C32.9745 37.0469 32.5194 37.9173 32.242 38.3946C30.8335 38.4473 29.0495 38.4901 26.8434 38.5027C26.7244 34.6799 29.2007 31.0955 29.2007 31.0955C25.4065 33.8174 21.8108 31.0955 21.8108 31.0955C24.3144 35.0807 24.1841 38.3367 24.1841 38.3367L24.6057 38.5048C22.1966 38.4957 20.2699 38.4508 18.7695 38.3947C18.492 37.9173 18.037 37.0469 17.7905 36.1021C17.8134 36.193 17.8781 36.495 17.8417 36.8799C17.7634 37.7085 16.9385 38.3172 16.0139 38.255C15.3865 38.2128 14.9588 38.1749 14.7103 38.1504C14.5359 38.1332 14.3604 38.1463 14.1902 38.1843C11.47 38.7917 9.96259 37.1766 9.91406 37.1231C10.1048 37.578 10.3885 38.0227 10.7722 38.4219C11.4667 39.1441 12.4855 39.5503 13.5494 39.5503H25.5057H37.462C38.5259 39.5503 39.5448 39.1441 40.2393 38.4219C40.6229 38.0227 40.9066 37.578 41.0974 37.1231C41.0488 37.1766 39.5415 38.7917 36.8213 38.1843Z" fill="#000072"/>
</g>
</g>
<g opacity="0.300003">
<g opacity="0.300003">
<path opacity="0.300003" d="M17.785 36.1025C17.7803 36.0839 17.7773 36.0737 17.7773 36.0737C17.7798 36.0834 17.7825 36.0929 17.785 36.1025Z" fill="#000072"/>
</g>
</g>
<g opacity="0.300003">
<g opacity="0.300003">
<path opacity="0.300003" d="M33.2207 36.1025C33.2232 36.0929 33.2259 36.0834 33.2283 36.0737C33.2283 36.0737 33.2254 36.0839 33.2207 36.1025Z" fill="#000072"/>
</g>
</g>
<path d="M25.4962 39.3282H37.4526C38.4556 39.3282 39.3995 38.945 40.0424 38.2769C40.873 37.4138 41.2825 36.2186 41.1113 35.1576C41.011 34.5364 40.7124 34.0411 40.2919 33.7987C38.8701 32.979 37.7997 33.9325 37.7548 33.9734C37.6969 34.0264 37.6134 34.05 37.532 34.0361C37.4508 34.0223 37.3825 33.973 37.3502 33.9048C36.7473 32.6339 35.109 32.1602 35.0925 32.1555C34.974 32.1222 34.9013 32.0152 34.9227 31.9054C35.3971 29.4668 34.6134 27.1853 34.3133 26.4377C33.4148 26.9645 30.3231 28.5409 25.4991 28.5409C20.6751 28.5409 17.5833 26.9645 16.6849 26.4377C16.3848 27.1853 15.601 29.4668 16.0755 31.9054C16.0968 32.0152 16.0242 32.1222 15.9056 32.1555C15.8894 32.1602 14.2484 32.6389 13.648 33.9048C13.6156 33.973 13.5474 34.0223 13.4661 34.0361C13.3849 34.05 13.3013 34.0264 13.2433 33.9734C13.1986 33.9332 12.119 32.9842 10.7063 33.7987C10.2858 34.0411 9.98712 34.5364 9.88689 35.1576C9.71567 36.2186 10.1252 37.4138 10.9557 38.2769C11.5986 38.945 12.5426 39.3282 13.5456 39.3282H25.4962ZM37.4526 39.7725H13.5456C12.3984 39.7725 11.3178 39.3331 10.5807 38.5672C9.65915 37.6095 9.20543 36.2786 9.39662 35.094C9.51918 34.3344 9.88916 33.7416 10.4384 33.425C11.7455 32.6715 12.8484 33.1636 13.3331 33.4701C13.9478 32.4606 15.0884 31.9656 15.5539 31.7984C15.0355 28.7753 16.2844 26.1204 16.3388 26.0067C16.3689 25.9439 16.4294 25.8971 16.503 25.8797C16.5767 25.8621 16.6551 25.876 16.7158 25.9171C16.7479 25.9388 20.0067 28.0966 25.4991 28.0966C30.9915 28.0966 34.2503 25.9388 34.2826 25.917C34.3434 25.876 34.4219 25.8622 34.4953 25.8797C34.5688 25.8972 34.6293 25.944 34.6593 26.0067C34.7138 26.1204 35.9626 28.7753 35.4442 31.7984C35.9098 31.9656 37.0504 32.4606 37.6651 33.4701C38.1497 33.1636 39.2525 32.6713 40.5598 33.425C41.109 33.7416 41.479 34.3343 41.6016 35.094C41.7928 36.2786 41.339 37.6095 40.4175 38.5672C39.6804 39.3331 38.5997 39.7725 37.4526 39.7725Z" fill="#000072"/>
<path d="M13.5599 33.6373C13.5871 33.6539 13.5998 33.663 13.6185 33.6754C13.6362 33.6872 13.6506 33.6985 13.6668 33.7102C13.6989 33.7335 13.7261 33.7581 13.7553 33.7823C13.7851 33.8061 13.8097 33.8324 13.8365 33.8578C13.8635 33.8831 13.8888 33.9092 13.9125 33.936C14.0112 34.0422 14.0942 34.1565 14.1682 34.2745C14.3165 34.5107 14.415 34.7653 14.4835 35.0216C14.5503 35.2791 14.575 35.5404 14.575 35.7985C14.5755 35.9274 14.5595 36.056 14.5497 36.1831C14.5283 36.31 14.505 36.4359 14.4754 36.56C14.4697 36.5837 14.4437 36.5988 14.4173 36.5937C14.3973 36.5899 14.3827 36.5755 14.3794 36.5585L14.3788 36.5554C14.3545 36.4307 14.3394 36.3078 14.3212 36.186L14.2857 36.0047C14.2727 35.9448 14.2678 35.8842 14.2501 35.8254C14.2168 35.7077 14.199 35.5887 14.157 35.4749C14.1387 35.4177 14.1243 35.3597 14.1044 35.3034L14.0405 35.1362C13.9524 34.9156 13.8448 34.7046 13.7151 34.5096C13.6813 34.4618 13.6497 34.4123 13.613 34.3671L13.56 34.2976L13.5031 34.2316C13.467 34.1861 13.4252 34.146 13.386 34.105C13.3658 34.0855 13.3458 34.0643 13.3254 34.047C13.3156 34.038 13.3052 34.0275 13.2959 34.0197C13.2877 34.0126 13.2742 34.0012 13.2733 33.9996L13.2198 33.9033C13.1624 33.7999 13.2093 33.6744 13.3246 33.6229C13.4027 33.588 13.4925 33.5963 13.5599 33.6373Z" fill="#000072"/>
<path d="M37.7139 33.9986C37.7129 34.0003 37.6994 34.0116 37.6912 34.0188C37.682 34.0265 37.6715 34.0371 37.6617 34.046C37.6413 34.0634 37.6213 34.0845 37.6011 34.104C37.5619 34.1451 37.5201 34.1851 37.484 34.2306L37.4272 34.2966L37.3741 34.3661C37.3374 34.4114 37.3058 34.4608 37.272 34.5086C37.1423 34.7037 37.0347 34.9146 36.9466 35.1352L36.8827 35.3024C36.8628 35.3587 36.8485 35.4167 36.8302 35.474C36.7882 35.5877 36.7703 35.7067 36.7371 35.8244C36.7193 35.8833 36.7144 35.9438 36.7015 36.0037L36.666 36.185C36.6477 36.3068 36.6326 36.4297 36.6083 36.5544L36.6077 36.5574C36.6031 36.5813 36.5778 36.5973 36.5512 36.5931C36.5309 36.5899 36.5158 36.576 36.5117 36.5591C36.4821 36.435 36.4588 36.3091 36.4374 36.1821C36.4277 36.055 36.4116 35.9265 36.4121 35.7975C36.4122 35.5394 36.4368 35.2781 36.5036 35.0207C36.5721 34.7643 36.6706 34.5097 36.8189 34.2736C36.8929 34.1555 36.9759 34.0412 37.0746 33.9351C37.0983 33.9082 37.1237 33.8821 37.1506 33.8568C37.1774 33.8314 37.202 33.8051 37.2318 33.7813C37.261 33.7571 37.2882 33.7325 37.3204 33.7092C37.3366 33.6975 37.3509 33.6863 37.3686 33.6745C37.3874 33.6621 37.4 33.6529 37.4272 33.6363C37.5337 33.5712 37.6787 33.5959 37.7513 33.6914C37.8004 33.756 37.8036 33.8366 37.7675 33.9021L37.7139 33.9986Z" fill="#000072"/>
<path d="M16.079 31.9171L16.0991 32.0946L16.1244 32.2932C16.1332 32.3608 16.1451 32.4287 16.1516 32.4999C16.1588 32.5709 16.1631 32.6446 16.1591 32.7241L16.1591 32.7245C16.1585 32.737 16.1467 32.7466 16.1327 32.7461C16.1277 32.7459 16.1231 32.7444 16.1193 32.7419C16.0466 32.696 15.9839 32.6433 15.9297 32.5858C15.8742 32.5288 15.8288 32.4665 15.7845 32.4027C15.7412 32.3385 15.7018 32.2717 15.6675 32.2018C15.6514 32.1665 15.6346 32.131 15.6216 32.0936C15.6146 32.0751 15.6083 32.056 15.6026 32.0364C15.5965 32.0153 15.5924 31.9998 15.5871 31.9699C15.5656 31.8487 15.6578 31.7347 15.793 31.7155C15.9281 31.6962 16.0552 31.7789 16.0766 31.9001C16.0773 31.904 16.0779 31.9079 16.0783 31.9117L16.079 31.9171Z" fill="#000072"/>
<path d="M35.4173 31.9699C35.412 31.9998 35.4079 32.0153 35.4018 32.0364C35.3961 32.056 35.3898 32.0751 35.3828 32.0936C35.3698 32.131 35.3531 32.1665 35.3369 32.2018C35.3026 32.2717 35.2632 32.3385 35.2199 32.4027C35.1756 32.4665 35.1302 32.5288 35.0747 32.5858C35.0205 32.6433 34.9579 32.696 34.8851 32.7419C34.8737 32.7492 34.8579 32.7467 34.8499 32.7365C34.847 32.7328 34.8455 32.7286 34.8453 32.7244L34.8453 32.7241C34.8413 32.6446 34.8456 32.571 34.8529 32.4999C34.8594 32.4287 34.8712 32.3608 34.8801 32.2932L34.9053 32.0946L34.9255 31.9171L34.926 31.9125C34.9399 31.7903 35.0615 31.7014 35.1977 31.7139C35.3339 31.7263 35.433 31.8354 35.4191 31.9575C35.4187 31.9615 35.418 31.9661 35.4173 31.9699Z" fill="#000072"/>
<path d="M17.2775 34.1189C17.2775 34.1189 16.1436 33.3303 15.8297 31.9436C15.8297 31.9436 15.1774 31.6479 14.7266 32.4479C14.7266 32.4479 15.2466 34.8902 17.7774 36.0737C17.7774 36.0737 17.4117 34.8164 17.2775 34.1189Z" fill="#0096F2"/>
<path d="M14.9883 32.4797C15.0904 32.8527 15.6404 34.5556 17.3909 35.6101C17.2801 35.207 17.1333 34.6501 17.0492 34.2378C16.7866 34.0337 15.9319 33.2954 15.6179 32.1149C15.4754 32.0929 15.2187 32.1186 14.9883 32.4797ZM17.777 36.2959C17.7379 36.2959 17.6986 36.2876 17.6625 36.2707C15.0555 35.0515 14.5051 32.5936 14.4829 32.4896C14.4727 32.4414 14.4805 32.3916 14.5052 32.3478C14.7868 31.8481 15.155 31.7064 15.4143 31.6756C15.7013 31.6412 15.9174 31.7346 15.9411 31.7454C16.0088 31.776 16.0571 31.8328 16.0721 31.8994C16.3628 33.1836 17.4187 33.9362 17.4293 33.9437C17.4777 33.9776 17.5108 34.0268 17.5212 34.0812C17.6521 34.7614 18.0131 36.0052 18.0167 36.0177C18.0414 36.1027 18.0079 36.1928 17.9313 36.2475C17.8866 36.2795 17.832 36.2959 17.777 36.2959Z" fill="#000072"/>
<path d="M33.7264 34.1189C33.7264 34.1189 34.8603 33.3303 35.1742 31.9436C35.1742 31.9436 35.8265 31.6479 36.2774 32.4479C36.2774 32.4479 35.7573 34.8902 33.2266 36.0737C33.2266 36.0737 33.5923 34.8164 33.7264 34.1189Z" fill="#0096F2"/>
<path d="M33.9521 34.2378C33.8679 34.6501 33.7211 35.207 33.6103 35.6101C35.3608 34.5557 35.9108 32.8529 36.013 32.4797C35.8735 32.2604 35.7085 32.1382 35.5218 32.116C35.4695 32.1097 35.4215 32.1124 35.3825 32.1179C35.0679 33.2967 34.2145 34.0338 33.9521 34.2378ZM33.2243 36.2959C33.1693 36.2959 33.1147 36.2795 33.07 36.2475C32.9933 36.1928 32.9599 36.1027 32.9846 36.0177C32.9882 36.0052 33.3492 34.7614 33.48 34.0812C33.4905 34.0266 33.5233 33.9776 33.572 33.9437C33.5826 33.9362 34.6385 33.1836 34.9291 31.8994C34.9442 31.8328 34.9925 31.776 35.0602 31.7454C35.0838 31.7346 35.2999 31.6412 35.5869 31.6756C35.8462 31.7064 36.2145 31.8481 36.4961 32.3478C36.5208 32.3916 36.5286 32.4415 36.5184 32.4896C36.4962 32.5936 35.9458 35.0515 33.3388 36.2707C33.3027 36.2876 33.2634 36.2959 33.2243 36.2959Z" fill="#000072"/>
<path d="M20.6953 28.4448C20.6953 28.4448 21.121 29.5271 20.9985 31.1061L22.4013 32.2007C22.4013 32.2007 22.7678 30.293 22.1435 28.7086L20.6953 28.4448Z" fill="#0096F2"/>
<path d="M21.2491 31.0106L22.2083 31.7591C22.2732 31.1503 22.3286 29.9568 21.95 28.9009L21.039 28.7349C21.1568 29.1743 21.3139 29.9825 21.2491 31.0106ZM22.3969 32.4229C22.3381 32.4229 22.2801 32.404 22.2343 32.3683L20.8316 31.2737C20.773 31.228 20.7417 31.1602 20.7471 31.0908C20.8642 29.5819 20.4614 28.529 20.4573 28.5185C20.4278 28.4431 20.4458 28.3592 20.5044 28.299C20.563 28.2388 20.6532 28.2117 20.7403 28.2272L22.1884 28.4909C22.2737 28.5065 22.3437 28.561 22.3726 28.6346C23.0112 30.255 22.6564 32.1582 22.641 32.2385C22.6258 32.3175 22.5643 32.3831 22.48 32.41C22.4529 32.4186 22.4248 32.4229 22.3969 32.4229Z" fill="#000072"/>
<path d="M30.307 28.4448C30.307 28.4448 29.8813 29.5271 30.0038 31.1061L28.6011 32.2007C28.6011 32.2007 28.2345 30.293 28.8588 28.7086L30.307 28.4448Z" fill="#0096F2"/>
<path d="M29.0492 28.9009C28.6699 29.9587 28.7254 31.1512 28.7906 31.7593L29.7501 31.0106C29.6853 29.9825 29.8424 29.1743 29.9601 28.7349L29.0492 28.9009ZM28.6023 32.4229C28.5744 32.4229 28.5463 32.4186 28.5192 32.41C28.4349 32.3831 28.3734 32.3175 28.3582 32.2385C28.3428 32.1582 27.988 30.255 28.6265 28.6346C28.6555 28.561 28.7255 28.5065 28.8108 28.4909L30.2589 28.2272C30.3463 28.2111 30.4366 28.2388 30.4951 28.2991C30.5536 28.3594 30.5714 28.4433 30.5419 28.5187C30.5354 28.5353 30.1354 29.5864 30.2521 31.0908C30.2575 31.1602 30.2262 31.228 30.1676 31.2737L28.7649 32.3683C28.7191 32.404 28.6611 32.4229 28.6023 32.4229Z" fill="#000072"/>
<path d="M24.1011 38.8564C23.7481 40.4108 21.7361 41.1221 20.3221 40.1693C19.2154 39.4241 18 37.7196 17.2491 33.9821C17.1776 33.6239 17.1098 33.2465 17.0469 32.8499L17.5249 32.4436L20.6936 29.7486C20.6936 29.7486 23.8153 34.0827 24.1611 37.405V37.4057C24.2154 37.9202 24.2025 38.4104 24.1011 38.8564Z" fill="#B11313"/>
<g opacity="0.300003">
<g opacity="0.300003">
<path opacity="0.300003" d="M24.1002 38.8564C23.7472 40.4108 21.7352 41.1221 20.3212 40.1693C19.2145 39.4241 17.9991 37.7197 17.2482 33.9821C16.1915 33.4112 15.8285 31.9432 15.8285 31.9432C15.3726 29.994 15.8985 28.1973 15.8985 28.1973C15.7984 30.5699 16.8485 31.7016 17.2816 32.0649C17.4023 32.1661 17.4866 32.2967 17.5234 32.4412C17.5236 32.442 17.5238 32.4428 17.524 32.4436C18.2978 35.5142 19.5939 39.2549 21.4744 39.5228C23.2899 39.781 24.0723 37.6601 24.1602 37.4057C24.2145 37.9202 24.2016 38.4104 24.1002 38.8564Z" fill="#000072"/>
</g>
</g>
<path d="M20.9664 29.5415C21.3272 29.8939 21.6125 30.287 21.8712 30.6931C21.9996 30.8966 22.1167 31.1055 22.233 31.3146C22.3494 31.5237 22.4633 31.734 22.5744 31.9456C23.0191 32.7915 23.424 33.6566 23.7603 34.5479C24.097 35.4382 24.3681 36.3581 24.4669 37.3158C24.5145 37.7939 24.5174 38.2831 24.4268 38.7729C24.4072 38.8931 24.3785 39.0222 24.3344 39.1464C24.2944 39.2715 24.2377 39.3923 24.1762 39.5106C24.048 39.7454 23.8771 39.9618 23.6733 40.1491C23.2616 40.5198 22.7175 40.7699 22.1399 40.8433C21.8518 40.8837 21.5559 40.8749 21.2688 40.8293C20.9819 40.7804 20.7049 40.688 20.4516 40.5608C20.3277 40.4951 20.203 40.4229 20.0953 40.3433L19.9339 40.2245C19.8793 40.1854 19.8325 40.1401 19.7816 40.0982C19.7324 40.0549 19.6801 40.0138 19.6337 39.9685L19.4956 39.8321C19.4002 39.7431 19.3212 39.6443 19.2356 39.5494C18.9049 39.1627 18.6412 38.7422 18.4097 38.3134C18.1744 37.885 17.9945 37.4395 17.8203 36.9942C17.6586 36.5455 17.5113 36.0937 17.3902 35.6373C17.3303 35.4091 17.266 35.1816 17.2171 34.9516C17.1668 34.722 17.1065 34.4938 17.0699 34.2622C16.9889 33.8001 16.9509 33.3317 16.9955 32.8566C16.998 32.8297 17.0243 32.8098 17.0543 32.812C17.0751 32.8136 17.0923 32.8256 17.0999 32.8418L17.1005 32.8432C17.2035 33.064 17.2814 33.2868 17.3486 33.5107C17.4147 33.7349 17.4833 33.9576 17.5352 34.183C17.5849 34.409 17.6432 34.6327 17.698 34.8572C17.75 35.0825 17.8171 35.3038 17.8797 35.5263C18.0063 35.9709 18.1577 36.408 18.3219 36.8399C18.498 37.2668 18.6789 37.6932 18.9089 38.0944C19.1342 38.4972 19.3912 38.8837 19.6932 39.2318C19.7712 39.3165 19.8436 39.4065 19.9289 39.484L20.0525 39.6044C20.0938 39.6444 20.1398 39.6791 20.1831 39.7169C20.2278 39.7529 20.2692 39.7931 20.3164 39.8259L20.4558 39.9268C20.5483 39.9943 20.6427 40.0466 20.7413 40.0988C20.9404 40.1965 21.1549 40.2661 21.3766 40.3025C21.5986 40.3355 21.827 40.3417 22.0501 40.3082C22.4978 40.2489 22.919 40.0492 23.2354 39.7618C23.393 39.6173 23.5253 39.4509 23.6253 39.2694C23.6727 39.1775 23.7179 39.0842 23.749 38.9861C23.7839 38.8893 23.8063 38.7903 23.8243 38.6811C23.9046 38.2551 23.9054 37.8089 23.8621 37.364C23.8182 36.9184 23.73 36.4724 23.6158 36.0303C23.5023 35.5878 23.3604 35.149 23.2025 34.7143C22.886 33.8445 22.4992 32.9916 22.0716 32.1553C21.9648 31.946 21.8551 31.738 21.7431 31.5309C21.6315 31.3235 21.5141 31.1188 21.4053 30.91C21.1856 30.4935 20.9787 30.0701 20.8154 29.6225L20.8149 29.621C20.7995 29.5787 20.8252 29.5332 20.8723 29.5194C20.9069 29.5093 20.9433 29.519 20.9664 29.5415Z" fill="#000072"/>
<path d="M17.9431 36.7925C17.8764 36.7925 17.8098 36.7685 17.761 36.7211C17.6683 36.631 17.6744 36.4906 17.7748 36.4074C17.8667 36.3312 20.0637 34.5388 23.4275 34.3133C23.5635 34.3035 23.6827 34.3959 23.6929 34.5182C23.7031 34.6406 23.6008 34.7472 23.4644 34.7563C20.2791 34.9699 18.1323 36.7161 18.111 36.7337C18.0634 36.773 18.0031 36.7925 17.9431 36.7925Z" fill="#000072"/>
<path d="M26.9002 38.8568C27.2532 40.4113 29.2652 41.1226 30.6792 40.1698C31.786 39.4246 33.0013 37.7201 33.7522 33.9826C33.8237 33.6244 33.8916 33.247 33.9544 32.8504L33.4764 32.4441L30.3077 29.7491C30.3077 29.7491 27.186 34.0832 26.8402 37.4055V37.4062C26.7859 37.9207 26.7988 38.4109 26.9002 38.8568Z" fill="#B11313"/>
<g opacity="0.300003">
<g opacity="0.300003">
<path opacity="0.300003" d="M26.8924 38.8564C27.2454 40.4108 29.2574 41.1221 30.6714 40.1693C31.7781 39.4241 32.9935 37.7197 33.7444 33.9821C34.8012 33.4112 35.1641 31.9432 35.1641 31.9432C35.62 29.994 35.0941 28.1973 35.0941 28.1973C35.1942 30.5699 34.1441 31.7016 33.711 32.0649C33.5904 32.1661 33.506 32.2967 33.4693 32.4412C33.469 32.442 33.4688 32.4428 33.4686 32.4436C32.6948 35.5142 31.3987 39.2549 29.5182 39.5228C27.7027 39.781 26.9203 37.6601 26.8324 37.4057C26.7781 37.9202 26.791 38.4104 26.8924 38.8564Z" fill="#000072"/>
</g>
</g>
<path d="M30.1861 29.6225C30.0229 30.0701 29.8159 30.4935 29.5962 30.91C29.4875 31.1188 29.37 31.3235 29.2585 31.5309C29.1464 31.7379 29.0367 31.946 28.93 32.1553C28.5024 32.9916 28.1156 33.8445 27.7991 34.7143C27.6411 35.149 27.4993 35.5878 27.3858 36.0303C27.2716 36.4724 27.1834 36.9184 27.1395 37.364C27.0962 37.8089 27.097 38.2551 27.1773 38.6811C27.1953 38.7903 27.2176 38.8893 27.2526 38.9862C27.2837 39.0842 27.3289 39.1775 27.3762 39.2694C27.4763 39.4509 27.6086 39.6173 27.7662 39.7618C28.0826 40.0492 28.5038 40.2489 28.9515 40.3082C29.1746 40.3417 29.403 40.3355 29.625 40.3025C29.8467 40.2661 30.0612 40.1965 30.2603 40.0988C30.3589 40.0466 30.4533 39.9943 30.5457 39.9268L30.6852 39.8259C30.7324 39.7931 30.7738 39.7529 30.8185 39.7169C30.8618 39.6791 30.9078 39.6444 30.9491 39.6044L31.0727 39.484C31.158 39.4065 31.2303 39.3165 31.3084 39.2318C31.6104 38.8837 31.8674 38.4972 32.0927 38.0944C32.3227 37.6932 32.5036 37.2668 32.6797 36.8398C32.8439 36.408 32.9953 35.9708 33.1219 35.5263C33.1845 35.3038 33.2515 35.0825 33.3036 34.8572C33.3584 34.6327 33.4166 34.409 33.4663 34.183C33.5183 33.9576 33.5868 33.7349 33.653 33.5107C33.7202 33.2868 33.7981 33.064 33.9011 32.8432L33.9017 32.8418C33.9133 32.817 33.9452 32.8052 33.9729 32.8156C33.9922 32.8229 34.0044 32.8391 34.0061 32.8566C34.0507 33.3317 34.0127 33.8001 33.9316 34.2622C33.895 34.4938 33.8347 34.722 33.7844 34.9516C33.7356 35.1816 33.6713 35.4091 33.6114 35.6373C33.4903 36.0937 33.343 36.5455 33.1813 36.9942C33.0071 37.4395 32.8272 37.885 32.5919 38.3134C32.3604 38.7422 32.0966 39.1627 31.766 39.5494C31.6804 39.6443 31.6013 39.7431 31.506 39.8321L31.3678 39.9685C31.3215 40.0138 31.2692 40.0549 31.22 40.0982C31.169 40.1401 31.1222 40.1854 31.0677 40.2245L30.9063 40.3433C30.7986 40.4229 30.6739 40.4951 30.5499 40.5608C30.2967 40.688 30.0196 40.7804 29.7327 40.8293C29.4456 40.8749 29.1498 40.8837 28.8617 40.8433C28.2841 40.7699 27.74 40.5198 27.3282 40.1491C27.1245 39.9618 26.9536 39.7454 26.8253 39.5106C26.7639 39.3923 26.7071 39.2715 26.6671 39.1464C26.623 39.0222 26.5944 38.8931 26.5748 38.7729C26.4842 38.2831 26.4871 37.7939 26.5346 37.3158C26.6335 36.3581 26.9046 35.4382 27.2412 34.5479C27.5776 33.6566 27.9825 32.7915 28.4272 31.9456C28.5382 31.734 28.6522 31.5237 28.7685 31.3146C28.8849 31.1054 29.002 30.8966 29.1304 30.6931C29.3891 30.287 29.6743 29.894 30.0351 29.5415C30.0687 29.5087 30.1255 29.5065 30.162 29.5366C30.1888 29.5587 30.1973 29.5919 30.1867 29.621L30.1861 29.6225Z" fill="#000072"/>
<path d="M33.0592 36.7925C32.9991 36.7925 32.9388 36.773 32.8912 36.7335C32.8699 36.7159 30.7231 34.9697 27.5378 34.7562C27.4014 34.747 27.2991 34.6404 27.3093 34.5181C27.3195 34.3958 27.4385 34.3034 27.5747 34.3131C30.9385 34.5387 33.1355 36.3311 33.2274 36.4073C33.3278 36.4906 33.334 36.6311 33.2411 36.7212C33.1923 36.7685 33.1258 36.7925 33.0592 36.7925Z" fill="#000072"/>
<path d="M25.5041 27.6026C31.982 27.6026 34.5541 25.0648 34.5541 25.0648C34.5541 25.0648 34.662 25.2833 34.7145 25.5939C34.8015 26.1081 34.558 26.624 34.0943 26.9364C33.075 27.6231 30.4796 28.9316 25.5007 28.9316C20.5219 28.9316 17.9264 27.6231 16.9072 26.9364C16.4435 26.624 16.2 26.1081 16.287 25.5939C16.3395 25.2833 16.4474 25.0648 16.4474 25.0648C16.4474 25.0648 19.0195 27.6026 25.4974 27.6026" fill="#751313"/>
<g opacity="0.300003">
<g opacity="0.300003">
<path opacity="0.300003" d="M34.6928 25.4749C34.6094 25.7974 34.4008 26.0905 34.0962 26.2956C33.077 26.9824 30.4816 28.2909 25.5027 28.2909C20.5238 28.2909 17.9284 26.9824 16.9091 26.2956C16.6046 26.0905 16.3959 25.7974 16.3126 25.4749C16.304 25.5128 16.2959 25.5524 16.2889 25.5939C16.2019 26.1082 16.4454 26.624 16.9091 26.9364C17.9284 27.6231 20.5238 28.9316 25.5027 28.9316C30.4816 28.9316 33.077 27.6231 34.0962 26.9364C34.5599 26.624 34.8034 26.1082 34.7165 25.5939C34.7094 25.5524 34.7014 25.5128 34.6928 25.4749Z" fill="#000072"/>
</g>
</g>
<path d="M25.5005 29.1538C20.5283 29.1538 17.889 27.8758 16.7582 27.114C16.2161 26.7487 15.9416 26.1535 16.0419 25.5607C16.0987 25.2245 16.2158 24.9849 16.2207 24.9749C16.2547 24.9062 16.325 24.8575 16.4076 24.8456C16.4902 24.8334 16.5741 24.8598 16.6305 24.9154C16.6553 24.9397 19.2231 27.3805 25.4972 27.3805V27.8248C20.1385 27.8248 17.4203 26.1296 16.565 25.4694C16.5527 25.5181 16.5412 25.5711 16.5316 25.6273C16.4587 26.0583 16.6596 26.4919 17.0558 26.7588C18.1371 27.4873 20.6722 28.7095 25.5005 28.7095C30.3289 28.7095 32.864 27.4873 33.9454 26.7588C34.3415 26.4919 34.5423 26.0583 34.4694 25.6273C34.4599 25.5711 34.4484 25.5181 34.436 25.4694C33.5808 26.1296 30.8625 27.8248 25.5039 27.8248V27.3805C31.7993 27.3805 34.3456 24.9401 34.3706 24.9154C34.4269 24.8598 34.5108 24.8336 34.5934 24.8456C34.6761 24.8575 34.7464 24.9062 34.7803 24.9749C34.7853 24.9849 34.9024 25.2245 34.9592 25.5607C35.0595 26.1535 34.785 26.7488 34.2429 27.114C33.1122 27.8758 30.4728 29.1538 25.5005 29.1538Z" fill="#000072"/>
<path d="M16.457 26.9438L20.4511 35.0977" stroke="#000072" stroke-width="0.2" stroke-miterlimit="10"/>
<path d="M30.3848 35.0977L34.4636 26.9438" stroke="#000072" stroke-width="0.2" stroke-miterlimit="10"/>
<path fill-rule="evenodd" clip-rule="evenodd" d="M25.2077 30.2732C25.2061 30.2928 25.1928 30.3104 25.1839 30.3297C25.1754 30.3484 25.1675 30.3685 25.1601 30.3881C25.1408 30.4393 25.1228 30.4897 25.1244 30.556C25.1903 30.5638 25.2733 30.558 25.3327 30.5505C25.3652 30.5634 25.3861 30.5835 25.4161 30.5979C25.4104 30.5732 25.4375 30.5685 25.4607 30.5614C25.4504 30.5722 25.4344 30.5794 25.4399 30.5998C25.4534 30.6053 25.4556 30.5906 25.4667 30.5888C25.482 30.5995 25.5014 30.5989 25.5173 30.5888C25.5286 30.5904 25.5256 30.6008 25.5381 30.6016C25.5557 30.5874 25.5305 30.572 25.5232 30.5614C25.5453 30.5686 25.5704 30.5739 25.5679 30.5961C25.5919 30.5871 25.6212 30.5656 25.6452 30.5505C25.7072 30.5585 25.7865 30.5622 25.8595 30.5578C25.857 30.4468 25.8131 30.3612 25.7702 30.275C25.7821 30.2741 25.782 30.2837 25.7851 30.2878C25.8294 30.3465 25.8688 30.4135 25.9012 30.4848C25.9059 30.4952 25.9138 30.5093 25.919 30.5231C25.9236 30.5353 25.9332 30.5564 25.9309 30.5633C25.9258 30.5782 25.8855 30.5833 25.8773 30.5961C25.8526 30.5782 25.7812 30.5833 25.7137 30.5815C25.6945 30.581 25.6689 30.5776 25.6571 30.5797C25.6312 30.5842 25.6198 30.6075 25.6065 30.6198C25.6432 30.6214 25.6722 30.5996 25.7047 30.5979C25.7254 30.5969 25.7556 30.6064 25.7821 30.6107C25.8588 30.6232 25.9444 30.6337 26.0143 30.6472C26.0185 30.5005 25.957 30.3782 25.8744 30.2786C25.9565 30.3481 26.0118 30.4294 26.0529 30.525C26.06 30.5415 26.0662 30.5572 26.0708 30.5742C26.0773 30.5981 26.0776 30.6276 26.0976 30.6454C26.0729 30.6619 26.0432 30.6753 26.0172 30.691C25.9441 30.6643 25.8028 30.6257 25.6839 30.6326C25.6554 30.6343 25.6303 30.643 25.6095 30.6545C25.6458 30.6634 25.671 30.6642 25.7196 30.6636C25.7317 30.6635 25.7492 30.6604 25.7583 30.6618C25.7686 30.6634 25.7852 30.6765 25.8 30.6855C25.8859 30.7382 25.9628 30.7768 26.0648 30.8187C26.0967 30.8318 26.1147 30.8451 26.1511 30.8278C26.1572 31.001 26.0822 31.1288 25.9904 31.2457C25.9797 31.2593 25.973 31.2751 25.9547 31.2858C26.0237 31.186 26.0767 31.0673 26.0767 30.9282C26.0767 30.9136 26.0813 30.8954 26.0767 30.8826C26.0703 30.8643 26.0235 30.845 25.9964 30.8297C25.9195 30.7862 25.8583 30.7556 25.7732 30.7147C25.7565 30.7067 25.7423 30.6959 25.7286 30.6928C25.714 30.6896 25.6912 30.6889 25.675 30.6874C25.6547 30.6854 25.6352 30.6849 25.6184 30.6837C25.6513 30.7054 25.7035 30.7323 25.7494 30.753C25.7577 30.7576 25.7665 30.7514 25.7762 30.7512C25.787 30.9546 25.7624 31.1538 25.669 31.3022C25.6467 31.3377 25.622 31.3724 25.5827 31.3989C25.7096 31.2585 25.7192 31.0173 25.6928 30.8059C25.7198 30.7916 25.7081 30.7797 25.6839 30.7622C25.6575 30.743 25.6105 30.715 25.5798 30.7056C25.5776 30.7151 25.5829 30.7244 25.5887 30.733C25.5945 30.7415 25.6074 30.749 25.6095 30.7567C25.614 30.773 25.6032 30.8088 25.5976 30.8278C25.5792 30.8908 25.5404 30.9599 25.5053 31.0066C25.493 31.0057 25.5017 30.9919 25.4934 30.9884C25.4802 30.9888 25.4882 31.0022 25.4815 31.0066C25.4406 30.9638 25.4056 30.8928 25.3863 30.8278C25.3794 30.8046 25.3687 30.7767 25.3744 30.7567C25.3789 30.7408 25.4068 30.7264 25.4042 30.7074C25.3769 30.7113 25.3515 30.7279 25.3298 30.7421C25.3081 30.7563 25.2856 30.7715 25.2703 30.7877C25.2721 30.7957 25.2848 30.797 25.2881 30.8041C25.2686 31.018 25.2692 31.2587 25.4012 31.3971C25.3873 31.3959 25.3808 31.3851 25.3744 31.3789C25.2515 31.2584 25.2185 31.0727 25.2048 30.8807C25.2017 30.8384 25.1986 30.7969 25.2077 30.7549C25.2103 30.746 25.2256 30.7591 25.2345 30.753C25.2815 30.7313 25.3238 30.7068 25.3685 30.6837C25.3296 30.6874 25.2873 30.6862 25.2524 30.6946C25.2221 30.702 25.1889 30.7223 25.1601 30.7366C25.0728 30.7802 24.9807 30.8276 24.9072 30.8771C24.8922 31.0399 24.953 31.1711 25.0262 31.2858C24.9206 31.1595 24.8225 31.0191 24.8328 30.8278C24.873 30.8512 24.9343 30.8132 24.9667 30.7987C25.0568 30.7582 25.153 30.7061 25.2226 30.6618C25.273 30.6664 25.3322 30.6627 25.3744 30.6563C25.3218 30.6152 25.187 30.6359 25.1066 30.6509C25.0526 30.6609 25.0022 30.6754 24.9697 30.691C24.9388 30.6783 24.9151 30.6612 24.8863 30.6472C24.9074 30.6148 24.9119 30.5602 24.928 30.5231C24.9673 30.4326 25.0287 30.3524 25.1036 30.2786C25.1016 30.2926 25.0858 30.3047 25.0768 30.317C25.0116 30.4059 24.9686 30.5161 24.9667 30.6454C25.0355 30.6358 25.1176 30.624 25.1988 30.6107C25.2253 30.6064 25.2527 30.5975 25.2732 30.5979C25.3063 30.5987 25.3374 30.6196 25.3744 30.6198C25.3656 30.6027 25.3488 30.5905 25.3298 30.5797C25.2685 30.584 25.2 30.5773 25.1453 30.5833C25.1397 30.584 25.1324 30.586 25.1244 30.5888C25.1251 30.5886 25.1067 30.5961 25.1095 30.5961C25.0972 30.596 25.0669 30.5697 25.053 30.5669C25.0816 30.4549 25.1461 30.365 25.2077 30.2732Z" fill="#000072"/>
<path fill-rule="evenodd" clip-rule="evenodd" d="M25.502 29.1547V32.3052V29.1547Z" fill="#000072"/>
<path d="M25.502 29.1547V32.3052" stroke="#000072" stroke-width="0.2" stroke-miterlimit="10"/>
<path d="M24.4042 29.1327C24.4042 29.1327 24.5973 31.7135 24.3145 32.1704" stroke="#000072" stroke-width="0.2" stroke-miterlimit="10"/>
<path d="M23.5376 29.0831C23.5376 29.0831 23.973 30.2772 23.3438 31.8901" stroke="#000072" stroke-width="0.2" stroke-miterlimit="10"/>
<path d="M26.5016 29.1539C26.5016 29.1539 26.2997 31.4406 26.5917 32.2192" stroke="#000072" stroke-width="0.2" stroke-miterlimit="10"/>
<path d="M27.531 29.0831C27.531 29.0831 27.0693 31.3507 27.7548 31.8901" stroke="#000072" stroke-width="0.2" stroke-miterlimit="10"/>
<path d="M22.6367 29.5366C22.6367 29.5366 23.0715 29.1644 23.6426 29.5366C23.6426 29.5366 23.9403 29.1672 24.4353 29.5874C24.4353 29.5874 24.7052 29.1273 25.4998 29.5366C25.4998 29.5366 25.8352 29.1521 26.4368 29.5366C26.4368 29.5366 26.9095 29.1096 27.4632 29.5154C27.4632 29.5154 27.9568 29.0335 28.3842 29.4639" stroke="#000072" stroke-width="0.2" stroke-miterlimit="10"/>
<path d="M25.4377 30.1276C25.4221 30.1177 25.4067 30.1084 25.3914 30.0996C24.8502 29.7885 24.4575 30.1362 24.4575 30.1362C24.056 29.7625 23.6837 30.1362 23.6837 30.1362C23.0596 29.4833 22.7227 30.1362 22.7227 30.1362" stroke="#000072" stroke-width="0.2" stroke-miterlimit="10"/>
<path d="M25.4219 30.1347C25.4219 30.1347 25.9152 29.7799 26.4342 30.1347C26.4342 30.1347 26.9384 29.6956 27.3799 30.1543C27.3799 30.1543 28.0352 29.702 28.2796 30.1452" stroke="#000072" stroke-width="0.2" stroke-miterlimit="10"/>
<path d="M22.7227 31.2268C22.7227 31.2268 23.1231 30.6352 23.5445 31.277C23.5445 31.277 24.3002 30.8088 24.461 31.4627C24.461 31.4627 25.0868 31.1774 25.5242 31.647C25.5242 31.647 25.9876 31.1609 26.5244 31.5316C26.5244 31.5316 26.8828 30.7882 27.4894 31.3618C27.4894 31.3618 27.8631 30.7419 28.2798 31.0956" stroke="#000072" stroke-width="0.2" stroke-miterlimit="10"/>
<path d="M22.6836 31.5812C22.6836 31.5812 23.205 31.1069 23.4331 31.6477C23.4331 31.6477 24.1841 31.3431 24.3938 31.8908C24.3938 31.8908 25.1699 31.5258 25.493 32.1099C25.493 32.1099 25.9522 31.7218 26.5043 31.9854C26.5043 31.9854 27.0116 31.301 27.5989 31.705C27.5989 31.705 28.0168 31.0649 28.2668 31.4634" stroke="#000072" stroke-width="0.2" stroke-miterlimit="10"/>
<path d="M18.1094 36.7332C18.1094 36.7332 20.4205 34.5544 23.3417 34.7648L24.0057 36.5939C24.0057 36.5939 23.288 39.3097 18.763 38.3946L18.1094 36.7332Z" fill="#000072"/>
<path d="M18.1094 36.7332C18.1094 36.7332 20.4205 34.5544 23.3417 34.7648L24.0057 36.5939C24.0057 36.5939 23.288 39.3097 18.763 38.3946L18.1094 36.7332Z" stroke="#000072" stroke-width="0.2" stroke-miterlimit="10"/>
<path d="M26.8906 37.0436L27.5711 34.4487L30.778 35.323L32.6887 36.2959V37.0436L32.24 38.3948C32.24 38.3948 29.0295 39.3426 26.8906 37.0436Z" fill="#000072"/>
<path d="M26.8906 37.0436L27.5711 34.4487L30.778 35.323L32.6887 36.2959V37.0436L32.24 38.3948C32.24 38.3948 29.0295 39.3426 26.8906 37.0436Z" stroke="#000072" stroke-width="0.2" stroke-miterlimit="10"/>
<path d="M10.6602 33.588L13.1289 39.3286" stroke="#000072" stroke-width="0.2" stroke-miterlimit="10"/>
<path d="M10.0195 34.312C10.0195 34.312 10.4461 36.9693 12.3083 39.2847" stroke="#000072" stroke-width="0.2" stroke-miterlimit="10"/>
<path d="M11.6621 33.3666C11.6621 33.3666 13.5904 36.3024 13.8883 39.3745" stroke="#000072" stroke-width="0.2" stroke-miterlimit="10"/>
<path d="M12.8984 33.588C12.8984 33.588 14.0679 35.6787 14.7272 39.3286" stroke="#000072" stroke-width="0.2" stroke-miterlimit="10"/>
<path d="M9.75781 35.5522C9.75781 35.5522 9.76269 34.9643 10.2287 35.1922C10.2287 35.1922 10.4022 34.164 11.164 34.8168C11.164 34.8168 11.1928 33.773 12.2575 34.3989C12.2575 34.3989 12.5611 33.6328 13.1988 34.3123C13.1988 34.3123 13.5151 34.1555 13.7186 34.509" stroke="#000072" stroke-width="0.2" stroke-miterlimit="10"/>
<path d="M10.0898 34.6714C10.0898 34.6714 10.2533 33.911 10.904 34.1629C10.904 34.1629 11.0328 33.5379 11.8908 33.7457C11.8908 33.7457 12.0171 33.3369 13.0352 33.8594" stroke="#000072" stroke-width="0.2" stroke-miterlimit="10"/>
<path d="M9.84766 35.8652C9.84766 35.8652 9.88358 35.276 10.3806 35.686C10.3806 35.686 10.5372 34.6658 11.4056 35.3232C11.4056 35.3232 11.4289 34.3243 12.4393 34.8888C12.4393 34.8888 12.8111 34.3311 13.4591 34.817C13.4591 34.817 13.5748 34.5267 13.8982 34.817" stroke="#000072" stroke-width="0.2" stroke-miterlimit="10"/>
<path d="M9.84766 36.3706C9.84766 36.3706 10.0494 35.804 10.6013 36.2959C10.6013 36.2959 10.9391 35.3707 11.6617 35.9969C11.6617 35.9969 11.9528 34.7619 12.8391 35.6101C12.8391 35.6101 12.977 34.8038 13.6819 35.4003C13.6819 35.4003 13.7354 34.9052 14.1071 35.3027" stroke="#000072" stroke-width="0.2" stroke-miterlimit="10"/>
<path d="M10.0195 36.7988C10.0195 36.7988 10.2072 36.3321 10.7541 36.6672C10.7541 36.6672 11.3487 35.9305 11.8944 36.4581C11.8944 36.4581 12.48 35.6652 13.0388 36.2678C13.0388 36.2678 13.3295 35.5238 13.9041 36.0417C13.9041 36.0417 14.1171 35.7644 14.2891 36.0043" stroke="#000072" stroke-width="0.2" stroke-miterlimit="10"/>
<path d="M10.2148 37.3481C10.2148 37.3481 10.5454 36.8398 10.968 37.1434C10.968 37.1434 11.3384 36.564 12.1454 37.0467C12.1454 37.0467 12.5294 36.2623 13.3196 36.8546C13.3196 36.8546 13.6054 36.1872 14.1057 36.7924C14.1057 36.7924 14.1076 36.1447 14.4578 36.4581" stroke="#000072" stroke-width="0.2" stroke-miterlimit="10"/>
<path d="M10.4609 37.9893V37.8262C10.4609 37.8262 10.6824 37.2315 11.2126 37.6194C11.2126 37.6194 11.7601 37.0567 12.3394 37.4908C12.3394 37.4908 12.9381 36.7881 13.4796 37.3483C13.4796 37.3483 13.8057 36.7341 14.29 37.3461" stroke="#000072" stroke-width="0.2" stroke-miterlimit="10"/>
<path d="M10.873 38.189C10.873 38.189 10.8936 37.8725 11.4189 37.9895C11.4189 37.9895 11.9819 37.607 12.5418 37.9636C12.5418 37.9636 12.9368 37.3353 13.6071 37.8115C13.6071 37.8115 14.0713 37.3219 14.3889 37.7366" stroke="#000072" stroke-width="0.2" stroke-miterlimit="10"/>
<path d="M11.1641 38.583C11.1641 38.583 11.367 38.3062 11.7383 38.5025C11.7383 38.5025 12.2204 38.0831 12.7437 38.4322C12.7437 38.4322 13.1078 37.9373 13.7202 38.2934C13.7202 38.2934 14.1086 37.8422 14.4962 38.1881" stroke="#000072" stroke-width="0.2" stroke-miterlimit="10"/>
<path d="M11.5645 38.8638C11.5645 38.8638 11.6281 38.5707 11.9764 38.8509C11.9764 38.8509 12.3833 38.6166 12.8978 38.8638C12.8978 38.8638 13.4588 38.5484 13.8122 38.7967C13.8122 38.7967 14.2715 38.4872 14.5768 38.7826" stroke="#000072" stroke-width="0.2" stroke-miterlimit="10"/>
<path d="M12.1543 39.0683C12.1543 39.0683 12.4249 38.8136 13.0388 39.1187C13.0388 39.1187 13.3757 38.9342 13.6844 38.9992C13.7285 39.0085 13.772 39.0229 13.8138 39.0437" stroke="#000072" stroke-width="0.2" stroke-miterlimit="10"/>
<path d="M13.8555 39.1206C13.8555 39.1206 14.1676 38.8757 14.6979 39.0444" stroke="#000072" stroke-width="0.2" stroke-miterlimit="10"/>
<path d="M14.4591 36.3723C14.366 36.5621 14.7274 39.5493 14.7274 39.5493H19.2354L19.1394 39.3282L18.1112 37.5692L17.4676 35.9169C16.0092 35.7315 14.5776 32.6686 14.5776 32.6686L13.5625 33.6367L13.813 34.1632L14.2883 35.1482L14.4591 36.3723Z" fill="#000072"/>
<path d="M40.1598 33.4491L37.9531 39.3286" stroke="#000072" stroke-width="0.2" stroke-miterlimit="10"/>
<path d="M40.7476 34.1665C40.7476 34.1665 40.3553 37.9184 38.5137 39.4185" stroke="#000072" stroke-width="0.2" stroke-miterlimit="10"/>
<path d="M39.3077 33.4127C39.3077 33.4127 37.8132 36.6317 37.1035 39.3638" stroke="#000072" stroke-width="0.2" stroke-miterlimit="10"/>
<path d="M38.0641 33.6946C38.0641 33.6946 36.9764 35.5237 36.4121 39.7036" stroke="#000072" stroke-width="0.2" stroke-miterlimit="10"/>
<path d="M41.111 35.1572C41.111 35.1572 40.992 34.6371 40.6149 34.9873C40.6149 34.9873 40.4574 34.0575 39.7137 34.6316C39.7137 34.6316 39.5037 33.8392 38.851 34.4483C38.851 34.4483 38.343 33.6909 37.7103 34.4483C37.7103 34.4483 37.5795 34.2565 37.2734 34.5086" stroke="#000072" stroke-width="0.2" stroke-miterlimit="10"/>
<path d="M41.1494 35.6841C41.1494 35.6841 41.0097 35.1738 40.4953 35.5524C40.4953 35.5524 40.1962 34.913 39.4547 35.3232C39.4547 35.3232 39.2808 34.6755 38.5101 35.0973C38.5101 35.0973 38.2824 34.6043 37.5148 34.9546C37.5148 34.9546 37.3352 34.6428 37.0137 34.9822" stroke="#000072" stroke-width="0.2" stroke-miterlimit="10"/>
<path d="M41.1464 36.2959C41.1464 36.2959 40.8526 35.7464 40.3508 36.1023C40.3508 36.1023 39.8817 35.5064 39.2039 35.9823C39.2039 35.9823 38.9476 35.4014 38.2959 35.798C38.2959 35.798 37.9624 35.1575 37.2705 35.6101C37.2705 35.6101 37.1436 35.2725 36.6406 35.5523" stroke="#000072" stroke-width="0.2" stroke-miterlimit="10"/>
<path d="M41.0269 36.7925C41.0269 36.7925 40.8538 36.2491 40.1687 36.6998C40.1687 36.6998 39.7019 36.0023 39.0048 36.5187C39.0048 36.5187 38.7035 35.808 38.0647 36.3886C38.0647 36.3886 37.8632 35.8104 37.1026 36.2497C37.1026 36.2497 36.9912 35.7973 36.6666 36.1855C36.3419 36.5737 36.5808 36.1783 36.5808 36.1783" stroke="#000072" stroke-width="0.2" stroke-miterlimit="10"/>
<path d="M40.8431 37.3311C40.8431 37.3311 40.5952 36.7244 39.9843 37.2007C39.9843 37.2007 39.602 36.7054 38.817 37.0182C38.817 37.0182 38.3425 36.5072 37.7923 37.018C37.7923 37.018 37.4176 36.4985 36.9256 36.9313C36.9256 36.9313 36.734 36.0788 36.2715 36.9027" stroke="#000072" stroke-width="0.2" stroke-miterlimit="10"/>
<path d="M40.471 37.752C40.471 37.752 40.4559 37.1978 39.7967 37.6435C39.7967 37.6435 39.3624 37.0999 38.5977 37.611C38.5977 37.611 38.1843 37.0516 37.6252 37.6428C37.6252 37.6428 37.2443 37.1006 36.7718 37.6255C36.7718 37.6255 36.7569 36.7217 36.1191 37.4302" stroke="#000072" stroke-width="0.2" stroke-miterlimit="10"/>
<path d="M40.156 38.2212C40.156 38.2212 40.0579 37.9188 39.5314 38.1524C39.5314 38.1524 38.9595 37.7673 38.3943 38.1425C38.3943 38.1425 38.068 37.7311 37.4709 38.0997C37.4709 38.0997 36.9795 37.7156 36.6418 38.0837C36.6418 38.0837 36.6716 37.3965 35.9551 37.9242" stroke="#000072" stroke-width="0.2" stroke-miterlimit="10"/>
<path d="M39.7769 38.5887C39.7769 38.5887 39.6961 38.2473 39.2588 38.5887C39.2588 38.5887 38.7622 38.2893 38.2039 38.6509C38.2039 38.6509 37.6545 38.3388 37.301 38.6509C37.301 38.6509 36.9222 38.1905 36.5215 38.6509C36.5215 38.6509 36.3988 38.0424 36.0117 38.5439" stroke="#000072" stroke-width="0.2" stroke-miterlimit="10"/>
<path d="M39.4446 38.764C39.4446 38.764 39.2633 38.6152 39.0814 38.8306C39.0814 38.8306 38.3554 38.6393 38.0657 39.0234C38.0657 39.0234 37.7539 38.7187 37.1954 39.0234C37.1954 39.0234 36.9225 38.5734 36.5133 39.0234C36.5133 39.0234 36.2878 38.4251 35.8652 39.0234" stroke="#000072" stroke-width="0.2" stroke-miterlimit="10"/>
<path d="M33.683 35.8691L35.1318 34.6169L36.2714 32.8834L36.4125 32.4986L37.369 33.4491L37.4441 33.9213L36.9256 34.4491L36.6426 35.0977L36.522 35.8691V36.2834L36.5122 36.5599C36.5122 36.5599 36.0174 38.6515 36.2714 39.4746L31.8588 39.5728L31.7148 39.3286L32.4356 38.0732L33.2267 36.4075L33.683 35.8691Z" fill="#000072"/>
<path d="M32.8752 27.7492C32.8752 27.7492 29.3438 33.8946 28.9473 35.6104" stroke="#000072" stroke-width="0.2" stroke-miterlimit="10"/>
<path d="M31.7459 28.2207C31.7459 28.2207 28.2939 34.4171 28.5992 34.9414" stroke="#000072" stroke-width="0.2" stroke-miterlimit="10"/>
<path d="M35.0444 27.8825C35.0444 27.8825 32.4199 34.2931 31.1992 35.791" stroke="#000072" stroke-width="0.2" stroke-miterlimit="10"/>
<path d="M30.3105 29.1538C30.3105 29.1538 31.1092 28.3959 31.3066 29.0286C31.3066 29.0286 31.8428 28.3205 32.2797 28.8055C32.2797 28.8055 33.3203 28.0541 33.4869 28.8948C33.4869 28.8948 34.433 28.2263 34.5118 29.1538C34.5118 29.1538 34.8553 29.0667 34.847 29.8459C34.847 29.8459 35.1556 30.4513 35.066 30.6865" stroke="#000072" stroke-width="0.2" stroke-miterlimit="10"/>
<path d="M31.623 28.4447C31.623 28.4447 32.2484 27.9382 32.6053 28.2208C32.6053 28.2208 33.4468 27.456 33.8855 28.0923C33.8855 28.0923 34.7176 27.9604 34.7323 28.6274C34.7323 28.6274 35.0692 29.0065 35.043 29.1541C35.043 29.1541 34.6573 31.4779 33.9197 32.8589C33.9197 32.8589 32.9417 35.868 31.9458 36.1089" stroke="#000072" stroke-width="0.2" stroke-miterlimit="10"/>
<path d="M30.1875 29.6208C30.1875 29.6208 30.6875 29.0612 30.984 29.6208C30.984 29.6208 31.7171 28.987 31.7468 29.6208C31.7468 29.6208 32.9041 29.1191 33.0569 29.7486C33.0569 29.7486 33.9114 29.2025 34.0841 30.1364C34.0841 30.1364 34.9055 29.8608 34.645 30.8111C34.645 30.8111 35.1007 30.7042 35.0148 31.3018" stroke="#000072" stroke-width="0.2" stroke-miterlimit="10"/>
<path d="M29.7363 30.3205C29.7363 30.3205 30.4629 29.7118 30.5543 30.4282C30.5543 30.4282 31.2578 29.8139 31.2963 30.5904C31.2963 30.5904 32.5533 30.0117 32.5246 30.8111C32.5246 30.8111 33.4026 30.5602 33.5602 31.3126C33.5602 31.3126 34.3187 31.0858 34.3976 31.7207C34.3976 31.7207 34.957 31.6894 34.9046 32.0947" stroke="#000072" stroke-width="0.2" stroke-miterlimit="10"/>
<path d="M29.3535 31.096C29.3535 31.096 29.9133 30.2577 30.2536 31.091C30.2536 31.091 30.7064 30.7247 30.9119 31.2437C30.9119 31.2437 32.0131 30.9142 32.1096 31.6474C32.1096 31.6474 32.8548 31.2275 33.2262 31.8905C33.2262 31.8905 34.0905 31.7626 34.2162 32.2199C34.2162 32.2199 34.6103 32.1098 34.7517 32.4985" stroke="#000072" stroke-width="0.2" stroke-miterlimit="10"/>
<path d="M29.1348 31.5818C29.1348 31.5818 29.6528 31.339 29.8072 31.8908C29.8072 31.8908 30.3437 31.4699 30.5592 31.9748C30.5592 31.9748 31.4376 31.6735 31.7193 32.3052C31.7193 32.3052 32.6709 31.9816 32.9803 32.5774C32.9803 32.5774 33.6256 32.4236 33.9777 32.8162C33.9777 32.8162 34.4058 32.672 34.4642 33.064" stroke="#000072" stroke-width="0.2" stroke-miterlimit="10"/>
<path d="M28.7578 32.2298C28.7578 32.2298 29.476 31.7512 29.4748 32.554C29.4748 32.554 30.0987 32.1581 30.1857 32.6524C30.1857 32.6524 31.157 32.3998 31.397 33.0637C31.397 33.0637 32.2056 32.5352 32.6048 33.3418C32.6048 33.3418 33.4368 32.9423 33.6254 33.6006" stroke="#000072" stroke-width="0.2" stroke-miterlimit="10"/>
<path d="M28.4941 32.9983C28.4941 32.9983 29.0491 32.4616 29.2344 33.0636C29.2344 33.0636 29.7454 32.6758 29.934 33.2264C29.934 33.2264 30.8278 33.0041 31.1297 33.6006C31.1297 33.6006 31.932 33.2918 32.3225 33.9051C32.3225 33.9051 33.0162 33.5086 33.3745 34.1123" stroke="#000072" stroke-width="0.2" stroke-miterlimit="10"/>
<path d="M28.2461 33.5046C28.2461 33.5046 28.8149 33.189 28.9939 33.6001C28.9939 33.6001 29.4921 33.2914 29.6839 33.7502C29.6839 33.7502 30.6611 33.5699 30.8127 34.1119C30.8127 34.1119 31.7047 33.8831 32.051 34.4229C32.051 34.4229 32.7287 34.2077 33.1211 34.6346C33.1211 34.6346 33.2799 34.5493 33.2796 34.9414" stroke="#000072" stroke-width="0.2" stroke-miterlimit="10"/>
<path d="M28.0254 33.9822C28.0254 33.9822 28.6333 33.7027 28.7565 34.0611C28.7565 34.0611 29.4087 33.8267 29.4613 34.2277C29.4613 34.2277 30.5673 34.0032 30.633 34.5882C30.633 34.5882 31.6123 34.3252 31.757 34.9418C31.757 34.9418 32.606 34.6286 32.7936 35.3232C32.7936 35.3232 33.1248 35.1824 33.2207 35.6104" stroke="#000072" stroke-width="0.2" stroke-miterlimit="10"/>
<path d="M17.5684 27.3014C17.5684 27.3014 20.7163 31.9419 21.4519 34.9414" stroke="#000072" stroke-width="0.2" stroke-miterlimit="10"/>
<path d="M19.377 28.1971C19.377 28.1971 21.7287 32.0607 22.5095 34.6177" stroke="#000072" stroke-width="0.2" stroke-miterlimit="10"/>
<path d="M16.0566 28.0381C16.0566 28.0381 18.7981 35.0087 19.6959 35.5522" stroke="#000072" stroke-width="0.2" stroke-miterlimit="10"/>
<path d="M15.9453 29.3392C15.9453 29.3392 18.1626 35.5509 18.824 35.8687" stroke="#000072" stroke-width="0.2" stroke-miterlimit="10"/>
<path d="M16.2559 28.3184C16.2559 28.3184 16.317 27.5892 16.9794 28.0115C16.9794 28.0115 17.2434 27.4891 17.9938 27.9449C17.9938 27.9449 18.193 27.6652 18.8269 27.8929" stroke="#000072" stroke-width="0.2" stroke-miterlimit="10"/>
<path d="M16.0957 29.7485C16.0957 29.7485 16.1551 29.2354 16.6225 29.4361C16.6225 29.4361 16.7672 28.7251 17.5716 29.2221C17.5716 29.2221 17.7209 28.4742 18.6088 28.9319C18.6088 28.9319 19.1668 28.2765 19.8095 28.9319C19.8095 28.9319 20.2797 28.5401 20.6231 28.9319" stroke="#000072" stroke-width="0.2" stroke-miterlimit="10"/>
<path d="M15.9453 29.1323C15.9453 29.1323 16.1515 28.82 16.3992 28.9317C16.3992 28.9317 16.6662 28.2526 17.2429 28.5551C17.2429 28.5551 17.6083 28.0628 18.2678 28.3822C18.2678 28.3822 18.9544 28.0987 19.3752 28.2744" stroke="#000072" stroke-width="0.2" stroke-miterlimit="10"/>
<path d="M15.8711 30.7212C15.8711 30.7212 15.9504 30.3759 16.4001 30.5746C16.4001 30.5746 16.4621 30.0526 16.9776 30.3224C16.9776 30.3224 17.1098 29.6057 18.0271 30.0495C18.0271 30.0495 18.1197 29.2133 19.0932 29.7483C19.0932 29.7483 19.5214 29.1071 20.1699 29.5695C20.1699 29.5695 20.2422 29.2043 20.7391 29.5149" stroke="#000072" stroke-width="0.2" stroke-miterlimit="10"/>
<path d="M15.9453 31.5283C15.9453 31.5283 16.1505 30.957 16.6743 31.3021C16.6743 31.3021 16.7826 30.6928 17.321 31.0959C17.321 31.0959 17.7199 30.5358 18.3041 30.8115C18.3041 30.8115 18.8297 30.0516 19.5113 30.487C19.5113 30.487 20.0061 29.9018 20.5404 30.2473C20.5404 30.2473 20.5594 30.0241 21.0651 30.1367" stroke="#000072" stroke-width="0.2" stroke-miterlimit="10"/>
<path d="M16.0957 32.0947C16.0957 32.0947 16.2367 31.5073 16.9005 31.8902C16.9005 31.8902 17.2087 31.4883 17.6103 31.759C17.6103 31.759 17.9557 31.0794 18.6694 31.4703C18.6694 31.4703 19.1485 30.8515 19.9181 31.241C19.9181 31.241 20.2697 30.7243 20.9472 31.0203C20.9472 31.0203 20.8897 30.7167 21.4041 30.91" stroke="#000072" stroke-width="0.2" stroke-miterlimit="10"/>
<path d="M16.3594 32.6689C16.3594 32.6689 16.5139 32.1534 17.0497 32.4121C17.0497 32.4121 17.3689 31.8727 17.8538 32.2794C17.8538 32.2794 18.0676 31.5935 18.9748 32.0624C18.9748 32.0624 19.4077 31.4637 20.2052 31.7565C20.2052 31.7565 20.5219 31.1904 21.2358 31.5367C21.2358 31.5367 21.3842 31.2557 21.7447 31.4804" stroke="#000072" stroke-width="0.2" stroke-miterlimit="10"/>
<path d="M16.3965 33.1807C16.3965 33.1807 16.6139 32.5206 17.2078 32.6689C17.2078 32.6689 17.7414 32.4113 18.0104 32.6472C18.0104 32.6472 18.7775 32.1304 19.1715 32.4985C19.1715 32.4985 19.9642 31.9366 20.4446 32.2945C20.4446 32.2945 20.9859 31.8868 21.5158 32.1707C21.5158 32.1707 21.8062 31.8836 22.1648 32.095" stroke="#000072" stroke-width="0.2" stroke-miterlimit="10"/>
<path d="M22.5069 32.8829C22.5069 32.8829 21.9548 32.2288 21.8266 32.8441C21.8266 32.8441 20.8841 32.3377 20.7953 33.0633C20.7953 33.0633 19.8694 32.4399 19.5438 33.2544C19.5438 33.2544 18.5971 32.7877 18.3565 33.4449C18.3565 33.4449 17.7527 32.8786 17.6594 33.6003C17.6594 33.6003 17.3442 33.4924 17.2891 33.7725" stroke="#000072" stroke-width="0.2" stroke-miterlimit="10"/>
<path d="M22.7559 33.4447C22.7559 33.4447 22.2454 32.9393 22.1096 33.5123C22.1096 33.5123 21.3592 33.0697 21.0419 33.6682C21.0419 33.6682 20.2326 33.3015 19.9182 33.9818C19.9182 33.9818 19.0525 33.5491 18.8229 34.295C18.8229 34.295 18.2284 34.0793 18.025 34.6178C18.025 34.6178 17.7193 34.5452 17.5684 34.9414" stroke="#000072" stroke-width="0.2" stroke-miterlimit="10"/>
<path d="M22.8762 33.8783C22.8762 33.8783 22.4909 33.2541 22.311 34.0313C22.311 34.0313 21.8329 33.7647 21.2731 34.3124C21.2731 34.3124 20.5571 34.0925 20.164 34.5175C20.164 34.5175 19.5969 34.3776 19.1854 34.7507C19.1628 34.7712 19.1407 34.7932 19.1191 34.8169" stroke="#000072" stroke-width="0.2" stroke-miterlimit="10"/>
<path d="M19.1389 34.793C19.1389 34.793 18.61 34.75 18.3352 35.1921C18.3352 35.1921 17.9536 35.2067 17.7774 35.61C17.6012 36.0133 17.6947 35.5522 17.6947 35.5522" stroke="#000072" stroke-width="0.2" stroke-miterlimit="10"/>
<path fill-rule="evenodd" clip-rule="evenodd" d="M25.4532 10.9062C31.5281 10.9062 36.2013 16.5764 36.2013 21.311C36.2013 26.0458 27.6357 27.959 25.4532 28.0524C23.2706 28.1457 14.2598 25.9069 14.2598 21.1722C14.2598 16.4374 19.3783 10.9062 25.4532 10.9062Z" fill="#FF850B"/>
<path d="M25.4561 11.1359C19.3978 11.1359 14.5194 16.626 14.5194 21.1717C14.5194 22.3537 15.1184 23.4653 16.2999 24.4755C18.9316 26.7258 23.7331 27.8242 25.3207 27.8243C25.3643 27.8243 25.4052 27.8235 25.4439 27.8219C26.5941 27.7727 29.2439 27.2418 31.5338 26.2157C33.5473 25.3135 35.9474 23.73 35.9474 21.3105C35.9474 16.6053 31.3646 11.1359 25.4561 11.1359ZM25.3272 28.2847C23.6242 28.2847 18.7161 27.1777 15.9456 24.8088C14.6585 23.7082 14.0059 22.4845 14.0059 21.1717C14.0059 18.8017 15.2721 16.1606 17.3929 14.1067C19.6446 11.926 22.5835 10.6754 25.4561 10.6754C28.3466 10.6754 31.1332 11.9209 33.3028 14.1824C35.2803 16.2437 36.461 18.9084 36.461 21.3105C36.461 23.4119 34.8365 25.2505 31.7633 26.6276C29.4067 27.6837 26.6635 28.2307 25.4683 28.2818C25.4242 28.2837 25.377 28.2847 25.3272 28.2847Z" fill="#000072"/>
<g opacity="0.5">
<g opacity="0.5">
<path opacity="0.5" fill-rule="evenodd" clip-rule="evenodd" d="M25.4528 10.9051C29.1864 10.9051 32.3901 13.0473 34.3052 15.7974C34.3251 15.8862 34.3443 15.9755 34.3612 16.0654C32.6127 13.7669 29.8864 12.2513 26.8672 11.8424C27.0608 11.908 27.173 11.9859 27.173 12.0695C27.173 12.3032 26.2953 12.4926 25.2127 12.4926C24.1302 12.4926 23.2525 12.3032 23.2525 12.0695C23.2525 11.9859 23.3645 11.908 23.5583 11.8424C20.5389 12.2514 17.8129 13.7671 16.0645 16.0654L16.0741 16.017C18.0902 13.157 21.5767 10.9051 25.4528 10.9051Z" fill="white"/>
</g>
</g>
<path fill-rule="evenodd" clip-rule="evenodd" d="M35.9128 22.7653C34.4022 26.4423 27.3967 27.9688 25.4532 28.0519C23.5296 28.1342 16.3035 26.4045 14.6152 22.7519C14.7447 20.7623 15.8718 20.2185 17.9562 21.1908C18.8134 21.5905 19.6853 22.0075 20.3763 21.69C24.3202 19.8772 26.7283 20.219 29.4278 21.69C30.6902 22.378 31.9221 21.3518 32.695 21.0389C35.1567 20.0421 36.2861 20.7393 35.9128 22.7653Z" fill="white"/>
<g opacity="0.300003">
<g opacity="0.300003">
<path opacity="0.300003" fill-rule="evenodd" clip-rule="evenodd" d="M36.1545 20.4839C36.1851 20.7617 36.2013 21.0378 36.2013 21.3107C36.2013 21.4851 36.1883 21.6551 36.1659 21.822L36.1682 21.7721C35.8682 24.9318 28.773 27.3444 24.956 27.5392C21.7698 27.7019 15.4061 24.626 14.3361 21.7721C14.3381 21.8313 14.3414 21.8903 14.3444 21.9493C14.2899 21.6979 14.2598 21.4391 14.2598 21.1719C14.2598 20.9591 14.2705 20.7448 14.2907 20.5293L14.3073 20.4832C16.7947 23.6902 20.8751 25.6024 25.2313 25.6024C29.587 25.6024 33.6672 23.6903 36.1545 20.4839Z" fill="#000072"/>
</g>
</g>
<path fill-rule="evenodd" clip-rule="evenodd" d="M21.5246 18.9706C21.1849 18.8348 20.8372 18.6072 20.4819 18.2882C19.8659 18.3133 19.373 18.9033 19.373 19.6275C19.373 20.3677 19.8877 20.9678 20.5224 20.9678C21.1573 20.9678 21.672 20.3677 21.672 19.6275C21.672 19.3888 21.6184 19.1648 21.5246 18.9706Z" fill="#000072"/>
<path d="M31.173 17.7092C30.7584 18.2031 30.3508 18.5851 29.9502 18.855C29.3609 19.252 28.723 19.3216 28.6523 18.8842C28.9694 18.8517 29.2997 18.7195 29.6433 18.4881C30.4901 17.9173 30.7548 17.5499 31.173 17.7092Z" fill="#000072"/>
<path fill-rule="evenodd" clip-rule="evenodd" d="M29.2392 18.9706C29.5788 18.8348 29.9266 18.6072 30.282 18.2882C30.898 18.3133 31.3907 18.9033 31.3907 19.6275C31.3907 20.3677 30.8762 20.9678 30.2413 20.9678C29.6064 20.9678 29.0918 20.3677 29.0918 19.6275C29.0918 19.3888 29.1453 19.1648 29.2392 18.9706Z" fill="#000072"/>
<path fill-rule="evenodd" clip-rule="evenodd" d="M29.7633 19.2859C29.5768 19.2859 29.4258 19.4303 29.4258 19.6083C29.4258 19.7863 29.5768 19.9307 29.7633 19.9307C29.9496 19.9307 30.1007 19.7863 30.1007 19.6083C30.1007 19.4303 29.9496 19.2859 29.7633 19.2859Z" fill="white"/>
<path fill-rule="evenodd" clip-rule="evenodd" d="M25.2345 19.8629C26.0565 19.8629 26.7229 20.2613 26.7229 20.7527C26.7229 21.2442 26.0565 21.6426 25.2345 21.6426C24.4124 21.6426 23.7461 21.2442 23.7461 20.7527C23.7461 20.2613 24.4124 19.8629 25.2345 19.8629Z" fill="#000072"/>
<path d="M26.6551 22.7334C26.1312 22.7334 25.6245 22.5587 25.2356 22.2465C24.8013 22.6011 24.2027 22.7661 23.6143 22.6822C22.9307 22.5848 22.3511 22.1647 22.1013 21.5858C22.0502 21.4672 22.1159 21.3339 22.2482 21.288C22.3804 21.2422 22.5291 21.3011 22.5803 21.4197C22.7642 21.8462 23.1913 22.1557 23.6949 22.2275C24.1987 22.2993 24.7116 22.1238 25.034 21.7696C25.0821 21.7167 25.154 21.6857 25.2301 21.6849C25.3068 21.685 25.3787 21.7138 25.4282 21.7657C25.7644 22.119 26.2723 22.3067 26.7891 22.2679C27.3052 22.2291 27.7719 21.9679 28.0377 21.5692C28.1104 21.46 28.2683 21.4244 28.3898 21.4898C28.5115 21.555 28.5512 21.6964 28.4784 21.8055C28.128 22.3311 27.5126 22.6756 26.8321 22.7267C26.773 22.7312 26.7139 22.7334 26.6551 22.7334Z" fill="#000072"/>
<path fill-rule="evenodd" clip-rule="evenodd" d="M25.2336 21.9145C25.7688 22.3707 26.2946 22.5648 26.8112 22.4966C26.939 25.5038 23.5395 25.3813 23.6552 22.4542C24.2885 22.5262 24.8145 22.3464 25.2336 21.9145Z" fill="#000072"/>
<path d="M23.9118 22.7004C23.9372 23.4666 24.2403 24.069 24.745 24.337C25.0785 24.514 25.4553 24.5165 25.7789 24.3437C26.2621 24.0856 26.54 23.5079 26.5579 22.7398C26.121 22.7273 25.6821 22.5577 25.2475 22.2335C24.8733 22.544 24.4297 22.7005 23.9234 22.7005C23.9196 22.7005 23.9157 22.7005 23.9118 22.7004ZM25.2727 24.9312C25.003 24.9312 24.7318 24.8652 24.4834 24.7333C23.7525 24.3452 23.3574 23.5117 23.3995 22.4464L23.4095 22.1944L23.6884 22.2262C24.2367 22.2885 24.6784 22.1372 25.0407 21.7638L25.2168 21.5823L25.4113 21.748C25.8907 22.1566 26.3371 22.3272 26.7747 22.2692L27.0578 22.2319L27.0686 22.4883C27.1136 23.5462 26.7392 24.3667 26.0417 24.7393C25.8022 24.8672 25.5381 24.9312 25.2727 24.9312Z" fill="#000072"/>
<path fill-rule="evenodd" clip-rule="evenodd" d="M25.2623 23.5775C24.8052 23.5775 24.3759 23.7738 24.1074 24.1052C24.7254 24.8945 25.8212 24.9074 26.4116 24.0985C26.1428 23.7711 25.7161 23.5775 25.2623 23.5775Z" fill="#FF0066"/>
<path d="M24.437 24.1112C24.675 24.3465 24.9744 24.4741 25.285 24.4715C25.5853 24.4671 25.8623 24.34 26.0802 24.11C25.863 23.9189 25.5675 23.8085 25.2594 23.8085C24.95 23.8085 24.6542 23.9193 24.437 24.1112ZM25.2691 24.9321C24.7403 24.9321 24.2404 24.6802 23.8944 24.2382L23.7891 24.1037L23.8968 23.9706C24.2125 23.5808 24.7219 23.348 25.2594 23.348C25.7925 23.348 26.2994 23.5778 26.6154 23.9627L26.7211 24.0915L26.6235 24.2254C26.3013 24.6668 25.8165 24.9243 25.2934 24.9319C25.2853 24.9321 25.2771 24.9321 25.2691 24.9321Z" fill="#000072"/>
<path fill-rule="evenodd" clip-rule="evenodd" d="M34.9504 16.4927C33.3015 14.0492 31.3246 12.3949 29.0195 11.5299C33.5411 5.84812 35.5181 7.50236 34.9504 16.4927Z" fill="#FF850B"/>
<path d="M29.4151 11.4336C31.4387 12.2618 33.225 13.7137 34.7363 15.7577C35.0121 10.218 34.1742 8.7438 33.4035 8.50071C32.8152 8.31532 31.649 8.68398 29.4151 11.4336ZM35.1612 17.248L34.7321 16.6121C33.1196 14.2226 31.1647 12.5842 28.9218 11.7426L28.625 11.6313L28.8119 11.3964C30.8802 8.79743 32.4374 7.70773 33.5738 8.06631C35.0234 8.52357 35.5427 11.2053 35.2081 16.506L35.1612 17.248Z" fill="#000072"/>
<path fill-rule="evenodd" clip-rule="evenodd" d="M28.6291 16.7896C29.0094 16.6497 29.3928 16.7004 29.4853 16.9028C29.5778 17.1052 29.3445 17.3827 28.9643 17.5226C28.584 17.6624 28.2007 17.6116 28.1081 17.4093C28.0156 17.2069 28.2489 16.9294 28.6291 16.7896Z" fill="white"/>
<path fill-rule="evenodd" clip-rule="evenodd" d="M22.0014 16.7764C21.6212 16.6365 21.2378 16.6873 21.1453 16.8897C21.0527 17.0921 21.286 17.3696 21.6662 17.5094C22.0464 17.6492 22.4298 17.5985 22.5223 17.3961C22.6149 17.1938 22.3816 16.9163 22.0014 16.7764Z" fill="white"/>
<path fill-rule="evenodd" clip-rule="evenodd" d="M20.693 19.2859C20.5065 19.2859 20.3555 19.4303 20.3555 19.6083C20.3555 19.7863 20.5065 19.9307 20.693 19.9307C20.8793 19.9307 21.0304 19.7863 21.0304 19.6083C21.0304 19.4303 20.8793 19.2859 20.693 19.2859Z" fill="white"/>
<path fill-rule="evenodd" clip-rule="evenodd" d="M15.6848 16.6094C17.3336 14.1658 19.3105 12.5116 21.6156 11.6466C17.094 5.96473 15.1171 7.61906 15.6848 16.6094Z" fill="#FF850B"/>
<path d="M17.507 8.57697C17.4038 8.57697 17.3128 8.59195 17.2325 8.6173C16.4618 8.8604 15.6239 10.3346 15.8997 15.8742C17.4108 13.8303 19.1971 12.3785 21.2208 11.5501C19.2919 9.17603 18.159 8.57697 17.507 8.57697ZM15.4748 17.3647L15.4279 16.6226C15.0932 11.3219 15.6125 8.64018 17.0621 8.18288C18.1978 7.82473 19.7555 8.91381 21.824 11.513L22.0109 11.7478L21.7141 11.8592C19.4711 12.7009 17.5162 14.3393 15.9039 16.7288L15.4748 17.3647Z" fill="#000072"/>
<g opacity="0.649994">
<g opacity="0.649994">
<path opacity="0.649994" fill-rule="evenodd" clip-rule="evenodd" d="M21.0444 11.8774C21.2309 11.7947 21.4199 11.7175 21.611 11.6457C18.8086 8.12423 16.9842 7.42207 16.1367 9.5364C17.0393 8.04963 18.675 8.82987 21.0441 11.8773L21.0444 11.8774Z" fill="white"/>
</g>
</g>
<path fill-rule="evenodd" clip-rule="evenodd" d="M16.9187 14.9526C17.7225 14.0611 18.6334 13.2895 19.6516 12.6378C17.3692 8.65199 16.4582 9.42357 16.9187 14.9526Z" fill="#000072"/>
<path d="M17.5073 10.3637C17.4961 10.3637 17.4884 10.3651 17.484 10.3662C17.4565 10.3731 17.2125 10.4633 17.1082 11.4784C17.0378 12.1624 17.0461 13.1336 17.1326 14.3706C17.7962 13.6973 18.5304 13.093 19.3232 12.568C18.1223 10.5094 17.6241 10.3637 17.5073 10.3637ZM16.7122 15.5493L16.664 14.9698C16.3135 10.7626 16.8114 10.0576 17.3448 9.92293C17.9826 9.76146 18.7414 10.5423 19.8812 12.5327L19.9826 12.7097L19.8019 12.8253C18.8078 13.4615 17.9053 14.226 17.1196 15.0975L16.7122 15.5493Z" fill="#000072"/>
<g opacity="0.300003">
<g opacity="0.300003">
<path opacity="0.300003" fill-rule="evenodd" clip-rule="evenodd" d="M17.2135 10.2666C16.3806 10.8252 15.8426 12.3365 15.5996 14.8003C15.6142 15.3661 15.6418 15.9691 15.6822 16.6094C15.8054 16.4096 15.9356 16.2121 16.0732 16.0178L16.0636 16.0662C16.7289 15.1562 17.4446 14.3672 18.2104 13.6992C17.7626 14.078 17.3406 14.4858 16.9444 14.9225C16.9367 14.931 16.9289 14.9395 16.9211 14.9483C16.9204 14.949 16.9198 14.9498 16.919 14.9508C16.9183 14.9515 16.9177 14.9522 16.917 14.9529C16.6938 12.274 16.7927 10.7119 17.2135 10.2666ZM33.4183 10.1502C34.2513 10.7088 34.7893 12.2201 35.0322 14.6839C35.0176 15.2497 34.99 15.8527 34.9497 16.4929C34.8264 16.2931 34.6962 16.0958 34.5586 15.9013L34.5682 15.9498C33.903 15.0397 33.1873 14.2507 32.4214 13.5829C32.8693 13.9617 33.2912 14.3694 33.6874 14.8061C33.6951 14.8146 33.7029 14.8232 33.7107 14.8318C33.7114 14.8326 33.7121 14.8334 33.7128 14.8343C33.7136 14.8351 33.7141 14.8358 33.7148 14.8366C33.9381 12.1576 33.8391 10.5954 33.4183 10.1502Z" fill="#000072"/>
</g>
</g>
<g opacity="0.649994">
<g opacity="0.649994">
<path opacity="0.649994" fill-rule="evenodd" clip-rule="evenodd" d="M29.5842 11.7617C29.3977 11.679 29.2087 11.6018 29.0176 11.5301C31.8199 8.00859 33.6444 7.30634 34.492 9.42067C33.5894 7.9339 31.9536 8.71422 29.5845 11.7616L29.5842 11.7617Z" fill="white"/>
</g>
</g>
<path fill-rule="evenodd" clip-rule="evenodd" d="M33.7192 14.8359C32.9154 13.9443 32.0045 13.1727 30.9863 12.521C33.2687 8.5352 34.1798 9.30686 33.7192 14.8359Z" fill="#000072"/>
<path d="M31.3117 12.4516C32.1046 12.9767 32.8389 13.5811 33.5023 14.2543C33.5888 13.0173 33.5971 12.0461 33.5267 11.3621C33.4223 10.3469 33.1785 10.2568 33.151 10.2499C33.1003 10.2372 32.6284 10.1947 31.3117 12.4516ZM33.9226 15.4331L33.5153 14.9812C32.7298 14.1098 31.8274 13.3453 30.833 12.7089L30.6523 12.5934L30.7537 12.4163C31.8934 10.4261 32.6516 9.64529 33.2902 9.80661C33.8235 9.9413 34.3215 10.6462 33.9709 14.8536L33.9226 15.4331Z" fill="#000072"/>
<path d="M17.5071 8.57699C17.4039 8.57699 17.3129 8.59198 17.2326 8.61732C16.4619 8.86043 15.6239 10.3347 15.8997 15.8743C17.4109 13.8303 19.1972 12.3784 21.2209 11.5501C19.2921 9.17605 18.1591 8.57699 17.5071 8.57699ZM15.4747 17.3647L15.4279 16.6226C15.0932 11.3219 15.6126 8.64016 17.0622 8.1829C18.1979 7.82475 19.7556 8.91383 21.8241 11.513L22.011 11.7478L21.7142 11.8592C19.4712 12.7009 17.5163 14.3393 15.9039 16.7288L15.4747 17.3647Z" fill="#000072"/>
<path d="M25.4561 11.1359C19.3978 11.1359 14.5194 16.626 14.5194 21.1717C14.5194 22.3537 15.1184 23.4653 16.2999 24.4755C18.9316 26.7258 23.7331 27.8242 25.3207 27.8243C25.3643 27.8243 25.4052 27.8235 25.4439 27.8219C26.5941 27.7727 29.2439 27.2418 31.5338 26.2157C33.5473 25.3135 35.9474 23.73 35.9474 21.3105C35.9474 16.6053 31.3646 11.1359 25.4561 11.1359ZM25.3272 28.2847C23.6242 28.2847 18.7161 27.1777 15.9456 24.8088C14.6585 23.7082 14.0059 22.4845 14.0059 21.1717C14.0059 18.8017 15.2721 16.1606 17.3929 14.1067C19.6446 11.926 22.5835 10.6754 25.4561 10.6754C28.3466 10.6754 31.1332 11.9209 33.3028 14.1824C35.2803 16.2437 36.461 18.9084 36.461 21.3105C36.461 23.4119 34.8365 25.2505 31.7633 26.6276C29.4067 27.6837 26.6635 28.2307 25.4683 28.2818C25.4242 28.2837 25.377 28.2847 25.3272 28.2847Z" fill="#000072"/>
<g opacity="0.559998">
<g opacity="0.559998">
<path opacity="0.559998" fill-rule="evenodd" clip-rule="evenodd" d="M25.7226 20.2192C25.9471 20.2723 26.1131 20.3691 26.0936 20.4354C26.0742 20.5017 25.8765 20.5125 25.652 20.4594C25.4275 20.4064 25.2613 20.3096 25.2809 20.2432C25.3004 20.177 25.4982 20.1661 25.7226 20.2192Z" fill="white"/>
</g>
</g>
<path d="M19.7754 17.7092C20.1901 18.2031 20.5977 18.5851 20.9983 18.855C21.5877 19.252 22.2255 19.3216 22.2962 18.8842C21.9792 18.8517 21.6488 18.7195 21.3052 18.4881C20.4584 17.9173 20.1936 17.5499 19.7754 17.7092Z" fill="#000072"/>
<path d="M29.4151 11.4336C31.4387 12.2618 33.225 13.7137 34.7363 15.7577C35.0121 10.218 34.1742 8.7438 33.4035 8.50071C32.8152 8.31532 31.649 8.68398 29.4151 11.4336ZM35.1612 17.248L34.7321 16.6121C33.1196 14.2226 31.1647 12.5842 28.9218 11.7426L28.625 11.6313L28.8119 11.3964C30.8802 8.79743 32.4374 7.70773 33.5738 8.06631C35.0234 8.52357 35.5427 11.2053 35.2081 16.506L35.1612 17.248Z" fill="#000072"/>
</svg>
