<svg width="25" height="25" viewBox="0 0 25 25" fill="none" xmlns="http://www.w3.org/2000/svg">
<rect width="25" height="25" rx="5" fill="#E22F2F"/>
<g opacity="0.300003">
<g opacity="0.300003">
<path opacity="0.300003" d="M21.5 20.808C21.5 21.1125 17.5825 21.3594 12.75 21.3594C7.91751 21.3594 4 21.1125 4 20.808C4 20.5034 7.91751 20.2566 12.75 20.2566C17.5825 20.2566 21.5 20.5034 21.5 20.808Z" fill="#000072"/>
</g>
</g>
<path d="M20.115 20.1184C19.7677 20.5139 19.2583 20.7363 18.7263 20.7363H6.77288C6.24094 20.7363 5.73151 20.5139 5.38427 20.1184C5.19242 19.8998 5.0506 19.6563 4.95521 19.4071C4.95486 19.4071 4.95486 19.4071 4.95486 19.4068C4.65477 18.625 4.80767 17.786 5.28638 17.4842C6.09019 16.9769 6.71001 17.5969 6.71001 17.5969C6.7786 17.4386 6.87148 17.3014 6.97544 17.1839C7.36698 16.7396 7.91571 16.5705 7.91571 16.5705C7.61741 14.8901 8.28332 13.3676 8.28332 13.3676C8.28332 13.3676 9.92415 14.5855 12.7496 14.5855C15.5751 14.5855 17.2159 13.3676 17.2159 13.3676C17.2159 13.3676 17.8818 14.8901 17.5835 16.5705C17.5835 16.5705 18.462 16.8414 18.7892 17.5969C18.7892 17.5969 19.409 16.9769 20.2128 17.4842C20.8441 17.8825 20.9088 19.2149 20.115 20.1184Z" fill="#B11313"/>
<g opacity="0.300003">
<g opacity="0.300003">
<path opacity="0.300003" d="M7.18848 19.1445C7.29923 18.0915 6.71191 17.6371 6.71191 17.6371C6.78051 17.4788 6.87339 17.3416 6.97735 17.2241C7.88833 18.2943 7.18848 19.1445 7.18848 19.1445Z" fill="#000072"/>
</g>
</g>
<g opacity="0.300003">
<g opacity="0.300003">
<path opacity="0.300003" d="M18.3173 19.1445C18.2066 18.0915 18.7939 17.6371 18.7939 17.6371C18.7253 17.4788 18.6324 17.3416 18.5285 17.2241C17.6175 18.2943 18.3173 19.1445 18.3173 19.1445Z" fill="#000072"/>
</g>
</g>
<g opacity="0.300003">
<g opacity="0.300003">
<path opacity="0.300003" d="M18.4106 20.0313C18.3255 20.0104 18.2378 20.0033 18.1506 20.0127C18.0264 20.0261 17.8126 20.0469 17.4991 20.0699C17.0273 20.1047 16.6152 19.7564 16.583 19.2927C16.5691 19.0935 16.5995 18.9389 16.6105 18.891C16.4872 19.4084 16.2597 19.885 16.121 20.1464C15.4167 20.1753 14.5247 20.1987 13.4217 20.2056C13.3622 18.1122 14.6003 16.1493 14.6003 16.1493C12.7033 17.6399 10.9054 16.1493 10.9054 16.1493C12.1572 18.3316 12.092 20.1147 12.092 20.1147L12.3029 20.2068C11.0983 20.2018 10.135 20.1772 9.38474 20.1465C9.24601 19.8851 9.01848 19.4084 8.89526 18.891C8.9067 18.9408 8.93906 19.1061 8.92087 19.3169C8.88172 19.7707 8.46927 20.104 8.00695 20.07C7.69325 20.0469 7.47942 20.0261 7.35514 20.0127C7.26794 20.0033 7.1802 20.0104 7.09508 20.0313C5.73498 20.3639 4.9813 19.4794 4.95703 19.4501C5.05242 19.6992 5.19424 19.9428 5.38608 20.1614C5.73333 20.5568 6.24276 20.7793 6.7747 20.7793H12.7529H18.731C19.263 20.7793 19.7724 20.5568 20.1196 20.1614C20.3115 19.9428 20.4533 19.6992 20.5487 19.4501C20.5244 19.4794 19.7707 20.3639 18.4106 20.0313Z" fill="#000072"/>
</g>
</g>
<g opacity="0.300003">
<g opacity="0.300003">
<path opacity="0.300003" d="M8.89248 18.8896C8.89016 18.8794 8.88867 18.8737 8.88867 18.8737C8.88989 18.8791 8.89124 18.8843 8.89248 18.8896Z" fill="#000072"/>
</g>
</g>
<g opacity="0.300003">
<g opacity="0.300003">
<path opacity="0.300003" d="M16.6104 18.8896C16.6116 18.8843 16.6129 18.8791 16.6142 18.8738C16.6142 18.8738 16.6127 18.8794 16.6104 18.8896Z" fill="#000072"/>
</g>
</g>
<path d="M12.7481 20.6561H18.7263C19.2278 20.6561 19.6998 20.4463 20.0212 20.0804C20.4365 19.6078 20.6413 18.9532 20.5557 18.3722C20.5055 18.0321 20.3562 17.7608 20.146 17.628C19.4351 17.1792 18.8998 17.7013 18.8774 17.7237C18.8485 17.7527 18.8067 17.7657 18.766 17.7581C18.7254 17.7505 18.6913 17.7235 18.6751 17.6862C18.3737 16.9902 17.5545 16.7308 17.5463 16.7282C17.487 16.71 17.4507 16.6514 17.4613 16.5913C17.6986 15.2558 17.3067 14.0064 17.1567 13.597C16.7074 13.8855 15.1615 14.7488 12.7495 14.7488C10.3376 14.7488 8.79166 13.8855 8.34243 13.597C8.19238 14.0064 7.80051 15.2558 8.03774 16.5913C8.04842 16.6514 8.0121 16.71 7.95281 16.7282C7.94472 16.7308 7.12422 16.9929 6.824 17.6862C6.80781 17.7235 6.77369 17.7505 6.73306 17.7581C6.69245 17.7657 6.65063 17.7527 6.62167 17.7237C6.5993 17.7017 6.05948 17.182 5.35313 17.628C5.1429 17.7608 4.99356 18.0321 4.94344 18.3722C4.85783 18.9532 5.0626 19.6078 5.47786 20.0804C5.79932 20.4463 6.27129 20.6561 6.77278 20.6561H12.7481ZM18.7263 20.8994H6.77278C6.19922 20.8994 5.65888 20.6588 5.29035 20.2394C4.82958 19.7149 4.60272 18.9861 4.69831 18.3374C4.75959 17.9214 4.94458 17.5968 5.2192 17.4234C5.87276 17.0108 6.4242 17.2803 6.66653 17.4481C6.9739 16.8953 7.54421 16.6242 7.77696 16.5326C7.51776 14.8772 8.14218 13.4232 8.16942 13.361C8.18444 13.3266 8.21471 13.301 8.2515 13.2914C8.28834 13.2818 8.32753 13.2894 8.35789 13.3119C8.37393 13.3238 10.0033 14.5055 12.7495 14.5055C15.4957 14.5055 17.1252 13.3238 17.1413 13.3119C17.1717 13.2894 17.211 13.2819 17.2477 13.2914C17.2844 13.301 17.3147 13.3266 17.3297 13.361C17.3569 13.4232 17.9813 14.8772 17.7221 16.5326C17.9549 16.6242 18.5252 16.8953 18.8326 17.4481C19.0748 17.2803 19.6263 17.0107 20.2799 17.4234C20.5545 17.5968 20.7395 17.9214 20.8008 18.3374C20.8964 18.9861 20.6695 19.7149 20.2087 20.2394C19.8402 20.6588 19.2999 20.8994 18.7263 20.8994Z" fill="#000072"/>
<path d="M6.77996 17.5396C6.79354 17.5487 6.79988 17.5537 6.80924 17.5605C6.81812 17.567 6.82528 17.5732 6.83338 17.5795C6.84947 17.5923 6.86307 17.6058 6.87764 17.619C6.89256 17.6321 6.90485 17.6465 6.91825 17.6604C6.93174 17.6742 6.9444 17.6885 6.95627 17.7032C7.00561 17.7614 7.04711 17.824 7.0841 17.8886C7.15825 18.0179 7.20752 18.1573 7.24176 18.2977C7.27515 18.4387 7.28748 18.5818 7.2875 18.7231C7.28776 18.7937 7.27974 18.8642 7.27484 18.9337C7.26417 19.0033 7.25251 19.0722 7.23769 19.1402C7.23486 19.1532 7.22186 19.1614 7.20866 19.1586C7.19863 19.1565 7.19137 19.1487 7.18969 19.1393L7.1894 19.1376C7.17727 19.0693 7.16971 19.002 7.16059 18.9353L7.14284 18.8361C7.13635 18.8032 7.13392 18.7701 7.12504 18.7379C7.10839 18.6734 7.09948 18.6082 7.07849 18.546C7.06934 18.5146 7.06217 18.4828 7.05221 18.452L7.02027 18.3605C6.97621 18.2396 6.92239 18.1241 6.85754 18.0173C6.84066 17.9911 6.82485 17.9641 6.80651 17.9393L6.77998 17.9012L6.75154 17.8651C6.73351 17.8401 6.71259 17.8182 6.69301 17.7957C6.68291 17.7851 6.67289 17.7735 6.66271 17.764C6.65781 17.7591 6.65258 17.7533 6.64797 17.7491C6.64384 17.7451 6.63709 17.7389 6.63663 17.738L6.6099 17.6853C6.5812 17.6287 6.60466 17.5599 6.66231 17.5317C6.70137 17.5126 6.74624 17.5172 6.77996 17.5396Z" fill="#000072"/>
<path d="M18.8569 17.738C18.8565 17.7389 18.8497 17.7451 18.8456 17.7491C18.841 17.7533 18.8357 17.7591 18.8308 17.764C18.8207 17.7735 18.8106 17.7851 18.8005 17.7957C18.781 17.8182 18.7601 17.8402 18.742 17.8651L18.7136 17.9012L18.6871 17.9393C18.6687 17.9641 18.6529 17.9912 18.636 18.0173C18.5712 18.1241 18.5173 18.2397 18.4733 18.3605L18.4414 18.452C18.4314 18.4828 18.4242 18.5146 18.4151 18.546C18.3941 18.6082 18.3852 18.6734 18.3685 18.7379C18.3596 18.7701 18.3572 18.8032 18.3507 18.8361L18.333 18.9353C18.3239 19.002 18.3163 19.0693 18.3042 19.1376L18.3039 19.1393C18.3015 19.1524 18.2889 19.1611 18.2756 19.1588C18.2655 19.1571 18.2579 19.1495 18.2559 19.1402C18.2411 19.0722 18.2294 19.0033 18.2187 18.9338C18.2138 18.8642 18.2058 18.7938 18.2061 18.7231C18.2061 18.5818 18.2184 18.4387 18.2518 18.2977C18.2861 18.1573 18.3353 18.0179 18.4095 17.8886C18.4465 17.824 18.4879 17.7614 18.5373 17.7032C18.5492 17.6885 18.5618 17.6742 18.5753 17.6604C18.5887 17.6465 18.601 17.6321 18.6159 17.619C18.6305 17.6058 18.6441 17.5923 18.6602 17.5796C18.6683 17.5732 18.6755 17.567 18.6843 17.5605C18.6937 17.5537 18.7 17.5487 18.7136 17.5396C18.7668 17.504 18.8394 17.5175 18.8756 17.5698C18.9002 17.6052 18.9018 17.6493 18.8837 17.6852L18.8569 17.738Z" fill="#000072"/>
<path d="M8.03948 16.5978L8.04957 16.695L8.06218 16.8037C8.06662 16.8408 8.07253 16.8779 8.07578 16.917C8.07942 16.9558 8.08157 16.9962 8.07956 17.0397L8.07956 17.0399C8.07924 17.0468 8.07334 17.0521 8.06636 17.0517C8.06386 17.0516 8.06157 17.0508 8.05967 17.0495C8.02328 17.0243 7.99197 16.9955 7.96487 16.964C7.93712 16.9327 7.91442 16.8987 7.89227 16.8637C7.87062 16.8285 7.85091 16.792 7.83375 16.7537C7.82568 16.7343 7.81731 16.7149 7.81082 16.6944C7.80731 16.6843 7.80414 16.6738 7.80131 16.6631C7.79825 16.6516 7.7962 16.6431 7.79355 16.6267C7.7828 16.5603 7.82889 16.4979 7.89648 16.4874C7.96407 16.4768 8.02758 16.5221 8.03831 16.5885C8.03866 16.5906 8.03894 16.5927 8.03917 16.5948L8.03948 16.5978Z" fill="#000072"/>
<path d="M17.7087 16.6267C17.706 16.6431 17.704 16.6516 17.7009 16.6631C17.6981 16.6738 17.6949 16.6843 17.6914 16.6944C17.6849 16.7149 17.6765 16.7343 17.6685 16.7537C17.6513 16.792 17.6316 16.8285 17.6099 16.8637C17.5878 16.8987 17.5651 16.9328 17.5373 16.964C17.5102 16.9955 17.4789 17.0243 17.4425 17.0495C17.4368 17.0534 17.429 17.0521 17.425 17.0465C17.4235 17.0445 17.4228 17.0422 17.4227 17.0399L17.4226 17.0397C17.4206 16.9962 17.4228 16.9559 17.4264 16.917C17.4297 16.8779 17.4356 16.8408 17.44 16.8037L17.4526 16.695L17.4627 16.5978L17.463 16.5952C17.4699 16.5284 17.5308 16.4797 17.5988 16.4865C17.6669 16.4933 17.7165 16.5531 17.7096 16.6199C17.7093 16.6221 17.709 16.6246 17.7087 16.6267Z" fill="#000072"/>
<path d="M8.63874 17.8035C8.63874 17.8035 8.0718 17.3717 7.91487 16.6123C7.91487 16.6123 7.5887 16.4503 7.36328 16.8885C7.36328 16.8885 7.62332 18.2259 8.88868 18.874C8.88868 18.874 8.70583 18.1855 8.63874 17.8035Z" fill="#0096F2"/>
<path d="M7.49413 16.9053C7.5452 17.1095 7.8202 18.0421 8.69545 18.6195C8.64007 18.3988 8.56667 18.0938 8.52458 17.868C8.39328 17.7563 7.96596 17.352 7.80897 16.7055C7.73768 16.6935 7.60933 16.7075 7.49413 16.9053ZM8.88849 18.9951C8.86893 18.9951 8.84929 18.9906 8.83124 18.9813C7.52775 18.3137 7.25254 16.9677 7.24146 16.9107C7.23633 16.8843 7.24023 16.857 7.25259 16.833C7.39339 16.5594 7.57751 16.4818 7.70717 16.4649C7.85064 16.4461 7.95871 16.4973 7.97055 16.5031C8.00439 16.5199 8.02853 16.551 8.03607 16.5875C8.18139 17.2908 8.70934 17.7029 8.71465 17.707C8.73887 17.7256 8.75539 17.7525 8.76061 17.7823C8.82604 18.1548 9.00653 18.8359 9.00834 18.8428C9.02069 18.8893 9.00396 18.9386 8.96566 18.9686C8.94328 18.9861 8.91597 18.9951 8.88849 18.9951Z" fill="#000072"/>
<path d="M16.8632 17.8035C16.8632 17.8035 17.4302 17.3717 17.5871 16.6123C17.5871 16.6123 17.9133 16.4503 18.1387 16.8885C18.1387 16.8885 17.8786 18.2259 16.6133 18.874C16.6133 18.874 16.7961 18.1855 16.8632 17.8035Z" fill="#0096F2"/>
<path d="M16.9761 17.868C16.934 18.0939 16.8606 18.3988 16.8052 18.6196C17.6804 18.0422 17.9554 17.1097 18.0065 16.9053C17.9367 16.7852 17.8542 16.7182 17.7609 16.7061C17.7347 16.7027 17.7108 16.7041 17.6913 16.7071C17.534 17.3527 17.1073 17.7564 16.9761 17.868ZM16.6121 18.9951C16.5847 18.9951 16.5574 18.9861 16.535 18.9686C16.4967 18.9386 16.4799 18.8893 16.4923 18.8428C16.4941 18.8359 16.6746 18.1548 16.74 17.7823C16.7453 17.7524 16.7617 17.7256 16.786 17.707C16.7913 17.7029 17.3192 17.2908 17.4646 16.5875C17.4721 16.551 17.4962 16.5199 17.5301 16.5032C17.5419 16.4973 17.65 16.4461 17.7935 16.4649C17.9231 16.4818 18.1072 16.5594 18.248 16.833C18.2604 16.857 18.2643 16.8843 18.2592 16.9107C18.2481 16.9677 17.9729 18.3136 16.6694 18.9813C16.6513 18.9906 16.6317 18.9951 16.6121 18.9951Z" fill="#000072"/>
<path d="M10.3477 14.6962C10.3477 14.6962 10.5605 15.2888 10.4993 16.1535L11.2006 16.7529C11.2006 16.7529 11.3839 15.7082 11.0717 14.8406L10.3477 14.6962Z" fill="#0096F2"/>
<path d="M10.6246 16.1007L11.1041 16.5105C11.1366 16.1771 11.1643 15.5236 10.975 14.9453L10.5195 14.8544C10.5784 15.095 10.6569 15.5376 10.6246 16.1007ZM11.1985 16.874C11.169 16.874 11.14 16.8637 11.1172 16.8441L10.4158 16.2447C10.3865 16.2197 10.3709 16.1826 10.3736 16.1446C10.4321 15.3182 10.2307 14.7417 10.2286 14.7359C10.2139 14.6946 10.2229 14.6487 10.2522 14.6157C10.2815 14.5828 10.3266 14.5679 10.3701 14.5764L11.0942 14.7208C11.1369 14.7293 11.1718 14.7592 11.1863 14.7995C11.5056 15.6869 11.3282 16.7291 11.3205 16.773C11.3129 16.8163 11.2821 16.8522 11.24 16.867C11.2265 16.8717 11.2124 16.874 11.1985 16.874Z" fill="#000072"/>
<path d="M15.1535 14.6962C15.1535 14.6962 14.9406 15.2888 15.0019 16.1535L14.3005 16.7529C14.3005 16.7529 14.1172 15.7082 14.4294 14.8406L15.1535 14.6962Z" fill="#0096F2"/>
<path d="M14.5246 14.9453C14.3349 15.5246 14.3627 16.1776 14.3953 16.5106L14.875 16.1007C14.8427 15.5376 14.9212 15.095 14.9801 14.8544L14.5246 14.9453ZM14.3011 16.874C14.2872 16.874 14.2732 16.8717 14.2596 16.867C14.2175 16.8522 14.1867 16.8163 14.1791 16.773C14.1714 16.7291 13.994 15.6869 14.3133 14.7995C14.3278 14.7592 14.3627 14.7293 14.4054 14.7208L15.1295 14.5764C15.1732 14.5675 15.2183 14.5827 15.2475 14.6158C15.2768 14.6488 15.2857 14.6947 15.2709 14.736C15.2677 14.7451 15.0677 15.3207 15.126 16.1445C15.1287 16.1826 15.1131 16.2197 15.0838 16.2447L14.3824 16.8441C14.3595 16.8637 14.3306 16.874 14.3011 16.874Z" fill="#000072"/>
<path d="M12.0505 20.3976C11.8741 21.2489 10.868 21.6384 10.1611 21.1166C9.60768 20.7085 9 19.7751 8.62454 17.7284C8.58881 17.5322 8.55488 17.3256 8.52344 17.1083L8.76244 16.8859L10.3468 15.41C10.3468 15.41 11.9076 17.7835 12.0805 19.6029V19.6032C12.1077 19.885 12.1013 20.1534 12.0505 20.3976Z" fill="#B11313"/>
<g opacity="0.300003">
<g opacity="0.300003">
<path opacity="0.300003" d="M12.0501 20.3976C11.8736 21.2489 10.8676 21.6384 10.1606 21.1166C9.60724 20.7085 8.99956 19.7751 8.62409 17.7284C8.09573 17.4157 7.91425 16.6118 7.91425 16.6118C7.68632 15.5444 7.94926 14.5605 7.94926 14.5605C7.89922 15.8598 8.42424 16.4795 8.64079 16.6785C8.70113 16.7339 8.7433 16.8054 8.76168 16.8845C8.76178 16.885 8.76188 16.8854 8.76199 16.8859C9.14889 18.5674 9.79693 20.6159 10.7372 20.7626C11.645 20.904 12.0362 19.7425 12.0801 19.6032C12.1072 19.885 12.1008 20.1534 12.0501 20.3976Z" fill="#000072"/>
</g>
</g>
<path d="M10.4832 15.2967C10.6636 15.4897 10.8063 15.705 10.9356 15.9274C10.9998 16.0388 11.0583 16.1532 11.1165 16.2677C11.1747 16.3823 11.2317 16.4974 11.2872 16.6133C11.5095 17.0765 11.712 17.5502 11.8802 18.0384C12.0485 18.5259 12.184 19.0297 12.2335 19.5541C12.2572 19.8159 12.2587 20.0838 12.2134 20.352C12.2036 20.4179 12.1893 20.4885 12.1672 20.5566C12.1472 20.6251 12.1188 20.6912 12.0881 20.7561C12.024 20.8846 11.9386 21.0031 11.8367 21.1057C11.6308 21.3087 11.3588 21.4456 11.0699 21.4859C10.9259 21.508 10.778 21.5032 10.6344 21.4782C10.491 21.4514 10.3524 21.4008 10.2258 21.3312C10.1639 21.2952 10.1015 21.2556 10.0477 21.212L9.96693 21.147C9.93967 21.1256 9.91626 21.1008 9.8908 21.0778C9.86621 21.0541 9.84003 21.0316 9.81686 21.0068L9.74779 20.9321C9.70012 20.8834 9.66059 20.8292 9.6178 20.7773C9.45247 20.5655 9.32061 20.3352 9.20484 20.1004C9.0872 19.8658 8.99726 19.6219 8.91014 19.378C8.8293 19.1323 8.75566 18.8849 8.69509 18.6349C8.66515 18.5099 8.633 18.3854 8.60857 18.2595C8.58341 18.1337 8.55326 18.0087 8.53497 17.8819C8.49446 17.6289 8.47545 17.3723 8.49773 17.1122C8.49899 17.0974 8.51215 17.0865 8.52713 17.0878C8.53757 17.0886 8.54613 17.0952 8.54993 17.104L8.55026 17.1048C8.60175 17.2257 8.6407 17.3477 8.67429 17.4704C8.70737 17.5931 8.74165 17.7151 8.76763 17.8385C8.79247 17.9623 8.82158 18.0848 8.84899 18.2078C8.87502 18.3311 8.90856 18.4523 8.93985 18.5741C9.00313 18.8176 9.07886 19.057 9.16095 19.2935C9.24898 19.5273 9.33943 19.7608 9.45445 19.9805C9.56711 20.2011 9.69561 20.4127 9.84661 20.6034C9.88561 20.6497 9.92179 20.699 9.96445 20.7415L10.0262 20.8074C10.0469 20.8293 10.0699 20.8483 10.0916 20.869C10.1139 20.8887 10.1346 20.9108 10.1582 20.9287L10.2279 20.9839C10.2741 21.0209 10.3213 21.0496 10.3706 21.0782C10.4702 21.1316 10.5774 21.1698 10.6883 21.1897C10.7993 21.2077 10.9135 21.2112 11.025 21.1928C11.2489 21.1603 11.4595 21.051 11.6177 20.8936C11.6965 20.8145 11.7627 20.7233 11.8127 20.6239C11.8364 20.5736 11.8589 20.5225 11.8745 20.4688C11.892 20.4158 11.9031 20.3616 11.9122 20.3018C11.9523 20.0685 11.9527 19.8242 11.9311 19.5805C11.9091 19.3365 11.865 19.0923 11.8079 18.8501C11.7511 18.6078 11.6802 18.3675 11.6013 18.1295C11.443 17.6531 11.2496 17.1861 11.0358 16.7281C10.9824 16.6135 10.9276 16.4996 10.8715 16.3862C10.8158 16.2726 10.7571 16.1605 10.7027 16.0462C10.5928 15.8181 10.4894 15.5862 10.4077 15.3411L10.4074 15.3403C10.3997 15.3171 10.4126 15.2922 10.4362 15.2846C10.4534 15.2791 10.4717 15.2844 10.4832 15.2967Z" fill="#000072"/>
<path d="M8.97154 19.2676C8.93818 19.2676 8.90492 19.2545 8.88052 19.2285C8.83415 19.1791 8.83722 19.1023 8.88741 19.0567C8.93335 19.015 10.0319 18.0334 11.7137 17.9099C11.7817 17.9045 11.8413 17.9552 11.8465 18.0221C11.8516 18.0891 11.8004 18.1475 11.7322 18.1525C10.1396 18.2695 9.06615 19.2257 9.05549 19.2354C9.03168 19.2569 9.00156 19.2676 8.97154 19.2676Z" fill="#000072"/>
<path d="M13.4501 20.3976C13.6266 21.2489 14.6326 21.6384 15.3396 21.1166C15.893 20.7085 16.5007 19.7751 16.8761 17.7284C16.9118 17.5322 16.9458 17.3256 16.9772 17.1083L16.7382 16.8859L15.1538 15.41C15.1538 15.41 13.593 17.7835 13.4201 19.6029V19.6032C13.393 19.885 13.3994 20.1534 13.4501 20.3976Z" fill="#B11313"/>
<g opacity="0.300003">
<g opacity="0.300003">
<path opacity="0.300003" d="M13.4462 20.3976C13.6227 21.2489 14.6287 21.6384 15.3357 21.1166C15.8891 20.7085 16.4967 19.7751 16.8722 17.7284C17.4006 17.4157 17.5821 16.6118 17.5821 16.6118C17.81 15.5444 17.5471 14.5605 17.5471 14.5605C17.5971 15.8598 17.0721 16.4795 16.8555 16.6785C16.7952 16.7339 16.753 16.8054 16.7346 16.8845C16.7345 16.885 16.7344 16.8854 16.7343 16.8859C16.3474 18.5674 15.6994 20.6159 14.7591 20.7626C13.8513 20.904 13.4601 19.7425 13.4162 19.6032C13.3891 19.885 13.3955 20.1534 13.4462 20.3976Z" fill="#000072"/>
</g>
</g>
<path d="M15.0931 15.3411C15.0114 15.5862 14.908 15.8181 14.7981 16.0462C14.7437 16.1605 14.685 16.2726 14.6293 16.3862C14.5732 16.4996 14.5184 16.6135 14.465 16.7281C14.2512 17.1861 14.0578 17.6531 13.8995 18.1295C13.8206 18.3675 13.7496 18.6078 13.6929 18.8501C13.6358 19.0923 13.5917 19.3365 13.5697 19.5805C13.5481 19.8242 13.5485 20.0685 13.5886 20.3018C13.5976 20.3616 13.6088 20.4158 13.6263 20.4688C13.6418 20.5225 13.6644 20.5736 13.6881 20.6239C13.7381 20.7233 13.8043 20.8145 13.8831 20.8936C14.0413 21.051 14.2519 21.1603 14.4758 21.1928C14.5873 21.2112 14.7015 21.2077 14.8125 21.1897C14.9233 21.1698 15.0306 21.1316 15.1301 21.0781C15.1795 21.0496 15.2267 21.0209 15.2729 20.9839L15.3426 20.9287C15.3662 20.9108 15.3869 20.8887 15.4092 20.869C15.4309 20.8483 15.4539 20.8293 15.4745 20.8074L15.5363 20.7415C15.579 20.699 15.6152 20.6497 15.6542 20.6034C15.8052 20.4127 15.9337 20.2011 16.0463 19.9805C16.1614 19.7608 16.2518 19.5273 16.3398 19.2935C16.4219 19.057 16.4977 18.8176 16.5609 18.5741C16.5922 18.4523 16.6258 18.3311 16.6518 18.2078C16.6792 18.0848 16.7083 17.9623 16.7332 17.8385C16.7591 17.7151 16.7934 17.5931 16.8265 17.4704C16.8601 17.3477 16.899 17.2257 16.9505 17.1048L16.9508 17.1041C16.9566 17.0905 16.9726 17.084 16.9864 17.0897C16.9961 17.0937 17.0022 17.1026 17.0031 17.1122C17.0253 17.3723 17.0063 17.6288 16.9658 17.8819C16.9475 18.0087 16.9174 18.1337 16.8922 18.2594C16.8678 18.3854 16.8356 18.5099 16.8057 18.6349C16.7451 18.8849 16.6715 19.1323 16.5907 19.378C16.5035 19.6219 16.4136 19.8658 16.2959 20.1004C16.1802 20.3352 16.0483 20.5655 15.883 20.7773C15.8402 20.8292 15.8007 20.8834 15.753 20.9321L15.6839 21.0068C15.6608 21.0316 15.6346 21.0541 15.61 21.0778C15.5845 21.1008 15.5611 21.1256 15.5339 21.147L15.4531 21.212C15.3993 21.2556 15.3369 21.2952 15.275 21.3312C15.1483 21.4008 15.0098 21.4514 14.8664 21.4782C14.7228 21.5032 14.5749 21.508 14.4309 21.4859C14.142 21.4456 13.87 21.3087 13.6641 21.1057C13.5622 21.0031 13.4768 20.8846 13.4127 20.7561C13.382 20.6912 13.3536 20.6251 13.3336 20.5566C13.3115 20.4886 13.2972 20.4179 13.2874 20.352C13.2421 20.0838 13.2436 19.8159 13.2673 19.5541C13.3167 19.0296 13.4523 18.5259 13.6206 18.0384C13.7888 17.5502 13.9912 17.0765 14.2136 16.6133C14.2691 16.4974 14.3261 16.3822 14.3843 16.2677C14.4424 16.1532 14.501 16.0388 14.5652 15.9274C14.6945 15.705 14.8372 15.4897 15.0176 15.2967C15.0343 15.2788 15.0628 15.2776 15.081 15.2941C15.0944 15.3061 15.0986 15.3243 15.0934 15.3403L15.0931 15.3411Z" fill="#000072"/>
<path d="M16.5296 19.2676C16.4995 19.2676 16.4694 19.2569 16.4456 19.2353C16.4349 19.2257 15.3615 18.2694 13.7689 18.1525C13.7007 18.1475 13.6496 18.0891 13.6546 18.0221C13.6597 17.9551 13.7193 17.9045 13.7874 17.9098C15.4692 18.0333 16.5678 19.0149 16.6137 19.0566C16.6639 19.1022 16.667 19.1792 16.6206 19.2285C16.5961 19.2545 16.5629 19.2676 16.5296 19.2676Z" fill="#000072"/>
<path d="M12.7521 14.2351C15.991 14.2351 17.277 12.8453 17.277 12.8453C17.277 12.8453 17.331 12.965 17.3573 13.1351C17.4008 13.4167 17.279 13.6992 17.0472 13.8703C16.5375 14.2463 15.2398 14.9629 12.7504 14.9629C10.2609 14.9629 8.96322 14.2463 8.45358 13.8703C8.22174 13.6992 8.09999 13.4167 8.14348 13.1351C8.16975 12.965 8.22371 12.8453 8.22371 12.8453C8.22371 12.8453 9.50976 14.2351 12.7487 14.2351" fill="#751313"/>
<g opacity="0.300003">
<g opacity="0.300003">
<path opacity="0.300003" d="M17.3464 13.0699C17.3047 13.2465 17.2004 13.407 17.0481 13.5194C16.5385 13.8954 15.2408 14.612 12.7513 14.612C10.2619 14.612 8.96419 13.8954 8.45456 13.5194C8.30231 13.407 8.19797 13.2465 8.15629 13.0699C8.15199 13.0906 8.14797 13.1124 8.14446 13.1351C8.10096 13.4167 8.22271 13.6992 8.45456 13.8703C8.96419 14.2463 10.2619 14.9629 12.7513 14.9629C15.2408 14.9629 16.5385 14.2463 17.0481 13.8703C17.28 13.6992 17.4017 13.4167 17.3582 13.1351C17.3547 13.1124 17.3507 13.0906 17.3464 13.0699Z" fill="#000072"/>
</g>
</g>
<path d="M12.7503 15.085C10.2642 15.085 8.94448 14.3851 8.37911 13.9679C8.10804 13.7679 7.97079 13.4419 8.02094 13.1173C8.04936 12.9332 8.10788 12.802 8.11036 12.7965C8.12733 12.7589 8.16248 12.7322 8.20382 12.7257C8.24509 12.719 8.28706 12.7335 8.31525 12.7639C8.32767 12.7772 9.61154 14.1139 12.7486 14.1139V14.3572C10.0693 14.3572 8.71014 13.4288 8.28252 13.0673C8.27635 13.094 8.27058 13.123 8.26581 13.1537C8.22937 13.3898 8.32978 13.6272 8.52789 13.7734C9.06855 14.1724 10.3361 14.8417 12.7503 14.8417C15.1645 14.8417 16.432 14.1724 16.9727 13.7734C17.1708 13.6272 17.2712 13.3898 17.2347 13.1537C17.23 13.123 17.2242 13.094 17.218 13.0673C16.7904 13.4288 15.4313 14.3572 12.7519 14.3572V14.1139C15.8997 14.1139 17.1728 12.7774 17.1853 12.7639C17.2135 12.7335 17.2554 12.7191 17.2967 12.7257C17.3381 12.7322 17.3732 12.7589 17.3902 12.7965C17.3927 12.802 17.4512 12.9332 17.4796 13.1173C17.5297 13.4419 17.3925 13.7679 17.1215 13.9679C16.5561 14.3851 15.2364 15.085 12.7503 15.085Z" fill="#000072"/>
<path d="M8.22852 13.8736L10.2256 18.3389" stroke="#000072" stroke-width="0.2" stroke-miterlimit="10"/>
<path d="M15.1924 18.3389L17.2318 13.8736" stroke="#000072" stroke-width="0.2" stroke-miterlimit="10"/>
<path fill-rule="evenodd" clip-rule="evenodd" d="M12.6039 15.697C12.603 15.7077 12.5964 15.7174 12.592 15.728C12.5877 15.7382 12.5838 15.7492 12.5801 15.7599C12.5704 15.788 12.5614 15.8156 12.5622 15.8519C12.5951 15.8561 12.6367 15.853 12.6664 15.8489C12.6826 15.8559 12.693 15.8669 12.708 15.8748C12.7052 15.8613 12.7187 15.8587 12.7304 15.8549C12.7252 15.8607 12.7172 15.8647 12.7199 15.8758C12.7267 15.8789 12.7278 15.8708 12.7333 15.8698C12.741 15.8757 12.7507 15.8754 12.7586 15.8698C12.7643 15.8707 12.7628 15.8764 12.769 15.8768C12.7779 15.8691 12.7653 15.8607 12.7616 15.8549C12.7726 15.8588 12.7852 15.8617 12.7839 15.8738C12.7959 15.8689 12.8106 15.8571 12.8226 15.8489C12.8536 15.8532 12.8932 15.8553 12.9297 15.8529C12.9285 15.7921 12.9065 15.7452 12.8851 15.698C12.891 15.6975 12.891 15.7027 12.8925 15.705C12.9147 15.7371 12.9344 15.7739 12.9506 15.8129C12.9529 15.8186 12.9569 15.8263 12.9595 15.8339C12.9618 15.8405 12.9666 15.8521 12.9655 15.8559C12.9629 15.8641 12.9428 15.8668 12.9387 15.8738C12.9263 15.864 12.8906 15.8668 12.8568 15.8659C12.8473 15.8656 12.8344 15.8637 12.8286 15.8648C12.8156 15.8673 12.8099 15.8801 12.8033 15.8868C12.8216 15.8877 12.8361 15.8757 12.8524 15.8748C12.8627 15.8743 12.8778 15.8795 12.891 15.8818C12.9294 15.8887 12.9722 15.8944 13.0071 15.9018C13.0092 15.8215 12.9785 15.7545 12.9372 15.7C12.9782 15.738 13.0059 15.7825 13.0265 15.8349C13.03 15.8439 13.0331 15.8525 13.0354 15.8619C13.0387 15.8749 13.0388 15.8911 13.0488 15.9008C13.0364 15.9099 13.0216 15.9172 13.0086 15.9258C12.972 15.9112 12.9014 15.89 12.842 15.8938C12.8277 15.8947 12.8151 15.8995 12.8048 15.9058C12.8229 15.9107 12.8355 15.9112 12.8598 15.9108C12.8658 15.9107 12.8746 15.909 12.8792 15.9098C12.8843 15.9107 12.8926 15.9179 12.9 15.9228C12.943 15.9517 12.9814 15.9728 13.0324 15.9957C13.0484 16.0029 13.0573 16.0102 13.0756 16.0007C13.0786 16.0956 13.0411 16.1655 12.9952 16.2295C12.9899 16.237 12.9865 16.2457 12.9774 16.2515C13.0119 16.1969 13.0384 16.1319 13.0384 16.0557C13.0384 16.0477 13.0406 16.0378 13.0384 16.0307C13.0351 16.0207 13.0117 16.0101 12.9982 16.0017C12.9597 15.9779 12.9292 15.9612 12.8866 15.9388C12.8783 15.9344 12.8712 15.9285 12.8643 15.9268C12.857 15.925 12.8456 15.9247 12.8375 15.9238C12.8273 15.9227 12.8176 15.9224 12.8092 15.9218C12.8257 15.9337 12.8518 15.9484 12.8747 15.9598C12.8789 15.9623 12.8832 15.9589 12.8881 15.9588C12.8935 16.0702 12.8812 16.1792 12.8345 16.2605C12.8234 16.2799 12.811 16.299 12.7914 16.3135C12.8548 16.2366 12.8596 16.1045 12.8464 15.9887C12.8599 15.9809 12.854 15.9744 12.842 15.9648C12.8287 15.9543 12.8053 15.9389 12.7899 15.9338C12.7888 15.939 12.7914 15.9441 12.7943 15.9488C12.7972 15.9535 12.8037 15.9576 12.8048 15.9618C12.807 15.9707 12.8016 15.9903 12.7988 16.0007C12.7896 16.0352 12.7702 16.0731 12.7527 16.0987C12.7465 16.0981 12.7508 16.0906 12.7467 16.0887C12.7401 16.0889 12.7441 16.0962 12.7408 16.0987C12.7203 16.0752 12.7028 16.0363 12.6931 16.0007C12.6897 15.988 12.6844 15.9727 12.6872 15.9618C12.6895 15.9531 12.7034 15.9452 12.7021 15.9348C12.6885 15.9369 12.6758 15.946 12.6649 15.9538C12.654 15.9615 12.6428 15.9699 12.6351 15.9788C12.636 15.9831 12.6424 15.9839 12.644 15.9878C12.6343 16.1049 12.6346 16.2367 12.7006 16.3125C12.6936 16.3118 12.6904 16.3059 12.6872 16.3025C12.6258 16.2365 12.6093 16.1348 12.6024 16.0297C12.6009 16.0065 12.5993 15.9838 12.6039 15.9608C12.6051 15.9559 12.6128 15.9631 12.6173 15.9598C12.6407 15.9479 12.6619 15.9345 12.6842 15.9218C12.6648 15.9238 12.6437 15.9232 12.6262 15.9278C12.611 15.9318 12.5944 15.9429 12.5801 15.9508C12.5364 15.9747 12.4904 16.0006 12.4536 16.0277C12.4461 16.1169 12.4765 16.1887 12.5131 16.2515C12.4603 16.1824 12.4113 16.1055 12.4164 16.0007C12.4365 16.0136 12.4672 15.9927 12.4833 15.9848C12.5284 15.9626 12.5765 15.9341 12.6113 15.9098C12.6365 15.9123 12.6661 15.9103 12.6872 15.9068C12.6609 15.8843 12.5935 15.8956 12.5533 15.9038C12.5263 15.9093 12.5011 15.9172 12.4848 15.9258C12.4694 15.9189 12.4576 15.9095 12.4432 15.9018C12.4537 15.884 12.456 15.8542 12.464 15.8339C12.4837 15.7843 12.5144 15.7404 12.5518 15.7C12.5508 15.7077 12.5429 15.7143 12.5384 15.721C12.5058 15.7697 12.4843 15.83 12.4833 15.9008C12.5177 15.8956 12.5588 15.8891 12.5994 15.8818C12.6127 15.8795 12.6264 15.8746 12.6366 15.8748C12.6531 15.8752 12.6687 15.8867 12.6872 15.8868C12.6828 15.8775 12.6744 15.8708 12.6649 15.8648C12.6342 15.8672 12.6 15.8635 12.5726 15.8668C12.5698 15.8672 12.5662 15.8683 12.5622 15.8698C12.5626 15.8697 12.5534 15.8738 12.5548 15.8738C12.5486 15.8738 12.5335 15.8594 12.5265 15.8579C12.5408 15.7965 12.5731 15.7472 12.6039 15.697Z" fill="#000072"/>
<path fill-rule="evenodd" clip-rule="evenodd" d="M12.751 15.0843V16.8096V15.0843Z" fill="#000072"/>
<path d="M12.751 15.0843V16.8096" stroke="#000072" stroke-width="0.2" stroke-miterlimit="10"/>
<path d="M12.2021 15.0728C12.2021 15.0728 12.2986 16.4861 12.1572 16.7363" stroke="#000072" stroke-width="0.2" stroke-miterlimit="10"/>
<path d="M11.7688 15.0458C11.7688 15.0458 11.9865 15.6997 11.6719 16.583" stroke="#000072" stroke-width="0.2" stroke-miterlimit="10"/>
<path d="M13.2508 15.0841C13.2508 15.0841 13.1498 16.3363 13.2958 16.7627" stroke="#000072" stroke-width="0.2" stroke-miterlimit="10"/>
<path d="M13.7655 15.0458C13.7655 15.0458 13.5347 16.2876 13.8774 16.583" stroke="#000072" stroke-width="0.2" stroke-miterlimit="10"/>
<path d="M11.3184 15.2935C11.3184 15.2935 11.5358 15.0896 11.8213 15.2935C11.8213 15.2935 11.9701 15.0912 12.2176 15.3213C12.2176 15.3213 12.3526 15.0693 12.7499 15.2935C12.7499 15.2935 12.9176 15.0829 13.2184 15.2935C13.2184 15.2935 13.4548 15.0596 13.7316 15.2818C13.7316 15.2818 13.9784 15.018 14.1921 15.2536" stroke="#000072" stroke-width="0.2" stroke-miterlimit="10"/>
<path d="M12.7188 15.6174C12.7111 15.6119 12.7033 15.6068 12.6957 15.602C12.4251 15.4317 12.2287 15.6221 12.2287 15.6221C12.028 15.4174 11.8418 15.6221 11.8418 15.6221C11.5298 15.2645 11.3613 15.6221 11.3613 15.6221" stroke="#000072" stroke-width="0.2" stroke-miterlimit="10"/>
<path d="M12.7109 15.6211C12.7109 15.6211 12.9576 15.4268 13.2171 15.6211C13.2171 15.6211 13.4692 15.3807 13.6899 15.6318C13.6899 15.6318 14.0176 15.3842 14.1398 15.6268" stroke="#000072" stroke-width="0.2" stroke-miterlimit="10"/>
<path d="M11.3613 16.2201C11.3613 16.2201 11.5615 15.8961 11.7722 16.2476C11.7722 16.2476 12.1501 15.9912 12.2305 16.3493C12.2305 16.3493 12.5434 16.193 12.7621 16.4502C12.7621 16.4502 12.9938 16.184 13.2622 16.387C13.2622 16.387 13.4414 15.9799 13.7447 16.294C13.7447 16.294 13.9316 15.9545 14.1399 16.1482" stroke="#000072" stroke-width="0.2" stroke-miterlimit="10"/>
<path d="M11.3418 16.4136C11.3418 16.4136 11.6025 16.1539 11.7165 16.45C11.7165 16.45 12.0921 16.2832 12.1969 16.5832C12.1969 16.5832 12.585 16.3833 12.7465 16.7031C12.7465 16.7031 12.9761 16.4906 13.2521 16.635C13.2521 16.635 13.5058 16.2602 13.7995 16.4814C13.7995 16.4814 14.0084 16.1309 14.1334 16.3491" stroke="#000072" stroke-width="0.2" stroke-miterlimit="10"/>
<path d="M9.05469 19.235C9.05469 19.235 10.2102 18.0419 11.6708 18.1571L12.0029 19.1588C12.0029 19.1588 11.644 20.646 9.38149 20.1449L9.05469 19.235Z" fill="#000072"/>
<path d="M9.05469 19.235C9.05469 19.235 10.2102 18.0419 11.6708 18.1571L12.0029 19.1588C12.0029 19.1588 11.644 20.646 9.38149 20.1449L9.05469 19.235Z" stroke="#000072" stroke-width="0.2" stroke-miterlimit="10"/>
<path d="M13.4453 19.405L13.7856 17.984L15.389 18.4628L16.3444 18.9956V19.405L16.12 20.145C16.12 20.145 14.5148 20.664 13.4453 19.405Z" fill="#000072"/>
<path d="M13.4453 19.405L13.7856 17.984L15.389 18.4628L16.3444 18.9956V19.405L16.12 20.145C16.12 20.145 14.5148 20.664 13.4453 19.405Z" stroke="#000072" stroke-width="0.2" stroke-miterlimit="10"/>
<path d="M5.33008 17.5126L6.56446 20.6562" stroke="#000072" stroke-width="0.2" stroke-miterlimit="10"/>
<path d="M5.00977 17.9087C5.00977 17.9087 5.22306 19.3639 6.15413 20.6318" stroke="#000072" stroke-width="0.2" stroke-miterlimit="10"/>
<path d="M5.83105 17.3916C5.83105 17.3916 6.79518 18.9993 6.94413 20.6816" stroke="#000072" stroke-width="0.2" stroke-miterlimit="10"/>
<path d="M6.44922 17.5126C6.44922 17.5126 7.03395 18.6575 7.36362 20.6562" stroke="#000072" stroke-width="0.2" stroke-miterlimit="10"/>
<path d="M4.87891 18.5889C4.87891 18.5889 4.88134 18.2669 5.11437 18.3917C5.11437 18.3917 5.20109 17.8287 5.58199 18.1861C5.58199 18.1861 5.59641 17.6145 6.12873 17.9572C6.12873 17.9572 6.28056 17.5377 6.59942 17.9098C6.59942 17.9098 6.75756 17.824 6.85931 18.0176" stroke="#000072" stroke-width="0.2" stroke-miterlimit="10"/>
<path d="M5.04492 18.1064C5.04492 18.1064 5.12665 17.69 5.45198 17.828C5.45198 17.828 5.51639 17.4857 5.94541 17.5995C5.94541 17.5995 6.00853 17.3757 6.51759 17.6618" stroke="#000072" stroke-width="0.2" stroke-miterlimit="10"/>
<path d="M4.92383 18.7598C4.92383 18.7598 4.94179 18.4371 5.19031 18.6616C5.19031 18.6616 5.26861 18.1029 5.7028 18.4629C5.7028 18.4629 5.71443 17.9159 6.21967 18.2251C6.21967 18.2251 6.40556 17.9196 6.72955 18.1857C6.72955 18.1857 6.78741 18.0267 6.94908 18.1857" stroke="#000072" stroke-width="0.2" stroke-miterlimit="10"/>
<path d="M4.92383 19.0361C4.92383 19.0361 5.02469 18.7259 5.30067 18.9952C5.30067 18.9952 5.46954 18.4886 5.83083 18.8315C5.83083 18.8315 5.97638 18.1552 6.41956 18.6196C6.41956 18.6196 6.48848 18.1781 6.84096 18.5048C6.84096 18.5048 6.86771 18.2336 7.05353 18.4513" stroke="#000072" stroke-width="0.2" stroke-miterlimit="10"/>
<path d="M5.00977 19.2705C5.00977 19.2705 5.10361 19.0149 5.37706 19.1984C5.37706 19.1984 5.67437 18.795 5.94722 19.0839C5.94722 19.0839 6.24001 18.6497 6.5194 18.9797C6.5194 18.9797 6.66472 18.5723 6.95206 18.8559C6.95206 18.8559 7.05854 18.704 7.14455 18.8354" stroke="#000072" stroke-width="0.2" stroke-miterlimit="10"/>
<path d="M5.10742 19.5713C5.10742 19.5713 5.27271 19.2929 5.48402 19.4592C5.48402 19.4592 5.66919 19.1419 6.07269 19.4062C6.07269 19.4062 6.26471 18.9766 6.65982 19.301C6.65982 19.301 6.8027 18.9355 7.05283 19.2669C7.05283 19.2669 7.05378 18.9122 7.22889 19.0839" stroke="#000072" stroke-width="0.2" stroke-miterlimit="10"/>
<path d="M5.23047 19.9229V19.8335C5.23047 19.8335 5.34119 19.5079 5.60631 19.7203C5.60631 19.7203 5.88006 19.4122 6.16971 19.6499C6.16971 19.6499 6.46904 19.2651 6.73979 19.5719C6.73979 19.5719 6.90283 19.2355 7.14501 19.5706" stroke="#000072" stroke-width="0.2" stroke-miterlimit="10"/>
<path d="M5.43652 20.0322C5.43652 20.0322 5.44678 19.8589 5.70943 19.923C5.70943 19.923 5.99096 19.7135 6.27089 19.9088C6.27089 19.9088 6.46839 19.5647 6.80356 19.8255C6.80356 19.8255 7.03565 19.5574 7.19446 19.7845" stroke="#000072" stroke-width="0.2" stroke-miterlimit="10"/>
<path d="M5.58203 20.248C5.58203 20.248 5.6835 20.0965 5.86915 20.204C5.86915 20.204 6.1102 19.9743 6.37187 20.1654C6.37187 20.1654 6.5539 19.8945 6.86012 20.0894C6.86012 20.0894 7.05429 19.8424 7.24811 20.0318" stroke="#000072" stroke-width="0.2" stroke-miterlimit="10"/>
<path d="M5.78223 20.4014C5.78223 20.4014 5.81407 20.2409 5.98822 20.3943C5.98822 20.3943 6.19166 20.266 6.44888 20.4014C6.44888 20.4014 6.72942 20.2287 6.90608 20.3646C6.90608 20.3646 7.13576 20.1952 7.28838 20.3569" stroke="#000072" stroke-width="0.2" stroke-miterlimit="10"/>
<path d="M6.07715 20.5144C6.07715 20.5144 6.21244 20.3749 6.51939 20.542C6.51939 20.542 6.68787 20.441 6.84218 20.4766C6.86423 20.4817 6.88598 20.4896 6.90692 20.5009" stroke="#000072" stroke-width="0.2" stroke-miterlimit="10"/>
<path d="M6.92773 20.542C6.92773 20.542 7.08381 20.4083 7.34894 20.5004" stroke="#000072" stroke-width="0.2" stroke-miterlimit="10"/>
<path d="M7.22957 19.0375C7.18299 19.1415 7.3637 20.7773 7.3637 20.7773H9.61769L9.5697 20.6563L9.05559 19.693L8.73379 18.7882C8.00458 18.6866 7.2888 17.0093 7.2888 17.0093L6.78125 17.5394L6.9065 17.8278L7.14413 18.3672L7.22957 19.0375Z" fill="#000072"/>
<path d="M20.0799 17.4365L18.9766 20.6562" stroke="#000072" stroke-width="0.2" stroke-miterlimit="10"/>
<path d="M20.3738 17.83C20.3738 17.83 20.1777 19.8846 19.2568 20.7061" stroke="#000072" stroke-width="0.2" stroke-miterlimit="10"/>
<path d="M19.6538 17.4168C19.6538 17.4168 18.9066 19.1796 18.5518 20.6758" stroke="#000072" stroke-width="0.2" stroke-miterlimit="10"/>
<path d="M19.032 17.5716C19.032 17.5716 18.4882 18.5733 18.2061 20.8623" stroke="#000072" stroke-width="0.2" stroke-miterlimit="10"/>
<path d="M20.5555 18.3721C20.5555 18.3721 20.496 18.0872 20.3074 18.279C20.3074 18.279 20.2287 17.7699 19.8568 18.0842C19.8568 18.0842 19.7519 17.6503 19.4255 17.9838C19.4255 17.9838 19.1715 17.5691 18.8551 17.9838C18.8551 17.9838 18.7898 17.8788 18.6367 18.0169" stroke="#000072" stroke-width="0.2" stroke-miterlimit="10"/>
<path d="M20.5747 18.6611C20.5747 18.6611 20.5049 18.3817 20.2476 18.589C20.2476 18.589 20.0981 18.2388 19.7273 18.4635C19.7273 18.4635 19.6404 18.1088 19.255 18.3398C19.255 18.3398 19.1412 18.0698 18.7574 18.2617C18.7574 18.2617 18.6676 18.0909 18.5068 18.2767" stroke="#000072" stroke-width="0.2" stroke-miterlimit="10"/>
<path d="M20.5732 18.9951C20.5732 18.9951 20.4263 18.6942 20.1754 18.8891C20.1754 18.8891 19.9409 18.5628 19.6019 18.8234C19.6019 18.8234 19.4738 18.5053 19.1479 18.7225C19.1479 18.7225 18.9812 18.3717 18.6352 18.6196C18.6352 18.6196 18.5718 18.4347 18.3203 18.5879" stroke="#000072" stroke-width="0.2" stroke-miterlimit="10"/>
<path d="M20.5135 19.2676C20.5135 19.2676 20.4269 18.97 20.0844 19.2168C20.0844 19.2168 19.8509 18.8349 19.5024 19.1176C19.5024 19.1176 19.3517 18.7285 19.0323 19.0464C19.0323 19.0464 18.9316 18.7298 18.5513 18.9704C18.5513 18.9704 18.4956 18.7226 18.3333 18.9352C18.171 19.1478 18.2904 18.9312 18.2904 18.9312" stroke="#000072" stroke-width="0.2" stroke-miterlimit="10"/>
<path d="M20.4216 19.5625C20.4216 19.5625 20.2976 19.2303 19.9921 19.4911C19.9921 19.4911 19.801 19.2199 19.4085 19.3912C19.4085 19.3912 19.1713 19.1114 18.8961 19.3911C18.8961 19.3911 18.7088 19.1066 18.4628 19.3436C18.4628 19.3436 18.367 18.8768 18.1357 19.3279" stroke="#000072" stroke-width="0.2" stroke-miterlimit="10"/>
<path d="M20.2355 19.793C20.2355 19.793 20.2279 19.4895 19.8984 19.7336C19.8984 19.7336 19.6812 19.4359 19.2989 19.7158C19.2989 19.7158 19.0922 19.4095 18.8126 19.7332C18.8126 19.7332 18.6221 19.4363 18.3859 19.7237C18.3859 19.7237 18.3784 19.2288 18.0596 19.6168" stroke="#000072" stroke-width="0.2" stroke-miterlimit="10"/>
<path d="M20.078 20.0498C20.078 20.0498 20.0289 19.8842 19.7657 20.0121C19.7657 20.0121 19.4798 19.8012 19.1971 20.0067C19.1971 20.0067 19.034 19.7814 18.7354 19.9833C18.7354 19.9833 18.4897 19.7729 18.3209 19.9745C18.3209 19.9745 18.3358 19.5982 17.9775 19.8872" stroke="#000072" stroke-width="0.2" stroke-miterlimit="10"/>
<path d="M19.8884 20.2511C19.8884 20.2511 19.848 20.0641 19.6294 20.2511C19.6294 20.2511 19.3811 20.0872 19.1019 20.2852C19.1019 20.2852 18.8272 20.1142 18.6505 20.2852C18.6505 20.2852 18.4611 20.033 18.2607 20.2852C18.2607 20.2852 18.1994 19.952 18.0059 20.2266" stroke="#000072" stroke-width="0.2" stroke-miterlimit="10"/>
<path d="M19.7223 20.3472C19.7223 20.3472 19.6316 20.2657 19.5407 20.3837C19.5407 20.3837 19.1777 20.2789 19.0329 20.4893C19.0329 20.4893 18.8769 20.3224 18.5977 20.4893C18.5977 20.4893 18.4612 20.2428 18.2566 20.4893C18.2566 20.4893 18.1439 20.1616 17.9326 20.4893" stroke="#000072" stroke-width="0.2" stroke-miterlimit="10"/>
<path d="M16.8415 18.7618L17.5659 18.0761L18.1357 17.1268L18.2063 16.9161L18.6845 17.4366L18.722 17.6952L18.4628 17.9842L18.3213 18.3394L18.261 18.7618V18.9887L18.2561 19.1401C18.2561 19.1401 18.0087 20.2855 18.1357 20.7363L15.9294 20.79L15.8574 20.6564L16.2178 19.9688L16.6133 19.0567L16.8415 18.7618Z" fill="#000072"/>
<path d="M16.4376 14.3152C16.4376 14.3152 14.6719 17.6805 14.4736 18.6201" stroke="#000072" stroke-width="0.2" stroke-miterlimit="10"/>
<path d="M15.873 14.5735C15.873 14.5735 14.1469 17.9668 14.2996 18.2539" stroke="#000072" stroke-width="0.2" stroke-miterlimit="10"/>
<path d="M17.5222 14.3889C17.5222 14.3889 16.2099 17.8994 15.5996 18.7197" stroke="#000072" stroke-width="0.2" stroke-miterlimit="10"/>
<path d="M15.1553 15.0845C15.1553 15.0845 15.5546 14.6694 15.6533 15.0159C15.6533 15.0159 15.9214 14.6281 16.1399 14.8937C16.1399 14.8937 16.6601 14.4823 16.7435 14.9426C16.7435 14.9426 17.2165 14.5765 17.2559 15.0845C17.2559 15.0845 17.4277 15.0368 17.4235 15.4635C17.4235 15.4635 17.5778 15.795 17.533 15.9238" stroke="#000072" stroke-width="0.2" stroke-miterlimit="10"/>
<path d="M15.8115 14.6965C15.8115 14.6965 16.1242 14.4191 16.3027 14.5739C16.3027 14.5739 16.7234 14.155 16.9427 14.5035C16.9427 14.5035 17.3588 14.4313 17.3662 14.7965C17.3662 14.7965 17.5346 15.0041 17.5215 15.085C17.5215 15.085 17.3287 16.3575 16.9598 17.1138C16.9598 17.1138 16.4708 18.7617 15.9729 18.8936" stroke="#000072" stroke-width="0.2" stroke-miterlimit="10"/>
<path d="M15.0938 15.3402C15.0938 15.3402 15.3437 15.0337 15.492 15.3402C15.492 15.3402 15.8586 14.9931 15.8734 15.3402C15.8734 15.3402 16.4521 15.0654 16.5284 15.4102C16.5284 15.4102 16.9557 15.1111 17.042 15.6225C17.042 15.6225 17.4528 15.4716 17.3225 15.992C17.3225 15.992 17.5504 15.9335 17.5074 16.2607" stroke="#000072" stroke-width="0.2" stroke-miterlimit="10"/>
<path d="M14.8682 15.7227C14.8682 15.7227 15.2314 15.3894 15.2772 15.7817C15.2772 15.7817 15.6289 15.4453 15.6481 15.8705C15.6481 15.8705 16.2766 15.5536 16.2623 15.9914C16.2623 15.9914 16.7013 15.854 16.7801 16.266C16.7801 16.266 17.1593 16.1418 17.1988 16.4895C17.1988 16.4895 17.4785 16.4724 17.4523 16.6943" stroke="#000072" stroke-width="0.2" stroke-miterlimit="10"/>
<path d="M14.6768 16.1479C14.6768 16.1479 14.9567 15.6889 15.1268 16.1452C15.1268 16.1452 15.3532 15.9446 15.456 16.2288C15.456 16.2288 16.0066 16.0484 16.0548 16.4499C16.0548 16.4499 16.4274 16.22 16.6131 16.5831C16.6131 16.5831 17.0452 16.513 17.1081 16.7634C17.1081 16.7634 17.3051 16.7031 17.3758 16.916" stroke="#000072" stroke-width="0.2" stroke-miterlimit="10"/>
<path d="M14.5674 16.4139C14.5674 16.4139 14.8264 16.2809 14.9036 16.5831C14.9036 16.5831 15.1719 16.3526 15.2796 16.6291C15.2796 16.6291 15.7188 16.4641 15.8596 16.8101C15.8596 16.8101 16.3355 16.6328 16.4901 16.9591C16.4901 16.9591 16.8128 16.8749 16.9888 17.0899C16.9888 17.0899 17.2029 17.0109 17.2321 17.2256" stroke="#000072" stroke-width="0.2" stroke-miterlimit="10"/>
<path d="M14.3789 16.7688C14.3789 16.7688 14.738 16.5068 14.7374 16.9464C14.7374 16.9464 15.0493 16.7296 15.0929 17.0003C15.0929 17.0003 15.5785 16.862 15.6985 17.2255C15.6985 17.2255 16.1028 16.9361 16.3024 17.3778C16.3024 17.3778 16.7184 17.1591 16.8127 17.5195" stroke="#000072" stroke-width="0.2" stroke-miterlimit="10"/>
<path d="M14.2471 17.1898C14.2471 17.1898 14.5246 16.8958 14.6172 17.2255C14.6172 17.2255 14.8727 17.0132 14.967 17.3146C14.967 17.3146 15.4139 17.1929 15.5648 17.5196C15.5648 17.5196 15.966 17.3505 16.1613 17.6863C16.1613 17.6863 16.5081 17.4692 16.6872 17.7998" stroke="#000072" stroke-width="0.2" stroke-miterlimit="10"/>
<path d="M14.123 17.4671C14.123 17.4671 14.4074 17.2942 14.497 17.5194C14.497 17.5194 14.7461 17.3503 14.842 17.6016C14.842 17.6016 15.3306 17.5028 15.4064 17.7996C15.4064 17.7996 15.8523 17.6743 16.0255 17.97C16.0255 17.97 16.3644 17.8521 16.5605 18.0859C16.5605 18.0859 16.6399 18.0392 16.6398 18.2539" stroke="#000072" stroke-width="0.2" stroke-miterlimit="10"/>
<path d="M14.0127 17.7285C14.0127 17.7285 14.3166 17.5754 14.3782 17.7717C14.3782 17.7717 14.7044 17.6433 14.7306 17.8629C14.7306 17.8629 15.2837 17.74 15.3165 18.0604C15.3165 18.0604 15.8061 17.9163 15.8785 18.254C15.8785 18.254 16.303 18.0825 16.3968 18.4629C16.3968 18.4629 16.5624 18.3858 16.6104 18.6201" stroke="#000072" stroke-width="0.2" stroke-miterlimit="10"/>
<path d="M8.78418 14.0701C8.78418 14.0701 10.3581 16.6113 10.7259 18.2539" stroke="#000072" stroke-width="0.2" stroke-miterlimit="10"/>
<path d="M9.68848 14.5611C9.68848 14.5611 10.8643 16.6769 11.2548 18.0771" stroke="#000072" stroke-width="0.2" stroke-miterlimit="10"/>
<path d="M8.02832 14.4739C8.02832 14.4739 9.39906 18.2912 9.84794 18.5889" stroke="#000072" stroke-width="0.2" stroke-miterlimit="10"/>
<path d="M7.97266 15.1861C7.97266 15.1861 9.08131 18.5877 9.41202 18.7617" stroke="#000072" stroke-width="0.2" stroke-miterlimit="10"/>
<path d="M8.12793 14.627C8.12793 14.627 8.15851 14.2277 8.48971 14.4589C8.48971 14.4589 8.62168 14.1728 8.99689 14.4225C8.99689 14.4225 9.0965 14.2693 9.41343 14.394" stroke="#000072" stroke-width="0.2" stroke-miterlimit="10"/>
<path d="M8.04785 15.4102C8.04785 15.4102 8.07754 15.1292 8.31126 15.239C8.31126 15.239 8.38361 14.8497 8.78581 15.1218C8.78581 15.1218 8.86044 14.7123 9.30441 14.9629C9.30441 14.9629 9.58341 14.604 9.90473 14.9629C9.90473 14.9629 10.1399 14.7484 10.3116 14.9629" stroke="#000072" stroke-width="0.2" stroke-miterlimit="10"/>
<path d="M7.97266 15.0732C7.97266 15.0732 8.07575 14.9022 8.19959 14.9634C8.19959 14.9634 8.33311 14.5915 8.62144 14.7571C8.62144 14.7571 8.80416 14.4876 9.13389 14.6624C9.13389 14.6624 9.47719 14.5072 9.6876 14.6034" stroke="#000072" stroke-width="0.2" stroke-miterlimit="10"/>
<path d="M7.93555 15.9424C7.93555 15.9424 7.97518 15.7533 8.20007 15.8621C8.20007 15.8621 8.23107 15.5763 8.48878 15.724C8.48878 15.724 8.55488 15.3315 9.01354 15.5745C9.01354 15.5745 9.05984 15.1166 9.54662 15.4096C9.54662 15.4096 9.7607 15.0585 10.085 15.3117C10.085 15.3117 10.1211 15.1117 10.3695 15.2818" stroke="#000072" stroke-width="0.2" stroke-miterlimit="10"/>
<path d="M7.97266 16.3848C7.97266 16.3848 8.07526 16.0719 8.33714 16.2609C8.33714 16.2609 8.3913 15.9272 8.66051 16.148C8.66051 16.148 8.85996 15.8412 9.15206 15.9922C9.15206 15.9922 9.41486 15.5761 9.75563 15.8145C9.75563 15.8145 10.0031 15.494 10.2702 15.6832C10.2702 15.6832 10.2797 15.561 10.5325 15.6227" stroke="#000072" stroke-width="0.2" stroke-miterlimit="10"/>
<path d="M8.04785 16.6943C8.04785 16.6943 8.11834 16.3726 8.45023 16.5823C8.45023 16.5823 8.60435 16.3623 8.80514 16.5105C8.80514 16.5105 8.97786 16.1383 9.33472 16.3524C9.33472 16.3524 9.57427 16.0135 9.95904 16.2268C9.95904 16.2268 10.1349 15.9439 10.4736 16.106C10.4736 16.106 10.4448 15.9397 10.7021 16.0455" stroke="#000072" stroke-width="0.2" stroke-miterlimit="10"/>
<path d="M8.17969 17.0088C8.17969 17.0088 8.25695 16.7265 8.52484 16.8682C8.52484 16.8682 8.68446 16.5727 8.92691 16.7955C8.92691 16.7955 9.03379 16.4199 9.4874 16.6766C9.4874 16.6766 9.70384 16.3488 10.1026 16.5091C10.1026 16.5091 10.2609 16.1991 10.6179 16.3887C10.6179 16.3887 10.6921 16.2349 10.8723 16.3579" stroke="#000072" stroke-width="0.2" stroke-miterlimit="10"/>
<path d="M8.19824 17.29C8.19824 17.29 8.30695 16.9286 8.60389 17.0098C8.60389 17.0098 8.87069 16.8687 9.00518 16.9979C9.00518 16.9979 9.38877 16.7149 9.58574 16.9165C9.58574 16.9165 9.9821 16.6087 10.2223 16.8047C10.2223 16.8047 10.493 16.5815 10.7579 16.737C10.7579 16.737 10.9031 16.5798 11.0824 16.6955" stroke="#000072" stroke-width="0.2" stroke-miterlimit="10"/>
<path d="M11.2535 17.1271C11.2535 17.1271 10.9774 16.7689 10.9133 17.1059C10.9133 17.1059 10.4421 16.8286 10.3976 17.2259C10.3976 17.2259 9.93471 16.8845 9.7719 17.3306C9.7719 17.3306 9.29854 17.075 9.17823 17.4349C9.17823 17.4349 8.87634 17.1248 8.82971 17.52C8.82971 17.52 8.67209 17.4609 8.64453 17.6143" stroke="#000072" stroke-width="0.2" stroke-miterlimit="10"/>
<path d="M11.3779 17.4343C11.3779 17.4343 11.1227 17.1575 11.0548 17.4713C11.0548 17.4713 10.6796 17.2289 10.5209 17.5567C10.5209 17.5567 10.1163 17.3559 9.95909 17.7284C9.95909 17.7284 9.52627 17.4914 9.41145 17.8999C9.41145 17.8999 9.1142 17.7818 9.0125 18.0767C9.0125 18.0767 8.85967 18.0369 8.78418 18.2539" stroke="#000072" stroke-width="0.2" stroke-miterlimit="10"/>
<path d="M11.4381 17.6715C11.4381 17.6715 11.2455 17.3297 11.1555 17.7553C11.1555 17.7553 10.9165 17.6093 10.6366 17.9093C10.6366 17.9093 10.2785 17.7888 10.082 18.0216C10.082 18.0216 9.79845 17.945 9.5927 18.1493C9.5814 18.1605 9.57034 18.1726 9.55957 18.1855" stroke="#000072" stroke-width="0.2" stroke-miterlimit="10"/>
<path d="M9.56943 18.172C9.56943 18.172 9.30499 18.1484 9.16762 18.3906C9.16762 18.3906 8.9768 18.3986 8.8887 18.6194C8.8006 18.8402 8.84736 18.5877 8.84736 18.5877" stroke="#000072" stroke-width="0.2" stroke-miterlimit="10"/>
<path fill-rule="evenodd" clip-rule="evenodd" d="M12.7266 5.09222C15.764 5.09222 18.1006 8.19736 18.1006 10.7902C18.1006 13.383 13.8178 14.4308 12.7266 14.4819C11.6353 14.533 7.12988 13.307 7.12988 10.7141C7.12988 8.12128 9.68917 5.09222 12.7266 5.09222Z" fill="#FF850B"/>
<path d="M12.728 5.21734C9.69892 5.21734 7.2597 8.22387 7.2597 10.7132C7.2597 11.3605 7.5592 11.9692 8.14995 12.5224C9.4658 13.7547 11.8666 14.3562 12.6604 14.3563C12.6822 14.3563 12.7026 14.3559 12.7219 14.355C13.2971 14.328 14.622 14.0373 15.7669 13.4754C16.7737 12.9813 17.9737 12.1142 17.9737 10.7892C17.9737 8.21253 15.6823 5.21734 12.728 5.21734ZM12.6636 14.6084C11.8121 14.6084 9.35803 14.0022 7.9728 12.7049C7.32927 12.1022 7.00293 11.4321 7.00293 10.7132C7.00293 9.41533 7.63603 7.96899 8.69646 6.84421C9.82231 5.65006 11.2918 4.96516 12.728 4.96516C14.1733 4.96516 15.5666 5.64722 16.6514 6.88569C17.6401 8.01452 18.2305 9.47376 18.2305 10.7892C18.2305 11.94 17.4183 12.9468 15.8817 13.701C14.7033 14.2793 13.3317 14.5789 12.7341 14.6069C12.7121 14.6079 12.6885 14.6084 12.6636 14.6084Z" fill="#000072"/>
<g opacity="0.5">
<g opacity="0.5">
<path opacity="0.5" fill-rule="evenodd" clip-rule="evenodd" d="M12.7264 5.09111C14.5932 5.09111 16.195 6.2642 17.1526 7.7702C17.1626 7.81887 17.1722 7.86773 17.1806 7.91699C16.3063 6.65829 14.9432 5.82828 13.4336 5.60438C13.5304 5.6403 13.5865 5.68295 13.5865 5.72874C13.5865 5.85672 13.1477 5.96045 12.6064 5.96045C12.0651 5.96045 11.6263 5.85672 11.6263 5.72874C11.6263 5.68295 11.6823 5.6403 11.7791 5.60438C10.2694 5.82833 8.90647 6.65838 8.03223 7.91699L8.03706 7.89046C9.04512 6.3243 10.7884 5.09111 12.7264 5.09111Z" fill="white"/>
</g>
</g>
<path fill-rule="evenodd" clip-rule="evenodd" d="M17.9564 11.5859C17.2011 13.5995 13.6983 14.4354 12.7266 14.4809C11.7648 14.5259 8.15175 13.5788 7.30762 11.5785C7.37234 10.489 7.93589 10.1912 8.97809 10.7236C9.40668 10.9425 9.84267 11.1709 10.1881 10.997C12.1601 10.0043 13.3642 10.1914 14.7139 10.997C15.3451 11.3737 15.9611 10.8118 16.3475 10.6404C17.5784 10.0946 18.1431 10.4763 17.9564 11.5859Z" fill="white"/>
<g opacity="0.300003">
<g opacity="0.300003">
<path opacity="0.300003" fill-rule="evenodd" clip-rule="evenodd" d="M18.0773 10.338C18.0925 10.4902 18.1007 10.6414 18.1007 10.7908C18.1007 10.8863 18.0942 10.9794 18.0829 11.0708L18.0841 11.0435C17.9341 12.7738 14.3865 14.095 12.478 14.2017C10.8849 14.2908 7.70304 12.6064 7.16804 11.0435C7.16903 11.0759 7.17072 11.1082 7.17222 11.1405C7.14496 11.0029 7.12988 10.8611 7.12988 10.7148C7.12988 10.5983 7.13526 10.4809 7.14535 10.3629L7.15366 10.3376C8.39734 12.0939 10.4375 13.141 12.6157 13.141C14.7935 13.141 16.8336 12.0939 18.0773 10.338Z" fill="#000072"/>
</g>
</g>
<path fill-rule="evenodd" clip-rule="evenodd" d="M10.7623 9.50788C10.5925 9.43351 10.4186 9.30885 10.2409 9.13417C9.93293 9.14789 9.68652 9.47104 9.68652 9.86762C9.68652 10.273 9.94383 10.6016 10.2612 10.6016C10.5787 10.6016 10.836 10.273 10.836 9.86762C10.836 9.73691 10.8092 9.61421 10.7623 9.50788Z" fill="#000072"/>
<path d="M15.5865 8.81664C15.3792 9.08711 15.1754 9.29625 14.9751 9.44406C14.6804 9.66151 14.3615 9.69958 14.3262 9.46009C14.4847 9.44226 14.6498 9.36989 14.8216 9.24313C15.245 8.93059 15.3774 8.72937 15.5865 8.81664Z" fill="#000072"/>
<path fill-rule="evenodd" clip-rule="evenodd" d="M14.6196 9.50788C14.7894 9.43351 14.9633 9.30885 15.141 9.13417C15.449 9.14789 15.6954 9.47104 15.6954 9.86762C15.6954 10.273 15.4381 10.6016 15.1207 10.6016C14.8032 10.6016 14.5459 10.273 14.5459 9.86762C14.5459 9.73691 14.5727 9.61421 14.6196 9.50788Z" fill="#000072"/>
<path fill-rule="evenodd" clip-rule="evenodd" d="M14.8816 9.68109C14.7884 9.68109 14.7129 9.76015 14.7129 9.85763C14.7129 9.95512 14.7884 10.0342 14.8816 10.0342C14.9748 10.0342 15.0503 9.95512 15.0503 9.85763C15.0503 9.76015 14.9748 9.68109 14.8816 9.68109Z" fill="white"/>
<path fill-rule="evenodd" clip-rule="evenodd" d="M12.6172 9.99708C13.0283 9.99708 13.3614 10.2153 13.3614 10.4844C13.3614 10.7535 13.0283 10.9717 12.6172 10.9717C12.2062 10.9717 11.873 10.7535 11.873 10.4844C11.873 10.2153 12.2062 9.99708 12.6172 9.99708Z" fill="#000072"/>
<path d="M13.3276 11.5684C13.0656 11.5684 12.8122 11.4727 12.6178 11.3017C12.4007 11.4959 12.1013 11.5863 11.8071 11.5403C11.4654 11.487 11.1755 11.2569 11.0507 10.9399C11.0251 10.875 11.058 10.802 11.1241 10.7768C11.1902 10.7517 11.2645 10.784 11.2901 10.8489C11.3821 11.0825 11.5956 11.252 11.8474 11.2913C12.0994 11.3306 12.3558 11.2345 12.517 11.0406C12.5411 11.0116 12.577 10.9946 12.615 10.9942C12.6534 10.9942 12.6894 11.01 12.7141 11.0384C12.8822 11.2319 13.1362 11.3347 13.3945 11.3134C13.6526 11.2922 13.886 11.1491 14.0188 10.9308C14.0552 10.871 14.1342 10.8515 14.1949 10.8873C14.2557 10.923 14.2756 11.0005 14.2392 11.0602C14.064 11.3481 13.7563 11.5367 13.416 11.5647C13.3865 11.5672 13.357 11.5684 13.3276 11.5684Z" fill="#000072"/>
<path fill-rule="evenodd" clip-rule="evenodd" d="M12.6168 11.1195C12.8844 11.3693 13.1473 11.4756 13.4056 11.4382C13.4695 13.085 11.7698 13.0179 11.8276 11.415C12.1443 11.4545 12.4072 11.356 12.6168 11.1195Z" fill="#000072"/>
<path d="M11.9559 11.5509C11.9686 11.9705 12.1201 12.3003 12.3725 12.4471C12.5392 12.544 12.7276 12.5454 12.8895 12.4507C13.1311 12.3094 13.27 11.9931 13.2789 11.5724C13.0605 11.5656 12.841 11.4727 12.6237 11.2952C12.4367 11.4652 12.2148 11.5509 11.9617 11.5509C11.9598 11.5509 11.9578 11.5509 11.9559 11.5509ZM12.6364 12.7725C12.5015 12.7725 12.3659 12.7363 12.2417 12.6641C11.8762 12.4516 11.6787 11.9951 11.6998 11.4118L11.7048 11.2738L11.8442 11.2912C12.1183 11.3253 12.3392 11.2424 12.5204 11.038L12.6084 10.9385L12.7056 11.0293C12.9454 11.2531 13.1686 11.3465 13.3873 11.3147L13.5289 11.2943L13.5343 11.4347C13.5568 12.014 13.3696 12.4634 13.0209 12.6674C12.9011 12.7375 12.7691 12.7725 12.6364 12.7725Z" fill="#000072"/>
<path fill-rule="evenodd" clip-rule="evenodd" d="M12.6312 12.0302C12.4026 12.0302 12.1879 12.1376 12.0537 12.3192C12.3627 12.7514 12.9106 12.7584 13.2058 12.3155C13.0714 12.1362 12.8581 12.0302 12.6312 12.0302Z" fill="#FF0066"/>
<path d="M12.2185 12.3229C12.3375 12.4518 12.4872 12.5216 12.6425 12.5202C12.7926 12.5178 12.9311 12.4482 13.0401 12.3222C12.9315 12.2176 12.7837 12.1571 12.6297 12.1571C12.475 12.1571 12.3271 12.2178 12.2185 12.3229ZM12.6345 12.7725C12.3701 12.7725 12.1202 12.6345 11.9472 12.3925L11.8945 12.3188L11.9484 12.2459C12.1063 12.0324 12.3609 11.9049 12.6297 11.9049C12.8962 11.9049 13.1497 12.0308 13.3077 12.2416L13.3606 12.3121L13.3118 12.3854C13.1507 12.6271 12.9083 12.7682 12.6467 12.7724C12.6427 12.7724 12.6386 12.7725 12.6345 12.7725Z" fill="#000072"/>
<path fill-rule="evenodd" clip-rule="evenodd" d="M17.4752 8.15137C16.6508 6.81326 15.6623 5.90731 14.5098 5.43367C16.7706 2.32218 17.759 3.22807 17.4752 8.15137Z" fill="#FF850B"/>
<path d="M14.7075 5.38031C15.7194 5.83389 16.6125 6.62895 17.3682 7.74828C17.506 4.71467 17.0871 3.90734 16.7017 3.77422C16.4076 3.6727 15.8245 3.87459 14.7075 5.38031ZM17.5806 8.56445L17.3661 8.21622C16.5598 6.90764 15.5823 6.01045 14.4609 5.54956L14.3125 5.48858L14.4059 5.35999C15.4401 3.93671 16.2187 3.33997 16.7869 3.53634C17.5117 3.78674 17.7714 5.25533 17.6041 8.15807L17.5806 8.56445Z" fill="#000072"/>
<path fill-rule="evenodd" clip-rule="evenodd" d="M14.3146 8.31412C14.5047 8.23755 14.6964 8.2653 14.7426 8.37613C14.7889 8.48696 14.6722 8.63892 14.4822 8.71554C14.292 8.79211 14.1003 8.76431 14.0541 8.65348C14.0078 8.54266 14.1245 8.39069 14.3146 8.31412Z" fill="white"/>
<path fill-rule="evenodd" clip-rule="evenodd" d="M11.0007 8.30634C10.8106 8.22972 10.6189 8.25753 10.5726 8.36835C10.5264 8.47918 10.643 8.63115 10.8331 8.70771C11.0232 8.78428 11.2149 8.75653 11.2612 8.64571C11.3074 8.53488 11.1908 8.38291 11.0007 8.30634Z" fill="white"/>
<path fill-rule="evenodd" clip-rule="evenodd" d="M10.3465 9.68109C10.2532 9.68109 10.1777 9.76015 10.1777 9.85763C10.1777 9.95512 10.2532 10.0342 10.3465 10.0342C10.4397 10.0342 10.5152 9.95512 10.5152 9.85763C10.5152 9.76015 10.4397 9.68109 10.3465 9.68109Z" fill="white"/>
<path fill-rule="evenodd" clip-rule="evenodd" d="M7.84242 8.21484C8.66681 6.87669 9.65527 5.97079 10.8078 5.4971C8.54702 2.38561 7.55855 3.29155 7.84242 8.21484Z" fill="#FF850B"/>
<path d="M8.75352 3.81556C8.70192 3.81556 8.6564 3.82376 8.61624 3.83764C8.23088 3.97077 7.81195 4.77808 7.94983 7.81169C8.70542 6.69239 9.59853 5.89733 10.6104 5.4437C9.64597 4.14361 9.07951 3.81556 8.75352 3.81556ZM7.73739 8.62793L7.71395 8.2215C7.5466 5.31874 7.80623 3.85017 8.53104 3.59974C9.09891 3.40361 9.87777 4.00001 10.912 5.42338L11.0054 5.55197L10.8571 5.61295C9.73553 6.07389 8.7581 6.97111 7.95195 8.27966L7.73739 8.62793Z" fill="#000072"/>
<g opacity="0.649994">
<g opacity="0.649994">
<path opacity="0.649994" fill-rule="evenodd" clip-rule="evenodd" d="M10.5222 5.625C10.6155 5.5797 10.7099 5.53743 10.8055 5.4981C9.40432 3.56966 8.49212 3.18514 8.06836 4.34299C8.51963 3.52881 9.3375 3.95608 10.522 5.6249L10.5222 5.625Z" fill="white"/>
</g>
</g>
<path fill-rule="evenodd" clip-rule="evenodd" d="M8.45937 7.30762C8.86124 6.81942 9.31669 6.39683 9.82578 6.03998C8.68458 3.85725 8.22908 4.27978 8.45937 7.30762Z" fill="#000072"/>
<path d="M8.75367 4.79404C8.74805 4.79404 8.74422 4.79478 8.74198 4.7954C8.72823 4.7992 8.60627 4.84856 8.55408 5.40447C8.51891 5.77903 8.52307 6.31089 8.56629 6.9883C8.8981 6.61957 9.26519 6.28867 9.66161 6.00113C9.06113 4.87385 8.81204 4.79404 8.75367 4.79404ZM8.35609 7.63379L8.33198 7.31645C8.15675 5.01246 8.4057 4.62643 8.67238 4.55266C8.99129 4.46424 9.37072 4.89182 9.94061 5.98182L9.9913 6.07876L9.90097 6.14206C9.4039 6.49048 8.95266 6.90912 8.5598 7.38635L8.35609 7.63379Z" fill="#000072"/>
<g opacity="0.300003">
<g opacity="0.300003">
<path opacity="0.300003" fill-rule="evenodd" clip-rule="evenodd" d="M8.60674 4.74141C8.19029 5.04731 7.9213 5.87492 7.7998 7.22417C7.80712 7.53402 7.8209 7.8642 7.8411 8.21484C7.90269 8.10544 7.96781 7.9973 8.03662 7.89088L8.03179 7.91741C8.36446 7.41904 8.72231 6.98698 9.10522 6.62118C8.8813 6.82861 8.67031 7.05192 8.47222 7.29107C8.46833 7.29575 8.46445 7.3004 8.46058 7.30519C8.46022 7.30557 8.45988 7.30601 8.45948 7.30655C8.45913 7.30695 8.45884 7.30734 8.45848 7.30773C8.3469 5.84067 8.39635 4.98525 8.60674 4.74141ZM16.7092 4.67765C17.1257 4.98358 17.3947 5.81115 17.5161 7.1604C17.5088 7.47025 17.495 7.80047 17.4749 8.15108C17.4132 8.04167 17.3481 7.93358 17.2793 7.82711L17.2841 7.85364C16.9515 7.35527 16.5937 6.92321 16.2107 6.55746C16.4347 6.76489 16.6456 6.9882 16.8437 7.22734C16.8476 7.23199 16.8515 7.23668 16.8553 7.24142C16.8557 7.24186 16.856 7.2423 16.8564 7.24278C16.8568 7.24322 16.8571 7.24357 16.8574 7.24401C16.9691 5.77695 16.9196 4.92148 16.7092 4.67765Z" fill="#000072"/>
</g>
</g>
<g opacity="0.649994">
<g opacity="0.649994">
<path opacity="0.649994" fill-rule="evenodd" clip-rule="evenodd" d="M14.7921 5.55859C14.6988 5.51329 14.6044 5.47102 14.5088 5.43174C15.91 3.5033 16.8222 3.11873 17.246 4.27659C16.7947 3.4624 15.9768 3.88972 14.7923 5.55854L14.7921 5.55859Z" fill="white"/>
</g>
</g>
<path fill-rule="evenodd" clip-rule="evenodd" d="M16.8596 7.24316C16.4577 6.75491 16.0022 6.33233 15.4932 5.97547C16.6344 3.79274 17.0899 4.21532 16.8596 7.24316Z" fill="#000072"/>
<path d="M15.6559 5.93855C16.0523 6.22614 16.4194 6.55707 16.7512 6.92575C16.7944 6.24833 16.7985 5.71648 16.7634 5.34191C16.7112 4.786 16.5892 4.73662 16.5755 4.73283C16.5501 4.72592 16.3142 4.70264 15.6559 5.93855ZM16.9613 7.57129L16.7576 7.32381C16.3649 6.84664 15.9137 6.42798 15.4165 6.07948L15.3262 6.01618L15.3769 5.91924C15.9467 4.82932 16.3258 4.40176 16.6451 4.4901C16.9117 4.56386 17.1607 4.9499 16.9855 7.25393L16.9613 7.57129Z" fill="#000072"/>
<path d="M8.75357 3.81557C8.70197 3.81557 8.65645 3.82377 8.61629 3.83765C8.23093 3.97078 7.81197 4.77811 7.94984 7.81172C8.70547 6.6924 9.59858 5.89733 10.6105 5.44372C9.64603 4.14363 9.07956 3.81557 8.75357 3.81557ZM7.73737 8.62793L7.71393 8.22152C7.54661 5.31876 7.80628 3.85016 8.5311 3.59976C9.09896 3.40363 9.87782 4.00003 10.9121 5.42339L11.0055 5.55198L10.8571 5.61296C9.73558 6.0739 8.75815 6.97112 7.95194 8.27967L7.73737 8.62793Z" fill="#000072"/>
<path d="M12.728 5.21734C9.69892 5.21734 7.2597 8.22387 7.2597 10.7132C7.2597 11.3605 7.5592 11.9692 8.14995 12.5224C9.4658 13.7547 11.8666 14.3562 12.6604 14.3563C12.6822 14.3563 12.7026 14.3559 12.7219 14.355C13.2971 14.328 14.622 14.0373 15.7669 13.4754C16.7737 12.9813 17.9737 12.1142 17.9737 10.7892C17.9737 8.21253 15.6823 5.21734 12.728 5.21734ZM12.6636 14.6084C11.8121 14.6084 9.35803 14.0022 7.9728 12.7049C7.32927 12.1022 7.00293 11.4321 7.00293 10.7132C7.00293 9.41533 7.63603 7.96899 8.69646 6.84421C9.82231 5.65006 11.2918 4.96516 12.728 4.96516C14.1733 4.96516 15.5666 5.64722 16.6514 6.88569C17.6401 8.01452 18.2305 9.47376 18.2305 10.7892C18.2305 11.94 17.4183 12.9468 15.8817 13.701C14.7033 14.2793 13.3317 14.5789 12.7341 14.6069C12.7121 14.6079 12.6885 14.6084 12.6636 14.6084Z" fill="#000072"/>
<g opacity="0.559998">
<g opacity="0.559998">
<path opacity="0.559998" fill-rule="evenodd" clip-rule="evenodd" d="M12.8613 10.1918C12.9735 10.2209 13.0566 10.2738 13.0468 10.3102C13.0371 10.3465 12.9382 10.3524 12.826 10.3233C12.7138 10.2943 12.6307 10.2413 12.6404 10.2049C12.6502 10.1686 12.7491 10.1627 12.8613 10.1918Z" fill="white"/>
</g>
</g>
<path d="M9.8877 8.81664C10.095 9.08711 10.2989 9.29625 10.4992 9.44406C10.7938 9.66151 11.1128 9.69958 11.1481 9.46009C10.9896 9.44226 10.8244 9.36989 10.6526 9.24313C10.2292 8.93059 10.0968 8.72937 9.8877 8.81664Z" fill="#000072"/>
<path d="M14.7075 5.38031C15.7194 5.83389 16.6125 6.62895 17.3682 7.74828C17.506 4.71467 17.0871 3.90734 16.7017 3.77422C16.4076 3.6727 15.8245 3.87459 14.7075 5.38031ZM17.5806 8.56445L17.3661 8.21622C16.5598 6.90764 15.5823 6.01045 14.4609 5.54956L14.3125 5.48858L14.4059 5.35999C15.4401 3.93671 16.2187 3.33997 16.7869 3.53634C17.5117 3.78674 17.7714 5.25533 17.6041 8.15807L17.5806 8.56445Z" fill="#000072"/>
</svg>
