<svg width="200" height="186" viewBox="0 0 200 186" fill="none" xmlns="http://www.w3.org/2000/svg">
<g opacity="0.1">
<path d="M194.021 70.8389C194.021 70.8389 194.72 73.8425 192.403 77.196C192.403 77.196 196.187 77.0804 198.007 79.5654C198.007 79.5654 197.401 75.9535 200 73.2083C200 73.2083 196.447 73.8441 194.021 70.8389Z" fill="white"/>
</g>
<path d="M2.29891 117.193C2.29891 117.193 3.29167 121.461 0 126.227C0 126.227 5.37785 126.063 7.96411 129.595C7.96411 129.595 7.10205 124.461 10.7967 120.56C10.7967 120.56 5.7473 121.464 2.29891 117.193Z" fill="white"/>
<g opacity="0.6">
<path d="M182.687 116.844C182.687 116.844 183.385 119.847 181.069 123.201C181.069 123.201 184.853 123.085 186.673 125.57C186.673 125.57 186.067 121.958 188.666 119.213C188.666 119.213 185.113 119.849 182.687 116.844Z" fill="white"/>
</g>
<g opacity="0.300003">
<g opacity="0.300003">
<path opacity="0.300003" d="M188.506 178.255C188.506 181.376 149.088 183.906 100.463 183.906C51.8386 183.906 12.4204 181.376 12.4204 178.255C12.4204 175.134 51.8386 172.604 100.463 172.604C149.088 172.604 188.506 175.134 188.506 178.255Z" fill="#000072"/>
</g>
</g>
<path d="M174.573 171.185C171.079 175.238 165.953 177.518 160.601 177.518H40.3248C34.9724 177.518 29.8465 175.238 26.3525 171.185C24.4222 168.945 22.9951 166.449 22.0353 163.896C22.0318 163.896 22.0317 163.896 22.0317 163.893C19.0123 155.881 20.5508 147.283 25.3676 144.191C33.4555 138.991 39.6922 145.345 39.6922 145.345C40.3823 143.723 41.3169 142.317 42.363 141.113C46.3027 136.56 51.824 134.827 51.824 134.827C48.8225 117.606 55.5229 102.004 55.5229 102.004C55.5229 102.004 72.033 114.485 100.463 114.485C128.893 114.485 145.403 102.004 145.403 102.004C145.403 102.004 152.103 117.606 149.102 134.827C149.102 134.827 157.941 137.603 161.234 145.345C161.234 145.345 167.47 138.991 175.558 144.191C181.91 148.272 182.561 161.926 174.573 171.185Z" fill="#B11313"/>
<g opacity="0.300003">
<g opacity="0.300003">
<path opacity="0.300003" d="M44.4866 161.221C45.601 150.43 39.6914 145.773 39.6914 145.773C40.3816 144.151 41.3162 142.745 42.3622 141.541C51.5285 152.508 44.4866 161.221 44.4866 161.221Z" fill="#000072"/>
</g>
</g>
<g opacity="0.300003">
<g opacity="0.300003">
<path opacity="0.300003" d="M156.471 161.221C155.357 150.43 161.266 145.773 161.266 145.773C160.576 144.151 159.642 142.745 158.596 141.541C149.429 152.508 156.471 161.221 156.471 161.221Z" fill="#000072"/>
</g>
</g>
<g opacity="0.300003">
<g opacity="0.300003">
<path opacity="0.300003" d="M157.406 170.28C156.55 170.066 155.667 169.993 154.79 170.089C153.54 170.226 151.389 170.439 148.235 170.676C143.487 171.032 139.34 167.463 139.016 162.711C138.877 160.67 139.182 159.085 139.293 158.595C138.053 163.896 135.764 168.781 134.368 171.46C127.282 171.755 118.306 171.996 107.208 172.066C106.609 150.613 119.067 130.497 119.067 130.497C99.9787 145.773 81.8884 130.497 81.8884 130.497C94.4842 152.862 93.8284 171.135 93.8284 171.135L95.9497 172.078C83.8292 172.027 74.1362 171.775 66.5875 171.46C65.1915 168.781 62.9021 163.897 61.6623 158.595C61.7774 159.105 62.103 160.799 61.92 162.959C61.526 167.609 57.3759 171.025 52.7241 170.676C49.5676 170.44 47.416 170.227 46.1655 170.089C45.2881 169.993 44.4052 170.066 43.5488 170.28C29.8634 173.688 22.2798 164.624 22.0356 164.324C22.9954 166.877 24.4225 169.373 26.3528 171.613C29.8468 175.666 34.9727 177.945 40.3251 177.945H100.478H160.63C165.983 177.945 171.108 175.666 174.602 171.613C176.533 169.373 177.96 166.877 178.92 164.324C178.675 164.624 171.092 173.688 157.406 170.28Z" fill="#000072"/>
</g>
</g>
<g opacity="0.300003">
<g opacity="0.300003">
<path opacity="0.300003" d="M61.6633 158.594C61.6399 158.49 61.625 158.434 61.625 158.434C61.6373 158.487 61.6508 158.54 61.6633 158.594Z" fill="#000072"/>
</g>
</g>
<g opacity="0.300003">
<g opacity="0.300003">
<path opacity="0.300003" d="M139.295 158.594C139.307 158.54 139.321 158.487 139.333 158.434C139.333 158.434 139.318 158.49 139.295 158.594Z" fill="#000072"/>
</g>
</g>
<path d="M100.451 176.699H160.604C165.65 176.699 170.399 174.549 173.634 170.8C177.812 165.956 179.873 159.248 179.011 153.294C178.507 149.808 177.004 147.028 174.889 145.668C167.736 141.068 162.351 146.419 162.125 146.649C161.834 146.946 161.414 147.079 161.004 147C160.595 146.923 160.252 146.646 160.089 146.264C157.056 139.131 148.814 136.473 148.731 136.447C148.134 136.26 147.769 135.659 147.876 135.043C150.263 121.358 146.32 108.554 144.811 104.359C140.29 107.315 124.736 116.162 100.466 116.162C76.1965 116.162 60.6416 107.315 56.1215 104.359C54.6116 108.554 50.6686 121.358 53.0557 135.043C53.1631 135.659 52.7976 136.26 52.2011 136.447C52.1196 136.473 43.8638 139.16 40.8429 146.264C40.68 146.646 40.3367 146.923 39.9279 147C39.5193 147.078 39.0984 146.946 38.8071 146.649C38.582 146.423 33.1503 141.097 26.043 145.668C23.9276 147.028 22.425 149.808 21.9207 153.294C21.0593 159.248 23.1197 165.956 27.2981 170.8C30.5326 174.549 35.2816 176.699 40.3276 176.699H100.451ZM160.604 179.192H40.3276C34.5563 179.192 29.1195 176.727 25.4112 172.428C20.775 167.054 18.4923 159.585 19.4542 152.937C20.0708 148.674 21.9321 145.348 24.6953 143.571C31.2715 139.342 36.8202 142.104 39.2585 143.824C42.3513 138.159 48.0897 135.381 50.4317 134.442C47.8236 117.477 54.1065 102.578 54.3807 101.94C54.5318 101.588 54.8363 101.325 55.2065 101.227C55.5772 101.129 55.9716 101.206 56.277 101.437C56.4384 101.559 72.8335 113.668 100.466 113.668C128.098 113.668 144.494 101.559 144.656 101.437C144.962 101.206 145.357 101.129 145.726 101.227C146.096 101.326 146.401 101.588 146.551 101.94C146.826 102.578 153.108 117.477 150.5 134.442C152.842 135.381 158.581 138.159 161.674 143.824C164.111 142.104 169.66 139.341 176.237 143.571C179 145.348 180.861 148.674 181.478 152.937C182.44 159.585 180.157 167.054 175.521 172.428C171.813 176.727 166.376 179.192 160.604 179.192Z" fill="#000072"/>
<path d="M40.4173 144.757C40.554 144.851 40.6177 144.902 40.7119 144.972C40.8013 145.038 40.8733 145.101 40.9549 145.167C41.1168 145.298 41.2536 145.435 41.4002 145.571C41.5503 145.705 41.674 145.852 41.8088 145.995C41.9445 146.137 42.0719 146.283 42.1914 146.434C42.6879 147.03 43.1054 147.671 43.4776 148.334C44.2237 149.659 44.7195 151.088 45.064 152.526C45.4 153.971 45.5241 155.438 45.5243 156.886C45.5269 157.61 45.4461 158.331 45.3969 159.044C45.2895 159.757 45.1722 160.463 45.0231 161.16C44.9946 161.293 44.8638 161.377 44.731 161.349C44.63 161.327 44.557 161.247 44.5401 161.151L44.5372 161.134C44.4151 160.434 44.3391 159.744 44.2473 159.061L44.0687 158.043C44.0033 157.707 43.979 157.367 43.8895 157.037C43.7221 156.377 43.6324 155.709 43.4211 155.07C43.3291 154.749 43.2569 154.423 43.1567 154.107L42.8354 153.169C42.3921 151.931 41.8505 150.747 41.198 149.653C41.0281 149.385 40.8691 149.107 40.6845 148.853L40.4176 148.463L40.1314 148.093C39.9499 147.837 39.7394 147.613 39.5424 147.382C39.4409 147.273 39.3401 147.154 39.2375 147.057C39.1883 147.007 39.1357 146.947 39.0892 146.904C39.0477 146.864 38.9798 146.8 38.9752 146.791L38.7063 146.251C38.4175 145.67 38.6535 144.966 39.2336 144.677C39.6266 144.481 40.078 144.527 40.4173 144.757Z" fill="#000072"/>
<path d="M161.927 146.791C161.922 146.8 161.854 146.864 161.813 146.904C161.767 146.947 161.714 147.007 161.665 147.057C161.562 147.154 161.461 147.273 161.36 147.382C161.163 147.613 160.952 147.837 160.771 148.093L160.485 148.463L160.218 148.853C160.033 149.107 159.874 149.385 159.704 149.653C159.052 150.747 158.51 151.931 158.067 153.169L157.746 154.108C157.645 154.424 157.573 154.749 157.481 155.07C157.27 155.709 157.18 156.377 157.013 157.037C156.923 157.367 156.899 157.707 156.834 158.043L156.655 159.061C156.563 159.744 156.487 160.434 156.365 161.134L156.362 161.151C156.339 161.285 156.211 161.374 156.077 161.351C155.976 161.333 155.9 161.255 155.879 161.16C155.73 160.463 155.613 159.757 155.505 159.044C155.456 158.331 155.375 157.61 155.378 156.886C155.378 155.438 155.502 153.971 155.838 152.526C156.183 151.088 156.679 149.659 157.425 148.334C157.797 147.671 158.214 147.03 158.711 146.434C158.83 146.283 158.958 146.137 159.093 145.995C159.228 145.852 159.352 145.705 159.502 145.571C159.649 145.435 159.785 145.298 159.947 145.167C160.029 145.101 160.101 145.038 160.19 144.972C160.285 144.902 160.348 144.851 160.485 144.757C161.02 144.392 161.75 144.531 162.115 145.067C162.362 145.429 162.379 145.882 162.197 146.249L161.927 146.791Z" fill="#000072"/>
<path d="M53.0645 135.109L53.166 136.105L53.2929 137.219C53.3375 137.598 53.397 137.979 53.4298 138.379C53.4663 138.778 53.488 139.191 53.4678 139.637L53.4677 139.639C53.4645 139.709 53.4052 139.764 53.3349 139.761C53.3098 139.759 53.2867 139.751 53.2676 139.737C52.9014 139.48 52.5864 139.184 52.3138 138.861C52.0345 138.541 51.8061 138.192 51.5832 137.834C51.3654 137.473 51.167 137.099 50.9944 136.706C50.9132 136.508 50.829 136.309 50.7636 136.099C50.7283 135.995 50.6965 135.888 50.668 135.778C50.6372 135.66 50.6165 135.573 50.5899 135.405C50.4817 134.724 50.9454 134.085 51.6255 133.977C52.3057 133.869 52.9447 134.333 53.0527 135.013C53.0562 135.035 53.059 135.057 53.0614 135.078L53.0645 135.109Z" fill="#000072"/>
<path d="M150.37 135.405C150.343 135.573 150.323 135.66 150.292 135.778C150.263 135.888 150.232 135.995 150.196 136.099C150.131 136.309 150.047 136.508 149.966 136.706C149.793 137.099 149.595 137.473 149.377 137.834C149.154 138.192 148.925 138.541 148.646 138.861C148.374 139.184 148.059 139.48 147.692 139.737C147.635 139.778 147.556 139.764 147.515 139.707C147.501 139.686 147.493 139.663 147.492 139.639L147.492 139.637C147.472 139.191 147.494 138.778 147.53 138.379C147.563 137.979 147.622 137.599 147.667 137.219L147.794 136.105L147.895 135.109L147.898 135.082C147.968 134.397 148.58 133.898 149.265 133.968C149.95 134.038 150.449 134.65 150.379 135.335C150.377 135.357 150.373 135.383 150.37 135.405Z" fill="#000072"/>
<path d="M59.1111 147.464C59.1111 147.464 53.4065 143.039 51.8274 135.256C51.8274 135.256 48.5456 133.597 46.2773 138.087C46.2773 138.087 48.8939 151.793 61.626 158.435C61.626 158.435 59.7862 151.379 59.1111 147.464Z" fill="#0096F2"/>
<path d="M47.5948 138.265C48.1087 140.358 50.8758 149.914 59.6826 155.832C59.1253 153.57 58.3867 150.444 57.9632 148.131C56.6421 146.985 52.3424 142.842 50.7627 136.217C50.0454 136.094 48.7539 136.238 47.5948 138.265ZM61.6249 159.681C61.4281 159.681 61.2305 159.634 61.0488 159.539C47.933 152.697 45.1639 138.904 45.0524 138.32C45.0008 138.05 45.0401 137.77 45.1644 137.524C46.5812 134.72 48.4338 133.925 49.7384 133.752C51.182 133.559 52.2694 134.083 52.3886 134.143C52.7291 134.316 52.972 134.634 53.0478 135.008C54.5101 142.215 59.8223 146.438 59.8757 146.48C60.1195 146.671 60.2857 146.947 60.3382 147.252C60.9966 151.069 62.8126 158.049 62.8309 158.119C62.9551 158.596 62.7868 159.102 62.4014 159.409C62.1762 159.589 61.9015 159.681 61.6249 159.681Z" fill="#000072"/>
<path d="M141.85 147.464C141.85 147.464 147.554 143.039 149.133 135.256C149.133 135.256 152.415 133.597 154.684 138.087C154.684 138.087 152.067 151.793 139.335 158.435C139.335 158.435 141.175 151.379 141.85 147.464Z" fill="#0096F2"/>
<path d="M142.995 148.131C142.571 150.445 141.833 153.57 141.275 155.832C150.082 149.915 152.849 140.359 153.363 138.264C152.661 137.034 151.831 136.348 150.892 136.223C150.629 136.188 150.388 136.203 150.191 136.234C148.609 142.849 144.315 146.986 142.995 148.131ZM139.333 159.681C139.057 159.681 138.782 159.589 138.557 159.409C138.171 159.102 138.003 158.596 138.127 158.119C138.145 158.049 139.962 151.069 140.62 147.252C140.673 146.946 140.838 146.671 141.082 146.48C141.136 146.438 146.448 142.215 147.91 135.008C147.986 134.634 148.229 134.316 148.57 134.144C148.689 134.083 149.776 133.559 151.22 133.752C152.524 133.925 154.377 134.72 155.794 137.524C155.918 137.77 155.957 138.05 155.906 138.32C155.794 138.904 153.025 152.697 139.909 159.539C139.728 159.634 139.53 159.681 139.333 159.681Z" fill="#000072"/>
<path d="M76.2979 115.621C76.2979 115.621 78.4397 121.694 77.8234 130.556L84.8805 136.698C84.8805 136.698 86.7248 125.993 83.5836 117.101L76.2979 115.621Z" fill="#0096F2"/>
<path d="M79.1074 130.02L83.933 134.22C84.2598 130.804 84.5384 124.106 82.6338 118.18L78.0506 117.249C78.6429 119.714 79.4334 124.25 79.1074 130.02ZM84.8822 137.945C84.5861 137.945 84.2944 137.84 84.0641 137.639L77.0071 131.497C76.7123 131.24 76.5549 130.86 76.5819 130.47C77.1708 122.002 75.1443 116.093 75.1238 116.035C74.9757 115.611 75.0659 115.141 75.3606 114.803C75.6555 114.465 76.1092 114.313 76.5475 114.4L83.8331 115.88C84.2623 115.967 84.6142 116.273 84.76 116.686C87.9728 125.78 86.1875 136.46 86.1102 136.91C86.0336 137.354 85.724 137.722 85.2999 137.873C85.1638 137.921 85.0224 137.945 84.8822 137.945Z" fill="#000072"/>
<path d="M124.661 115.621C124.661 115.621 122.519 121.694 123.135 130.556L116.078 136.698C116.078 136.698 114.234 125.993 117.375 117.101L124.661 115.621Z" fill="#0096F2"/>
<path d="M118.325 118.181C116.417 124.118 116.697 130.81 117.025 134.222L121.852 130.021C121.526 124.251 122.316 119.715 122.909 117.25L118.325 118.181ZM116.077 137.946C115.937 137.946 115.796 137.922 115.659 137.874C115.235 137.723 114.926 137.355 114.849 136.911C114.772 136.461 112.986 125.781 116.199 116.687C116.345 116.274 116.697 115.968 117.126 115.881L124.412 114.401C124.852 114.31 125.305 114.466 125.6 114.804C125.894 115.143 125.984 115.613 125.835 116.036C125.803 116.13 123.79 122.028 124.377 130.471C124.404 130.861 124.247 131.241 123.952 131.498L116.895 137.64C116.665 137.841 116.373 137.946 116.077 137.946Z" fill="#000072"/>
<path d="M93.4409 174.051C91.6652 182.775 81.5427 186.766 74.4289 181.419C68.8609 177.237 62.7464 167.672 58.9685 146.697C58.609 144.687 58.2675 142.569 57.9512 140.343L60.356 138.063L76.2982 122.939C76.2982 122.939 92.0031 147.262 93.7429 165.906V165.91C94.0161 168.798 93.9514 171.548 93.4409 174.051Z" fill="#B11313"/>
<g opacity="0.300003">
<g opacity="0.300003">
<path opacity="0.300003" d="M93.4415 174.052C91.6657 182.776 81.5432 186.767 74.4295 181.42C68.8614 177.238 62.7469 167.673 58.969 146.698C53.6525 143.494 51.8264 135.256 51.8264 135.256C49.5331 124.317 52.1787 114.234 52.1787 114.234C51.6753 127.549 56.9581 133.9 59.137 135.939C59.7441 136.507 60.1684 137.24 60.3533 138.051C60.3544 138.055 60.3554 138.06 60.3565 138.064C64.2495 155.296 70.7701 176.289 80.2312 177.792C89.3652 179.241 93.3013 167.339 93.7434 165.911C94.0166 168.799 93.9519 171.549 93.4415 174.052Z" fill="#000072"/>
</g>
</g>
<path d="M77.664 121.776C79.4792 123.754 80.9144 125.96 82.2159 128.239C82.8617 129.381 83.4508 130.553 84.0363 131.726C84.6215 132.9 85.1948 134.08 85.7535 135.267C87.9909 140.015 90.028 144.869 91.7201 149.872C93.4138 154.868 94.7777 160.03 95.275 165.405C95.5142 168.088 95.5289 170.833 95.0731 173.582C94.9744 174.256 94.8303 174.981 94.6084 175.678C94.4072 176.38 94.1216 177.058 93.8125 177.722C93.1673 179.039 92.3076 180.254 91.2824 181.305C89.2108 183.385 86.4736 184.789 83.5674 185.201C82.1182 185.428 80.6297 185.378 79.1853 185.122C77.7419 184.848 76.3481 184.329 75.0738 183.615C74.4506 183.247 73.8229 182.841 73.2813 182.395L72.469 181.728C72.1948 181.509 71.9592 181.255 71.703 181.019C71.4556 180.776 71.1922 180.546 70.9591 180.292L70.2641 179.526C69.7844 179.027 69.3866 178.472 68.9561 177.939C67.2926 175.769 65.9657 173.409 64.8009 171.003C63.6171 168.599 62.7121 166.099 61.8356 163.6C61.0222 161.082 60.2812 158.546 59.6717 155.985C59.3705 154.704 59.047 153.427 58.8012 152.137C58.548 150.848 58.2447 149.568 58.0606 148.268C57.653 145.675 57.4617 143.046 57.6859 140.38C57.6986 140.229 57.831 140.117 57.9817 140.13C58.0867 140.139 58.1728 140.206 58.2112 140.297L58.2144 140.305C58.7325 141.544 59.1245 142.794 59.4625 144.051C59.7953 145.309 60.1402 146.559 60.4016 147.824C60.6516 149.092 60.9445 150.347 61.2203 151.607C61.4822 152.871 61.8197 154.114 62.1345 155.362C62.7712 157.857 63.5332 160.31 64.3592 162.734C65.245 165.13 66.1551 167.522 67.3124 169.774C68.446 172.034 69.739 174.203 71.2584 176.157C71.6508 176.632 72.0148 177.138 72.4441 177.572L73.0658 178.248C73.2737 178.473 73.5052 178.667 73.723 178.879C73.9478 179.081 74.156 179.307 74.3935 179.491L75.0951 180.057C75.5601 180.436 76.0351 180.73 76.5312 181.023C77.5329 181.571 78.612 181.962 79.7276 182.166C80.8442 182.351 81.9934 182.386 83.1157 182.198C85.3683 181.865 87.4873 180.744 89.079 179.132C89.8721 178.321 90.5377 177.386 91.041 176.368C91.2794 175.852 91.5065 175.329 91.663 174.778C91.8389 174.235 91.9512 173.679 92.042 173.067C92.446 170.676 92.45 168.172 92.2321 165.675C92.0114 163.175 91.5676 160.672 90.993 158.19C90.4219 155.707 89.7081 153.245 88.9137 150.805C87.3212 145.924 85.3752 141.138 83.224 136.444C82.687 135.27 82.1351 134.102 81.5711 132.94C81.0101 131.776 80.4193 130.628 79.872 129.456C78.7668 127.118 77.7257 124.742 76.9042 122.23L76.9016 122.222C76.8239 121.985 76.9533 121.729 77.1905 121.652C77.3642 121.595 77.5478 121.65 77.664 121.776Z" fill="#000072"/>
<path d="M62.4564 162.467C62.1209 162.467 61.7861 162.332 61.5406 162.066C61.074 161.56 61.1049 160.773 61.6099 160.306C62.0723 159.878 73.1255 149.819 90.0485 148.554C90.7328 148.499 91.3326 149.017 91.384 149.704C91.4353 150.39 90.9205 150.989 90.2342 151.04C74.2091 152.238 63.4084 162.038 63.3012 162.137C63.0616 162.358 62.7585 162.467 62.4564 162.467Z" fill="#000072"/>
<path d="M107.519 174.051C109.294 182.775 119.417 186.766 126.531 181.419C132.099 177.237 138.213 167.672 141.991 146.697C142.351 144.687 142.692 142.569 143.009 140.343L140.604 138.063L124.662 122.939C124.662 122.939 108.957 147.262 107.217 165.906V165.91C106.944 168.798 107.008 171.548 107.519 174.051Z" fill="#B11313"/>
<g opacity="0.300003">
<g opacity="0.300003">
<path opacity="0.300003" d="M107.518 174.052C109.294 182.776 119.416 186.767 126.53 181.42C132.098 177.238 138.213 167.673 141.991 146.698C147.307 143.494 149.133 135.256 149.133 135.256C151.427 124.317 148.781 114.234 148.781 114.234C149.284 127.549 144.002 133.9 141.823 135.939C141.216 136.507 140.791 137.24 140.606 138.051C140.605 138.055 140.604 138.06 140.603 138.064C136.71 155.296 130.19 176.289 120.728 177.792C111.595 179.241 107.658 167.339 107.216 165.911C106.943 168.799 107.008 171.549 107.518 174.052Z" fill="#000072"/>
</g>
</g>
<path d="M124.055 122.23C123.233 124.742 122.192 127.118 121.087 129.456C120.54 130.628 119.949 131.776 119.388 132.94C118.824 134.102 118.272 135.27 117.735 136.444C115.584 141.138 113.638 145.924 112.045 150.805C111.251 153.245 110.537 155.707 109.966 158.19C109.391 160.672 108.948 163.175 108.727 165.675C108.509 168.172 108.513 170.676 108.917 173.067C109.008 173.679 109.12 174.235 109.296 174.779C109.452 175.329 109.68 175.852 109.918 176.368C110.421 177.386 111.087 178.321 111.88 179.131C113.472 180.744 115.591 181.865 117.843 182.198C118.966 182.386 120.115 182.351 121.231 182.165C122.347 181.962 123.426 181.571 124.428 181.023C124.924 180.73 125.399 180.436 125.864 180.057L126.565 179.491C126.803 179.307 127.011 179.081 127.236 178.879C127.454 178.667 127.685 178.473 127.893 178.248L128.515 177.573C128.944 177.138 129.308 176.632 129.701 176.157C131.22 174.203 132.513 172.034 133.647 169.774C134.804 167.522 135.714 165.13 136.6 162.734C137.426 160.31 138.188 157.857 138.825 155.362C139.139 154.114 139.477 152.871 139.739 151.607C140.015 150.347 140.307 149.092 140.557 147.824C140.819 146.559 141.164 145.309 141.497 144.051C141.835 142.794 142.226 141.544 142.745 140.305L142.748 140.297C142.806 140.158 142.966 140.092 143.106 140.15C143.203 140.191 143.265 140.282 143.273 140.38C143.497 143.046 143.306 145.675 142.898 148.268C142.714 149.568 142.411 150.848 142.158 152.137C141.912 153.428 141.589 154.704 141.287 155.985C140.678 158.546 139.937 161.082 139.124 163.6C138.247 166.099 137.342 168.599 136.158 171.003C134.993 173.409 133.666 175.769 132.003 177.939C131.572 178.472 131.175 179.026 130.695 179.526L130 180.292C129.767 180.546 129.503 180.776 129.256 181.019C129 181.255 128.764 181.509 128.49 181.728L127.678 182.394C127.136 182.841 126.508 183.247 125.885 183.615C124.611 184.329 123.217 184.848 121.774 185.122C120.329 185.378 118.841 185.428 117.392 185.201C114.485 184.789 111.748 183.385 109.677 181.305C108.651 180.254 107.792 179.039 107.146 177.722C106.837 177.058 106.552 176.38 106.351 175.678C106.129 174.981 105.984 174.256 105.886 173.582C105.43 170.833 105.445 168.088 105.684 165.405C106.181 160.03 107.545 154.868 109.239 149.872C110.931 144.869 112.968 140.015 115.205 135.267C115.764 134.08 116.337 132.9 116.923 131.726C117.508 130.553 118.097 129.381 118.743 128.239C120.045 125.96 121.48 123.754 123.295 121.776C123.464 121.592 123.75 121.58 123.934 121.748C124.068 121.872 124.111 122.059 124.058 122.222L124.055 122.23Z" fill="#000072"/>
<path d="M138.503 162.467C138.2 162.467 137.897 162.358 137.658 162.136C137.55 162.037 126.75 152.238 110.725 151.039C110.038 150.988 109.524 150.39 109.575 149.703C109.626 149.017 110.225 148.498 110.91 148.553C127.833 149.819 138.887 159.877 139.349 160.305C139.854 160.772 139.885 161.561 139.418 162.066C139.172 162.332 138.838 162.467 138.503 162.467Z" fill="#000072"/>
<path d="M100.497 110.897C133.088 110.897 146.028 96.6552 146.028 96.6552C146.028 96.6552 146.571 97.8815 146.835 99.6244C147.273 102.51 146.048 105.405 143.715 107.158C138.587 111.012 125.529 118.355 100.481 118.355C75.4316 118.355 62.374 111.012 57.2461 107.158C54.9132 105.405 53.6882 102.51 54.1258 99.6244C54.3901 97.8815 54.9331 96.6552 54.9331 96.6552C54.9331 96.6552 67.8733 110.897 100.464 110.897" fill="#751313"/>
<g opacity="0.300003">
<g opacity="0.300003">
<path opacity="0.300003" d="M146.716 98.9568C146.296 100.767 145.246 102.412 143.714 103.563C138.586 107.417 125.529 114.76 100.48 114.76C75.4311 114.76 62.3735 107.417 57.2455 103.563C55.7136 102.412 54.6637 100.767 54.2444 98.9568C54.2011 99.1694 54.1606 99.3922 54.1253 99.6249C53.6876 102.511 54.9127 105.406 57.2455 107.159C62.3735 111.013 75.4311 118.356 100.48 118.356C125.529 118.356 138.586 111.013 143.714 107.159C146.047 105.406 147.272 102.511 146.835 99.6249C146.799 99.3922 146.759 99.1694 146.716 98.9568Z" fill="#000072"/>
</g>
</g>
<path d="M100.479 119.603C75.464 119.603 62.1853 112.43 56.4966 108.155C53.769 106.105 52.388 102.765 52.8927 99.4381C53.1786 97.5513 53.7674 96.207 53.7924 96.1509C53.9631 95.7653 54.3168 95.4921 54.7328 95.425C55.1481 95.3569 55.5704 95.5051 55.854 95.817C55.979 95.9535 68.8973 109.651 100.463 109.651V112.144C73.503 112.144 59.8274 102.631 55.5247 98.9261C55.4626 99.1993 55.4045 99.4964 55.3565 99.8118C54.9899 102.231 56.0002 104.664 57.9936 106.162C63.4338 110.25 76.1877 117.109 100.479 117.109C124.771 117.109 137.525 110.25 142.965 106.162C144.958 104.664 145.969 102.231 145.602 99.8118C145.554 99.4964 145.496 99.1993 145.434 98.9261C141.131 102.631 127.456 112.144 100.496 112.144V109.651C132.169 109.651 144.979 95.9552 145.105 95.817C145.388 95.5051 145.81 95.3576 146.226 95.425C146.642 95.4921 146.996 95.7653 147.166 96.1509C147.191 96.207 147.78 97.5513 148.066 99.4381C148.571 102.765 147.19 106.106 144.462 108.155C138.774 112.43 125.495 119.603 100.479 119.603Z" fill="#000072"/>
<g opacity="0.3">
<path d="M1.96426 16.8507C1.96426 16.8507 2.66284 19.8543 0.34668 23.2077C0.34668 23.2077 4.13067 23.0922 5.95048 25.5771C5.95048 25.5771 5.34385 21.9652 7.94355 19.2202C7.94355 19.2202 4.39063 19.8558 1.96426 16.8507Z" fill="white"/>
</g>
<path d="M54.96 107.195L75.0543 152.954" stroke="#000072" stroke-miterlimit="10"/>
<path d="M125.033 152.954L145.554 107.195" stroke="#000072" stroke-miterlimit="10"/>
<path fill-rule="evenodd" clip-rule="evenodd" d="M99.0025 125.882C98.9942 125.992 98.9273 126.091 98.8828 126.199C98.8397 126.304 98.8002 126.416 98.763 126.527C98.6659 126.814 98.5751 127.097 98.5833 127.469C98.9148 127.512 99.3325 127.48 99.6314 127.438C99.7948 127.51 99.8997 127.623 100.051 127.704C100.022 127.565 100.158 127.539 100.275 127.499C100.223 127.559 100.143 127.6 100.17 127.714C100.239 127.746 100.25 127.663 100.305 127.653C100.382 127.713 100.48 127.71 100.56 127.653C100.617 127.662 100.601 127.72 100.664 127.725C100.753 127.645 100.626 127.559 100.59 127.499C100.701 127.539 100.827 127.569 100.814 127.694C100.935 127.644 101.082 127.522 101.203 127.438C101.515 127.483 101.914 127.504 102.281 127.479C102.269 126.856 102.048 126.376 101.832 125.892C101.892 125.887 101.892 125.94 101.907 125.963C102.13 126.293 102.328 126.669 102.491 127.069C102.515 127.127 102.555 127.206 102.581 127.284C102.604 127.353 102.653 127.471 102.641 127.51C102.615 127.594 102.412 127.622 102.371 127.694C102.247 127.593 101.888 127.622 101.548 127.612C101.452 127.609 101.323 127.59 101.263 127.602C101.133 127.627 101.076 127.758 101.009 127.827C101.193 127.836 101.339 127.713 101.503 127.704C101.607 127.698 101.759 127.752 101.892 127.776C102.278 127.846 102.709 127.905 103.06 127.981C103.081 127.157 102.772 126.471 102.356 125.912C102.769 126.302 103.048 126.758 103.255 127.295C103.29 127.387 103.321 127.476 103.345 127.571C103.377 127.705 103.379 127.871 103.479 127.97C103.355 128.063 103.206 128.138 103.075 128.226C102.707 128.076 101.996 127.86 101.398 127.899C101.255 127.908 101.128 127.957 101.024 128.022C101.207 128.072 101.333 128.076 101.578 128.073C101.639 128.072 101.727 128.055 101.772 128.063C101.824 128.072 101.908 128.145 101.982 128.196C102.414 128.491 102.801 128.708 103.315 128.943C103.475 129.017 103.565 129.091 103.749 128.994C103.779 129.966 103.402 130.683 102.94 131.339C102.886 131.415 102.852 131.504 102.761 131.564C103.108 131.004 103.374 130.338 103.374 129.558C103.374 129.476 103.397 129.374 103.374 129.302C103.342 129.199 103.106 129.091 102.97 129.005C102.583 128.76 102.276 128.589 101.847 128.359C101.763 128.315 101.692 128.254 101.623 128.237C101.55 128.219 101.435 128.215 101.353 128.206C101.251 128.195 101.153 128.192 101.069 128.185C101.234 128.307 101.497 128.458 101.727 128.575C101.77 128.6 101.814 128.565 101.862 128.564C101.917 129.706 101.793 130.824 101.323 131.657C101.211 131.855 101.087 132.051 100.889 132.199C101.528 131.411 101.576 130.058 101.443 128.871C101.579 128.791 101.52 128.724 101.398 128.626C101.265 128.518 101.029 128.361 100.874 128.308C100.863 128.362 100.89 128.414 100.919 128.462C100.948 128.51 101.013 128.552 101.024 128.595C101.046 128.687 100.992 128.888 100.964 128.994C100.871 129.348 100.676 129.735 100.5 129.998C100.438 129.992 100.481 129.915 100.44 129.895C100.373 129.898 100.414 129.973 100.38 129.998C100.174 129.757 99.9978 129.359 99.9008 128.994C99.8663 128.864 99.8124 128.707 99.841 128.595C99.8637 128.506 100.004 128.425 99.9907 128.319C99.8537 128.34 99.7259 128.433 99.6164 128.513C99.5074 128.593 99.3941 128.678 99.317 128.769C99.3262 128.814 99.39 128.821 99.4068 128.861C99.3086 130.061 99.3118 131.412 99.9757 132.189C99.9057 132.182 99.8732 132.122 99.841 132.087C99.2229 131.41 99.0568 130.368 98.9876 129.291C98.9723 129.053 98.9565 128.821 99.0025 128.585C99.0153 128.535 99.0923 128.609 99.1373 128.575C99.3736 128.453 99.5865 128.315 99.811 128.185C99.6155 128.206 99.403 128.199 99.2271 128.247C99.0745 128.288 98.9075 128.402 98.763 128.482C98.3234 128.727 97.8605 128.993 97.4903 129.271C97.4148 130.185 97.7208 130.921 98.0892 131.564C97.5577 130.856 97.0645 130.068 97.116 128.994C97.3185 129.126 97.6269 128.912 97.7898 128.831C98.2431 128.604 98.7272 128.311 99.0775 128.063C99.331 128.088 99.6288 128.067 99.841 128.032C99.5765 127.801 98.8984 127.917 98.4935 128.001C98.2218 128.058 97.9683 128.139 97.8047 128.226C97.6493 128.155 97.5304 128.059 97.3855 127.981C97.4915 127.799 97.5141 127.493 97.5952 127.284C97.7931 126.776 98.1018 126.326 98.4784 125.912C98.4685 125.991 98.3889 126.059 98.3438 126.127C98.0156 126.626 97.7996 127.245 97.7898 127.97C98.1358 127.917 98.5488 127.851 98.9576 127.776C99.0909 127.751 99.2289 127.702 99.3319 127.704C99.4983 127.708 99.6547 127.826 99.841 127.827C99.7968 127.731 99.7123 127.662 99.6164 127.602C99.308 127.626 98.9636 127.588 98.6882 127.622C98.66 127.626 98.6232 127.637 98.5833 127.653C98.5869 127.652 98.4943 127.694 98.5085 127.694C98.4462 127.694 98.2941 127.546 98.224 127.53C98.3679 126.901 98.6926 126.397 99.0025 125.882Z" fill="#000072"/>
<path fill-rule="evenodd" clip-rule="evenodd" d="M100.48 119.602V137.282V119.602Z" fill="#000072"/>
<path d="M100.48 119.602V137.282" stroke="#000072" stroke-miterlimit="10"/>
<path d="M94.966 119.483C94.966 119.483 95.9375 133.966 94.5146 136.53" stroke="#000072" stroke-miterlimit="10"/>
<path d="M90.5991 119.204C90.5991 119.204 92.79 125.905 89.624 134.957" stroke="#000072" stroke-miterlimit="10"/>
<path d="M105.518 119.603C105.518 119.603 104.502 132.436 105.971 136.806" stroke="#000072" stroke-miterlimit="10"/>
<path d="M110.7 119.204C110.7 119.204 108.377 131.93 111.826 134.957" stroke="#000072" stroke-miterlimit="10"/>
<path d="M86.0596 121.749C86.0596 121.749 88.2472 119.66 91.1203 121.749C91.1203 121.749 92.6178 119.676 95.1081 122.034C95.1081 122.034 96.4662 119.452 100.464 121.749C100.464 121.749 102.151 119.591 105.178 121.749C105.178 121.749 107.556 119.353 110.342 121.63C110.342 121.63 112.825 118.926 114.975 121.341" stroke="#000072" stroke-miterlimit="10"/>
<path d="M100.163 125.066C100.085 125.01 100.007 124.958 99.9302 124.909C97.2074 123.163 95.2317 125.114 95.2317 125.114C93.2119 123.017 91.3389 125.114 91.3389 125.114C88.1992 121.45 86.5039 125.114 86.5039 125.114" stroke="#000072" stroke-miterlimit="10"/>
<path d="M100.084 125.106C100.084 125.106 102.566 123.115 105.177 125.106C105.177 125.106 107.714 122.642 109.935 125.216C109.935 125.216 113.231 122.678 114.461 125.165" stroke="#000072" stroke-miterlimit="10"/>
<path d="M86.5039 131.234C86.5039 131.234 88.5184 127.914 90.6385 131.516C90.6385 131.516 94.4407 128.888 95.2498 132.558C95.2498 132.558 98.3982 130.956 100.599 133.592C100.599 133.592 102.93 130.864 105.63 132.945C105.63 132.945 107.433 128.773 110.485 131.991C110.485 131.991 112.366 128.512 114.462 130.497" stroke="#000072" stroke-miterlimit="10"/>
<path d="M86.2979 133.22C86.2979 133.22 88.9212 130.558 90.0684 133.593C90.0684 133.593 93.8471 131.884 94.9021 134.957C94.9021 134.957 98.8067 132.909 100.432 136.187C100.432 136.187 102.743 134.009 105.52 135.488C105.52 135.488 108.072 131.647 111.027 133.915C111.027 133.915 113.129 130.322 114.387 132.559" stroke="#000072" stroke-miterlimit="10"/>
<path d="M63.3018 162.136C63.3018 162.136 74.9289 149.91 89.6257 151.09L92.9665 161.355C92.9665 161.355 89.3554 176.596 66.5901 171.46L63.3018 162.136Z" fill="#000072"/>
<path d="M63.3018 162.136C63.3018 162.136 74.9289 149.909 89.6257 151.09L92.9665 161.355C92.9665 161.355 89.3554 176.596 66.5901 171.46L63.3018 162.136Z" stroke="#000072" stroke-miterlimit="10"/>
<path d="M107.457 163.878L110.881 149.315L127.014 154.222L136.627 159.682V163.878L134.37 171.461C134.37 171.461 118.218 176.78 107.457 163.878Z" fill="#000072"/>
<path d="M107.457 163.878L110.881 149.315L127.014 154.222L136.627 159.682V163.878L134.37 171.461C134.37 171.461 118.218 176.78 107.457 163.878Z" stroke="#000072" stroke-miterlimit="10"/>
<path d="M25.8096 144.482L38.23 176.698" stroke="#000072" stroke-miterlimit="10"/>
<path d="M22.5869 148.55C22.5869 148.55 24.7331 163.462 34.1015 176.456" stroke="#000072" stroke-miterlimit="10"/>
<path d="M30.8525 143.243C30.8525 143.243 40.5536 159.718 42.0524 176.959" stroke="#000072" stroke-miterlimit="10"/>
<path d="M37.0771 144.482C37.0771 144.482 42.9608 156.215 46.2779 176.698" stroke="#000072" stroke-miterlimit="10"/>
<path d="M21.2686 155.508C21.2686 155.508 21.2931 152.208 23.6378 153.488C23.6378 153.488 24.5103 147.717 28.343 151.381C28.343 151.381 28.4882 145.523 33.8444 149.035C33.8444 149.035 35.3721 144.736 38.5804 148.549C38.5804 148.549 40.1716 147.67 41.1955 149.653" stroke="#000072" stroke-miterlimit="10"/>
<path d="M22.959 150.566C22.959 150.566 23.7813 146.299 27.0548 147.713C27.0548 147.713 27.7029 144.205 32.0197 145.372C32.0197 145.372 32.6549 143.078 37.7771 146.01" stroke="#000072" stroke-miterlimit="10"/>
<path d="M21.7256 157.264C21.7256 157.264 21.9063 153.957 24.407 156.258C24.407 156.258 25.1948 150.533 29.5637 154.222C29.5637 154.222 29.6806 148.616 34.7644 151.784C34.7644 151.784 36.6349 148.654 39.8948 151.381C39.8948 151.381 40.477 149.752 42.1037 151.381" stroke="#000072" stroke-miterlimit="10"/>
<path d="M21.7256 160.101C21.7256 160.101 22.7405 156.921 25.5173 159.681C25.5173 159.681 27.2166 154.489 30.8519 158.003C30.8519 158.003 32.3164 151.073 36.7757 155.832C36.7757 155.832 37.4692 151.308 41.0158 154.655C41.0158 154.655 41.285 151.877 43.1548 154.108" stroke="#000072" stroke-miterlimit="10"/>
<path d="M22.5869 162.503C22.5869 162.503 23.5312 159.884 26.2827 161.764C26.2827 161.764 29.2742 157.63 32.0196 160.591C32.0196 160.591 34.9657 156.141 37.777 159.523C37.777 159.523 39.2392 155.348 42.1304 158.254C42.1304 158.254 43.2018 156.698 44.0672 158.044" stroke="#000072" stroke-miterlimit="10"/>
<path d="M23.582 165.585C23.582 165.585 25.2451 162.732 27.3714 164.436C27.3714 164.436 29.2346 161.184 33.2946 163.893C33.2946 163.893 35.2267 159.491 39.2023 162.815C39.2023 162.815 40.64 159.07 43.1568 162.466C43.1568 162.466 43.1663 158.831 44.9284 160.59" stroke="#000072" stroke-miterlimit="10"/>
<path d="M24.8037 169.183V168.267C24.8037 168.267 25.9178 164.93 28.5855 167.107C28.5855 167.107 31.3399 163.949 34.2544 166.386C34.2544 166.386 37.2662 162.442 39.9906 165.586C39.9906 165.586 41.631 162.139 44.0679 165.573" stroke="#000072" stroke-miterlimit="10"/>
<path d="M26.8799 170.302C26.8799 170.302 26.9831 168.526 29.6259 169.183C29.6259 169.183 32.4587 167.036 35.2753 169.037C35.2753 169.037 37.2626 165.511 40.6351 168.184C40.6351 168.184 42.9704 165.436 44.5684 167.763" stroke="#000072" stroke-miterlimit="10"/>
<path d="M28.3457 172.518C28.3457 172.518 29.3666 170.964 31.2347 172.066C31.2347 172.066 33.6601 169.712 36.2931 171.671C36.2931 171.671 38.1247 168.894 41.2059 170.892C41.2059 170.892 43.1596 168.36 45.1099 170.302" stroke="#000072" stroke-miterlimit="10"/>
<path d="M30.3701 174.092C30.3701 174.092 30.6905 172.447 32.4429 174.02C32.4429 174.02 34.4898 172.705 37.078 174.092C37.078 174.092 39.9008 172.322 41.6784 173.715C41.6784 173.715 43.9894 171.979 45.5251 173.636" stroke="#000072" stroke-miterlimit="10"/>
<path d="M33.3281 175.242C33.3281 175.242 34.6894 173.812 37.778 175.524C37.778 175.524 39.4732 174.489 41.026 174.854C41.2477 174.906 41.4667 174.987 41.6773 175.104" stroke="#000072" stroke-miterlimit="10"/>
<path d="M41.9092 175.533C41.9092 175.533 43.4796 174.163 46.1473 175.107" stroke="#000072" stroke-miterlimit="10"/>
<path d="M44.928 160.109C44.4594 161.174 46.2777 177.938 46.2777 177.938H68.9574L68.4745 176.698L63.3015 166.826L60.0636 157.554C52.7262 156.513 45.524 139.324 45.524 139.324L40.417 144.757L41.6773 147.712L44.0683 153.24L44.928 160.109Z" fill="#000072"/>
<path d="M174.215 143.703L163.113 176.698" stroke="#000072" stroke-miterlimit="10"/>
<path d="M177.164 147.731C177.164 147.731 175.19 168.786 165.925 177.204" stroke="#000072" stroke-miterlimit="10"/>
<path d="M169.939 143.502C169.939 143.502 162.42 161.567 158.85 176.899" stroke="#000072" stroke-miterlimit="10"/>
<path d="M163.689 145.086C163.689 145.086 158.217 155.351 155.378 178.809" stroke="#000072" stroke-miterlimit="10"/>
<path d="M179.011 153.293C179.011 153.293 178.412 150.374 176.515 152.339C176.515 152.339 175.723 147.122 171.981 150.343C171.981 150.343 170.925 145.896 167.641 149.314C167.641 149.314 165.085 145.064 161.902 149.314C161.902 149.314 161.244 148.238 159.704 149.653" stroke="#000072" stroke-miterlimit="10"/>
<path d="M179.201 156.247C179.201 156.247 178.499 153.383 175.911 155.508C175.911 155.508 174.406 151.92 170.675 154.222C170.675 154.222 169.8 150.587 165.923 152.954C165.923 152.954 164.777 150.187 160.916 152.154C160.916 152.154 160.012 150.404 158.395 152.308" stroke="#000072" stroke-miterlimit="10"/>
<path d="M179.203 159.681C179.203 159.681 177.725 156.597 175.2 158.594C175.2 158.594 172.84 155.25 169.43 157.921C169.43 157.921 168.14 154.661 164.862 156.886C164.862 156.886 163.184 153.292 159.703 155.832C159.703 155.832 159.065 153.937 156.534 155.508" stroke="#000072" stroke-miterlimit="10"/>
<path d="M178.593 162.467C178.593 162.467 177.722 159.418 174.275 161.947C174.275 161.947 171.926 158.032 168.419 160.93C168.419 160.93 166.903 156.942 163.689 160.2C163.689 160.2 162.676 156.955 158.849 159.421C158.849 159.421 158.289 156.882 156.656 159.061C155.022 161.239 156.224 159.02 156.224 159.02" stroke="#000072" stroke-miterlimit="10"/>
<path d="M177.667 165.493C177.667 165.493 176.42 162.089 173.346 164.762C173.346 164.762 171.423 161.982 167.474 163.738C167.474 163.738 165.086 160.87 162.318 163.736C162.318 163.736 160.433 160.821 157.958 163.25C157.958 163.25 156.994 158.466 154.667 163.089" stroke="#000072" stroke-miterlimit="10"/>
<path d="M175.781 167.854C175.781 167.854 175.705 164.744 172.389 167.245C172.389 167.245 170.203 164.194 166.357 167.063C166.357 167.063 164.277 163.923 161.464 167.241C161.464 167.241 159.547 164.198 157.17 167.144C157.17 167.144 157.095 162.072 153.887 166.048" stroke="#000072" stroke-miterlimit="10"/>
<path d="M174.216 170.485C174.216 170.485 173.722 168.789 171.074 170.099C171.074 170.099 168.196 167.938 165.353 170.044C165.353 170.044 163.711 167.735 160.707 169.804C160.707 169.804 158.235 167.648 156.536 169.714C156.536 169.714 156.686 165.857 153.081 168.819" stroke="#000072" stroke-miterlimit="10"/>
<path d="M172.307 172.546C172.307 172.546 171.9 170.631 169.7 172.546C169.7 172.546 167.202 170.866 164.393 172.896C164.393 172.896 161.629 171.144 159.85 172.896C159.85 172.896 157.945 170.312 155.929 172.896C155.929 172.896 155.312 169.481 153.364 172.295" stroke="#000072" stroke-miterlimit="10"/>
<path d="M170.626 173.531C170.626 173.531 169.714 172.696 168.799 173.905C168.799 173.905 165.146 172.832 163.689 174.987C163.689 174.987 162.12 173.277 159.31 174.987C159.31 174.987 157.937 172.462 155.878 174.987C155.878 174.987 154.744 171.63 152.618 174.987" stroke="#000072" stroke-miterlimit="10"/>
<path d="M141.645 157.284L148.934 150.256L154.667 140.528L155.377 138.369L160.19 143.703L160.567 146.353L157.958 149.315L156.535 152.954L155.928 157.284V159.609L155.879 161.16C155.879 161.16 153.389 172.898 154.667 177.518L132.467 178.068L131.743 176.698L135.369 169.653L139.349 160.305L141.645 157.284Z" fill="#000072"/>
<path d="M137.571 111.717C137.571 111.717 119.805 146.204 117.81 155.833" stroke="#000072" stroke-miterlimit="10"/>
<path d="M131.903 114.365C131.903 114.365 114.536 149.139 116.072 152.081" stroke="#000072" stroke-miterlimit="10"/>
<path d="M148.485 112.465C148.485 112.465 135.281 148.44 129.14 156.847" stroke="#000072" stroke-miterlimit="10"/>
<path d="M124.66 119.603C124.66 119.603 128.678 115.349 129.671 118.9C129.671 118.9 132.369 114.926 134.567 117.648C134.567 117.648 139.802 113.431 140.641 118.149C140.641 118.149 145.4 114.397 145.797 119.603C145.797 119.603 147.525 119.114 147.483 123.487C147.483 123.487 149.036 126.884 148.585 128.204" stroke="#000072" stroke-miterlimit="10"/>
<path d="M131.279 115.621C131.279 115.621 134.425 112.779 136.221 114.365C136.221 114.365 140.454 110.072 142.662 113.643C142.662 113.643 146.848 112.903 146.922 116.646C146.922 116.646 148.617 118.774 148.485 119.602C148.485 119.602 146.545 132.643 142.834 140.393C142.834 140.393 137.913 157.28 132.903 158.632" stroke="#000072" stroke-miterlimit="10"/>
<path d="M124.059 122.222C124.059 122.222 126.574 119.081 128.066 122.222C128.066 122.222 131.754 118.665 131.904 122.222C131.904 122.222 137.726 119.406 138.494 122.939C138.494 122.939 142.793 119.874 143.662 125.115C143.662 125.115 147.795 123.569 146.484 128.902C146.484 128.902 148.777 128.302 148.345 131.655" stroke="#000072" stroke-miterlimit="10"/>
<path d="M121.792 126.148C121.792 126.148 125.447 122.732 125.907 126.752C125.907 126.752 129.447 123.305 129.64 127.662C129.64 127.662 135.964 124.415 135.82 128.901C135.82 128.901 140.237 127.493 141.03 131.715C141.03 131.715 144.846 130.442 145.243 134.005C145.243 134.005 148.057 133.83 147.794 136.104" stroke="#000072" stroke-miterlimit="10"/>
<path d="M119.851 130.498C119.851 130.498 122.667 125.794 124.379 130.47C124.379 130.47 126.657 128.414 127.691 131.327C127.691 131.327 133.231 129.478 133.716 133.592C133.716 133.592 137.465 131.236 139.334 134.957C139.334 134.957 143.682 134.239 144.315 136.805C144.315 136.805 146.298 136.188 147.009 138.369" stroke="#000072" stroke-miterlimit="10"/>
<path d="M118.74 133.223C118.74 133.223 121.347 131.86 122.123 134.957C122.123 134.957 124.823 132.595 125.907 135.429C125.907 135.429 130.326 133.738 131.743 137.283C131.743 137.283 136.531 135.467 138.087 138.811C138.087 138.811 141.334 137.947 143.105 140.15C143.105 140.15 145.259 139.341 145.553 141.541" stroke="#000072" stroke-miterlimit="10"/>
<path d="M116.874 136.861C116.874 136.861 120.487 134.175 120.481 138.68C120.481 138.68 123.62 136.458 124.058 139.232C124.058 139.232 128.944 137.815 130.152 141.541C130.152 141.541 134.22 138.575 136.228 143.101C136.228 143.101 140.414 140.86 141.363 144.554" stroke="#000072" stroke-miterlimit="10"/>
<path d="M115.54 141.174C115.54 141.174 118.332 138.162 119.265 141.541C119.265 141.541 121.835 139.364 122.784 142.454C122.784 142.454 127.281 141.206 128.8 144.554C128.8 144.554 132.836 142.821 134.801 146.263C134.801 146.263 138.291 144.038 140.093 147.426" stroke="#000072" stroke-miterlimit="10"/>
<path d="M114.285 144.018C114.285 144.018 117.147 142.247 118.048 144.554C118.048 144.554 120.554 142.821 121.519 145.396C121.519 145.396 126.435 144.384 127.198 147.426C127.198 147.426 131.685 146.142 133.428 149.171C133.428 149.171 136.837 147.963 138.811 150.36C138.811 150.36 139.61 149.881 139.609 152.081" stroke="#000072" stroke-miterlimit="10"/>
<path d="M113.194 146.696C113.194 146.696 116.252 145.127 116.872 147.138C116.872 147.138 120.154 145.823 120.418 148.074C120.418 148.074 125.983 146.814 126.313 150.097C126.313 150.097 131.24 148.621 131.968 152.081C131.968 152.081 136.239 150.323 137.183 154.222C137.183 154.222 138.849 153.432 139.332 155.833" stroke="#000072" stroke-miterlimit="10"/>
<path d="M60.5742 109.206C60.5742 109.206 76.4114 135.248 80.1123 152.081" stroke="#000072" stroke-miterlimit="10"/>
<path d="M69.6582 114.234C69.6582 114.234 81.4899 135.916 85.4181 150.266" stroke="#000072" stroke-miterlimit="10"/>
<path d="M52.9541 113.339C52.9541 113.339 66.7466 152.457 71.2632 155.508" stroke="#000072" stroke-miterlimit="10"/>
<path d="M52.4033 120.642C52.4033 120.642 63.5586 155.501 66.8862 157.284" stroke="#000072" stroke-miterlimit="10"/>
<path d="M53.9512 114.914C53.9512 114.914 54.2589 110.822 57.5915 113.192C57.5915 113.192 58.9193 110.26 62.6946 112.818C62.6946 112.818 63.697 111.249 66.8859 112.527" stroke="#000072" stroke-miterlimit="10"/>
<path d="M53.1514 122.938C53.1514 122.938 53.4501 120.059 55.8018 121.185C55.8018 121.185 56.5297 117.195 60.5767 119.984C60.5767 119.984 61.3277 115.787 65.7949 118.355C65.7949 118.355 68.6022 114.677 71.8354 118.355C71.8354 118.355 74.2012 116.157 75.929 118.355" stroke="#000072" stroke-miterlimit="10"/>
<path d="M52.4033 119.482C52.4033 119.482 53.4407 117.73 54.6868 118.356C54.6868 118.356 56.0302 114.546 58.9315 116.243C58.9315 116.243 60.77 113.481 64.0877 115.273C64.0877 115.273 67.542 113.682 69.6592 114.668" stroke="#000072" stroke-miterlimit="10"/>
<path d="M52.0254 128.398C52.0254 128.398 52.4242 126.461 54.6871 127.576C54.6871 127.576 54.9989 124.646 57.592 126.16C57.592 126.16 58.2572 122.139 62.8722 124.629C62.8722 124.629 63.3381 119.936 68.2361 122.939C68.2361 122.939 70.3902 119.341 73.6528 121.935C73.6528 121.935 74.0165 119.886 76.5164 121.629" stroke="#000072" stroke-miterlimit="10"/>
<path d="M52.4033 132.925C52.4033 132.925 53.4357 129.718 56.0708 131.656C56.0708 131.656 56.6157 128.236 59.3245 130.498C59.3245 130.498 61.3314 127.355 64.2705 128.902C64.2705 128.902 66.9149 124.638 70.3436 127.081C70.3436 127.081 72.8334 123.797 75.5213 125.736C75.5213 125.736 75.617 124.483 78.1609 125.115" stroke="#000072" stroke-miterlimit="10"/>
<path d="M53.167 136.104C53.167 136.104 53.8763 132.808 57.2158 134.957C57.2158 134.957 58.7665 132.702 60.7868 134.22C60.7868 134.22 62.5248 130.406 66.1155 132.6C66.1155 132.6 68.5259 129.127 72.3974 131.314C72.3974 131.314 74.1666 128.414 77.5748 130.075C77.5748 130.075 77.2855 128.371 79.8738 129.456" stroke="#000072" stroke-miterlimit="10"/>
<path d="M54.4775 139.325C54.4775 139.325 55.255 136.432 57.9505 137.884C57.9505 137.884 59.5565 134.857 61.9961 137.139C61.9961 137.139 63.0716 133.29 67.6358 135.921C67.6358 135.921 69.8137 132.561 73.8261 134.205C73.8261 134.205 75.4191 131.028 79.011 132.971C79.011 132.971 79.7576 131.394 81.571 132.655" stroke="#000072" stroke-miterlimit="10"/>
<path d="M54.6865 142.197C54.6865 142.197 55.7804 138.493 58.7682 139.325C58.7682 139.325 61.4528 137.879 62.806 139.203C62.806 139.203 66.6657 136.303 68.6476 138.369C68.6476 138.369 72.6358 135.216 75.0527 137.224C75.0527 137.224 77.7761 134.936 80.442 136.53C80.442 136.53 81.9027 134.918 83.707 136.105" stroke="#000072" stroke-miterlimit="10"/>
<path d="M85.4191 140.528C85.4191 140.528 82.6413 136.857 81.9966 140.311C81.9966 140.311 77.2548 137.469 76.8077 141.541C76.8077 141.541 72.1498 138.042 70.5116 142.613C70.5116 142.613 65.7487 139.994 64.5381 143.682C64.5381 143.682 61.5005 140.504 61.0312 144.555C61.0312 144.555 59.4453 143.949 59.168 145.521" stroke="#000072" stroke-miterlimit="10"/>
<path d="M86.6728 143.682C86.6728 143.682 84.1045 140.845 83.4213 144.061C83.4213 144.061 79.6462 141.577 78.0494 144.936C78.0494 144.936 73.9782 142.878 72.3962 146.696C72.3962 146.696 68.0412 144.267 66.8858 148.454C66.8858 148.454 63.8949 147.243 62.8715 150.265C62.8715 150.265 61.3338 149.858 60.5742 152.081" stroke="#000072" stroke-miterlimit="10"/>
<path d="M87.27 146.113C87.27 146.113 85.3318 142.61 84.4265 146.972C84.4265 146.972 82.0212 145.476 79.2048 148.549C79.2048 148.549 75.6024 147.316 73.625 149.701C73.625 149.701 70.7718 148.916 68.7015 151.009C68.5878 151.124 68.4765 151.248 68.3682 151.381" stroke="#000072" stroke-miterlimit="10"/>
<path d="M68.4752 151.248C68.4752 151.248 65.8144 151.006 64.4322 153.488C64.4322 153.488 62.5122 153.57 61.6257 155.833C60.7392 158.096 61.2097 155.508 61.2097 155.508" stroke="#000072" stroke-miterlimit="10"/>
<path fill-rule="evenodd" clip-rule="evenodd" d="M100.242 17.1936C130.805 17.1936 154.316 49.0145 154.316 75.585C154.316 102.156 111.222 112.893 100.242 113.417C89.2615 113.941 43.9277 101.377 43.9277 74.8058C43.9277 48.2348 69.6794 17.1936 100.242 17.1936Z" fill="#FF850B"/>
<path d="M100.243 18.4858C69.7639 18.4858 45.2203 49.2962 45.2203 74.806C45.2203 81.4394 48.234 87.6775 54.1781 93.3468C67.4182 105.975 91.5749 112.14 99.562 112.14C99.7815 112.14 99.9871 112.136 100.182 112.126C105.969 111.85 119.3 108.871 130.82 103.113C140.95 98.0494 153.025 89.1634 153.025 75.585C153.025 49.18 129.969 18.4858 100.243 18.4858ZM99.5947 114.724C91.0266 114.724 66.3339 108.512 52.3956 95.2173C45.9203 89.041 42.6367 82.1737 42.6367 74.806C42.6367 61.5061 49.007 46.6843 59.6771 35.1578C71.0055 22.9203 85.7912 15.9016 100.243 15.9016C114.785 15.9016 128.805 22.8912 139.72 35.5828C149.669 47.1508 155.609 62.1048 155.609 75.585C155.609 87.3779 147.436 97.6963 131.975 105.425C120.118 111.351 106.317 114.421 100.304 114.708C100.083 114.718 99.845 114.724 99.5947 114.724Z" fill="#000072"/>
<g opacity="0.5">
<g opacity="0.5">
<path opacity="0.5" fill-rule="evenodd" clip-rule="evenodd" d="M100.242 17.1947C119.026 17.1947 135.144 29.2163 144.779 44.6495C144.879 45.1483 144.976 45.649 145.06 46.1538C136.264 33.2548 122.548 24.7491 107.358 22.4546C108.332 22.8227 108.897 23.2598 108.897 23.729C108.897 25.0405 104.481 26.1036 99.0343 26.1036C93.5881 26.1036 89.1725 25.0405 89.1725 23.729C89.1725 23.2598 89.7362 22.8227 90.7107 22.4546C75.5203 24.7496 61.8059 33.2558 53.0093 46.1538L53.0579 45.8819C63.2011 29.8322 80.7418 17.1947 100.242 17.1947Z" fill="white"/>
</g>
</g>
<path fill-rule="evenodd" clip-rule="evenodd" d="M152.864 83.7492C145.265 104.384 110.019 112.951 100.242 113.417C90.5641 113.879 54.2096 104.172 45.7158 83.6736C46.367 72.5083 52.0375 69.4567 62.5242 74.913C66.8366 77.1563 71.2237 79.4963 74.6997 77.7146C94.5416 67.5413 106.657 69.4592 120.238 77.7146C126.589 81.5754 132.787 75.8163 136.676 74.0606C149.06 68.4667 154.743 72.3791 152.864 83.7492Z" fill="white"/>
<g opacity="0.300003">
<g opacity="0.300003">
<path opacity="0.300003" fill-rule="evenodd" clip-rule="evenodd" d="M154.081 70.944C154.234 72.5033 154.316 74.0526 154.316 75.584C154.316 76.5629 154.251 77.5168 154.138 78.4533L154.149 78.1733C152.64 95.9055 116.944 109.445 97.7408 110.538C81.7108 111.451 49.6949 94.1894 44.3116 78.1733C44.3216 78.5054 44.3387 78.8368 44.3537 79.1679C44.0794 77.7572 43.9277 76.3045 43.9277 74.8048C43.9277 73.611 43.9818 72.4081 44.0834 71.1988L44.167 70.9399C56.6809 88.9376 77.2096 99.6687 99.1259 99.6687C121.04 99.6687 141.567 88.9381 154.081 70.944Z" fill="#000072"/>
</g>
</g>
<path fill-rule="evenodd" clip-rule="evenodd" d="M80.469 62.4553C78.7601 61.6931 77.0105 60.4157 75.223 58.6255C72.1239 58.7662 69.6445 62.0777 69.6445 66.1418C69.6445 70.2955 72.2335 73.6631 75.4272 73.6631C78.6214 73.6631 81.2104 70.2955 81.2104 66.1418C81.2104 64.8023 80.9411 63.5449 80.469 62.4553Z" fill="#000072"/>
<path d="M129.001 55.3726C126.915 58.1443 124.864 60.2875 122.849 61.8023C119.884 64.0306 116.675 64.4207 116.319 61.9665C117.914 61.7838 119.576 61.0422 121.305 59.7432C125.565 56.5404 126.897 54.4783 129.001 55.3726Z" fill="#000072"/>
<path fill-rule="evenodd" clip-rule="evenodd" d="M119.279 62.4543C120.988 61.6921 122.738 60.4147 124.526 58.6245C127.625 58.7652 130.104 62.0767 130.104 66.1408C130.104 70.2946 127.516 73.6621 124.321 73.6621C121.127 73.6621 118.538 70.2946 118.538 66.1408C118.538 64.8013 118.807 63.5439 119.279 62.4543Z" fill="#000072"/>
<path fill-rule="evenodd" clip-rule="evenodd" d="M121.93 64.2244C120.992 64.2244 120.232 65.0346 120.232 66.0335C120.232 67.0326 120.992 67.8428 121.93 67.8428C122.868 67.8428 123.628 67.0326 123.628 66.0335C123.628 65.0346 122.868 64.2244 121.93 64.2244Z" fill="white"/>
<path fill-rule="evenodd" clip-rule="evenodd" d="M99.1229 67.4607C103.259 67.4607 106.611 69.6966 106.611 72.4543C106.611 75.2124 103.259 77.4482 99.1229 77.4482C94.9872 77.4482 91.6348 75.2124 91.6348 72.4543C91.6348 69.6966 94.9872 67.4607 99.1229 67.4607Z" fill="#000072"/>
<path d="M106.283 83.5674C103.647 83.5674 101.097 82.5869 99.1411 80.8348C96.9562 82.8252 93.9443 83.7511 90.984 83.2803C87.5452 82.7337 84.6289 80.376 83.3725 77.1273C83.1152 76.4616 83.4459 75.7134 84.1114 75.4559C84.7762 75.1986 85.5243 75.5295 85.782 76.1949C86.7073 78.5884 88.8561 80.3255 91.3895 80.7281C93.9243 81.131 96.5048 80.1462 98.1266 78.1586C98.3688 77.8617 98.7304 77.6877 99.1133 77.6835C99.4995 77.684 99.8611 77.8455 100.11 78.1369C101.802 80.1197 104.357 81.173 106.957 80.9549C109.553 80.737 111.901 79.2713 113.238 77.0342C113.604 76.4214 114.399 76.2216 115.01 76.5882C115.622 76.9543 115.822 77.7478 115.456 78.3602C113.693 81.3099 110.597 83.2427 107.173 83.53C106.875 83.5551 106.579 83.5674 106.283 83.5674Z" fill="#000072"/>
<path fill-rule="evenodd" clip-rule="evenodd" d="M99.128 78.9755C101.821 81.5359 104.466 82.625 107.065 82.2425C107.708 99.1184 90.6052 98.431 91.1874 82.0042C94.3736 82.4087 97.0196 81.3997 99.128 78.9755Z" fill="#000072"/>
<path d="M92.4732 83.3846C92.6013 87.6846 94.1259 91.0652 96.6654 92.5692C98.343 93.5625 100.239 93.5765 101.867 92.6065C104.298 91.158 105.696 87.9161 105.786 83.6058C103.588 83.5354 101.38 82.5839 99.1932 80.7646C97.3109 82.5071 95.079 83.3848 92.5318 83.3848C92.5126 83.3848 92.4929 83.3848 92.4732 83.3846ZM99.3202 95.9033C97.9631 95.9035 96.599 95.533 95.3493 94.7929C91.6718 92.6149 89.6842 87.9372 89.8962 81.9593L89.9465 80.5451L91.3496 80.7234C94.108 81.0729 96.3301 80.224 98.153 78.1284L99.039 77.1097L100.017 78.04C102.429 80.333 104.675 81.2903 106.877 80.9649L108.301 80.7554L108.356 82.1941C108.582 88.1312 106.698 92.7356 103.189 94.8269C101.984 95.5446 100.656 95.9033 99.3202 95.9033Z" fill="#000072"/>
<path fill-rule="evenodd" clip-rule="evenodd" d="M99.2702 88.3084C96.9706 88.3084 94.8105 89.4096 93.46 91.2698C96.5691 95.699 102.082 95.7716 105.052 91.2323C103.7 89.3946 101.553 88.3084 99.2702 88.3084Z" fill="#FF0066"/>
<path d="M95.1318 91.2994C96.3292 92.6199 97.8355 93.3359 99.3984 93.3213C100.909 93.2967 102.302 92.5835 103.399 91.2923C102.306 90.2201 100.819 89.6003 99.2692 89.6003C97.713 89.6003 96.2246 90.2223 95.1318 91.2994ZM99.318 95.9062C96.6577 95.9062 94.1429 94.4924 92.4021 92.0122L91.8721 91.2571L92.4141 90.5105C94.0025 88.3224 96.5651 87.0161 99.2692 87.0161C101.951 87.0161 104.502 88.3057 106.092 90.4661L106.623 91.1889L106.132 91.9399C104.511 94.417 102.072 95.8623 99.4405 95.9052C99.3997 95.9059 99.3587 95.9062 99.318 95.9062Z" fill="#000072"/>
<path fill-rule="evenodd" clip-rule="evenodd" d="M148.027 48.5479C139.731 34.8352 129.785 25.5512 118.188 20.6974C140.937 -11.1886 150.883 -1.90512 148.027 48.5479Z" fill="#FF850B"/>
<path d="M120.171 20.1547C130.352 24.8028 139.339 32.9505 146.942 44.4212C148.33 13.3334 144.114 5.06 140.237 3.69579C137.277 2.65542 131.41 4.72428 120.171 20.1547ZM149.08 52.7852L146.921 49.2165C138.809 35.8065 128.973 26.6122 117.689 21.8891L116.196 21.2642L117.136 19.9464C127.542 5.36097 135.376 -0.754356 141.094 1.25798C148.387 3.82409 151 18.8738 149.316 48.6206L149.08 52.7852Z" fill="#000072"/>
<path fill-rule="evenodd" clip-rule="evenodd" d="M116.214 50.2156C118.127 49.4309 120.056 49.7153 120.522 50.851C120.987 51.9868 119.813 53.5441 117.901 54.3293C115.987 55.1139 114.059 54.829 113.593 53.6933C113.128 52.5576 114.301 51.0003 116.214 50.2156Z" fill="white"/>
<path fill-rule="evenodd" clip-rule="evenodd" d="M82.8811 50.1398C80.9679 49.3546 79.0391 49.6395 78.5736 50.7752C78.108 51.911 79.2815 53.4683 81.1946 54.2529C83.1073 55.0376 85.0361 54.7532 85.5017 53.6175C85.9672 52.4818 84.7938 50.9244 82.8811 50.1398Z" fill="white"/>
<path fill-rule="evenodd" clip-rule="evenodd" d="M76.279 64.2244C75.3409 64.2244 74.5811 65.0346 74.5811 66.0335C74.5811 67.0326 75.3409 67.8428 76.279 67.8428C77.2166 67.8428 77.9764 67.0326 77.9764 66.0335C77.9764 65.0346 77.2166 64.2244 76.279 64.2244Z" fill="white"/>
<path fill-rule="evenodd" clip-rule="evenodd" d="M51.0912 49.2002C59.3863 35.487 69.3322 26.2036 80.9291 21.3493C58.1809 -10.5367 48.2349 -1.25275 51.0912 49.2002Z" fill="#FF850B"/>
<path d="M60.2619 4.12316C59.7427 4.12316 59.2846 4.20723 58.8806 4.34948C55.0031 5.71376 50.7878 13.9869 52.1751 45.0748C59.7779 33.6044 68.7645 25.4568 78.946 20.8081C69.2418 7.48503 63.542 4.12316 60.2619 4.12316ZM50.0376 53.4395L49.8017 49.2745C48.1178 19.5276 50.7302 4.47786 58.0234 1.91154C63.7372 -0.0983543 71.5742 6.01345 81.9806 20.5998L82.9208 21.9176L81.4278 22.5425C70.1429 27.2661 60.308 36.4606 52.1965 49.8705L50.0376 53.4395Z" fill="#000072"/>
<g opacity="0.649994">
<g opacity="0.649994">
<path opacity="0.649994" fill-rule="evenodd" clip-rule="evenodd" d="M78.0816 22.6509C79.0202 22.1866 79.9708 21.7535 80.9323 21.3504C66.8336 1.58813 57.655 -2.35233 53.3911 9.51312C57.9319 1.16949 66.1613 5.54814 78.0801 22.6499L78.0816 22.6509Z" fill="white"/>
</g>
</g>
<path fill-rule="evenodd" clip-rule="evenodd" d="M57.3033 39.9053C61.347 34.9023 65.9298 30.5717 71.0522 26.9147C59.5694 4.54656 54.9861 8.87659 57.3033 39.9053Z" fill="#000072"/>
<path d="M60.2579 14.1517C60.2014 14.1517 60.1628 14.1593 60.1403 14.1656C60.002 14.2046 58.7747 14.7105 58.2496 20.4073C57.8957 24.2457 57.9376 29.6961 58.3724 36.6381C61.7112 32.8594 65.4048 29.4684 69.3936 26.5218C63.3516 14.9696 60.8452 14.1517 60.2579 14.1517ZM56.2574 43.2529L56.0149 40.0009C54.2516 16.39 56.7567 12.434 59.44 11.6781C62.6488 10.7719 66.4667 15.1538 72.2009 26.3239L72.711 27.3173L71.8021 27.966C66.8005 31.5365 62.2602 35.8267 58.3072 40.7172L56.2574 43.2529Z" fill="#000072"/>
<g opacity="0.300003">
<g opacity="0.300003">
<path opacity="0.300003" fill-rule="evenodd" clip-rule="evenodd" d="M58.7918 13.6056C54.6014 16.7404 51.8948 25.2216 50.6724 39.0485C50.746 42.2237 50.8847 45.6073 51.0879 49.2007C51.7076 48.0796 52.3628 46.9714 53.0552 45.8807L53.0066 46.1527C56.354 41.0454 59.9546 36.6178 63.8075 32.8691C61.5545 34.9948 59.4315 37.2833 57.4382 39.734C57.3991 39.782 57.3601 39.8296 57.3211 39.8787C57.3175 39.8826 57.3141 39.8872 57.3101 39.8927C57.3065 39.8967 57.3036 39.9008 57.3 39.9047C56.1773 24.8706 56.6748 16.1044 58.7918 13.6056ZM140.319 12.9522C144.51 16.0874 147.216 24.5681 148.438 38.3949C148.365 41.5702 148.226 44.9543 148.023 48.5472C147.403 47.426 146.748 46.3184 146.055 45.2272L146.104 45.4991C142.757 40.392 139.156 35.9643 135.303 32.2162C137.557 34.3419 139.679 36.6303 141.672 39.081C141.711 39.1286 141.751 39.1766 141.79 39.2252C141.793 39.2297 141.797 39.2342 141.8 39.2392C141.804 39.2437 141.807 39.2472 141.811 39.2518C142.934 24.2176 142.436 15.4509 140.319 12.9522Z" fill="#000072"/>
</g>
</g>
<g opacity="0.649994">
<g opacity="0.649994">
<path opacity="0.649994" fill-rule="evenodd" clip-rule="evenodd" d="M121.042 21.998C120.104 21.5338 119.153 21.1007 118.191 20.6981C132.29 0.935789 141.469 -3.00517 145.733 8.86029C141.192 0.516651 132.962 4.89574 121.044 21.9975L121.042 21.998Z" fill="white"/>
</g>
</g>
<path fill-rule="evenodd" clip-rule="evenodd" d="M141.812 39.2529C137.769 34.2494 133.186 29.9188 128.063 26.2618C139.546 3.89367 144.13 8.22414 141.812 39.2529Z" fill="#000072"/>
<path d="M129.723 25.8686C133.712 28.8157 137.406 32.2071 140.743 35.9852C141.178 29.0431 141.22 23.5929 140.866 19.7543C140.341 14.0574 139.114 13.5514 138.976 13.5126C138.721 13.4418 136.347 13.2033 129.723 25.8686ZM142.858 42.6006L140.809 40.0645C136.857 35.1746 132.317 30.8842 127.314 27.3128L126.405 26.6641L126.915 25.6707C132.649 14.5015 136.464 10.1199 139.676 11.0252C142.359 11.781 144.865 15.7371 143.101 39.3483L142.858 42.6006Z" fill="#000072"/>
<path d="M60.2605 4.12233C59.7413 4.12233 59.2832 4.2064 58.8792 4.34865C55.0016 5.71293 50.786 13.9863 52.1733 45.0741C59.7765 33.6036 68.763 25.4558 78.9445 20.8073C69.2404 7.4842 63.5406 4.12233 60.2605 4.12233ZM50.0354 53.4385L49.7996 49.2736C48.116 19.5267 50.7288 4.47681 58.0219 1.91071C63.7358 -0.0991859 71.5727 6.01262 81.9792 20.599L82.9193 21.9168L81.4263 22.5417C70.1415 27.2653 60.3065 36.4598 52.1944 49.8696L50.0354 53.4385Z" fill="#000072"/>
<path d="M100.243 18.4858C69.7639 18.4858 45.2203 49.2962 45.2203 74.806C45.2203 81.4394 48.234 87.6775 54.1781 93.3468C67.4182 105.975 91.5749 112.14 99.562 112.14C99.7815 112.14 99.9871 112.136 100.182 112.126C105.969 111.85 119.3 108.871 130.82 103.113C140.95 98.0494 153.025 89.1634 153.025 75.585C153.025 49.18 129.969 18.4858 100.243 18.4858ZM99.5947 114.724C91.0266 114.724 66.3339 108.512 52.3956 95.2173C45.9203 89.041 42.6367 82.1737 42.6367 74.806C42.6367 61.5061 49.007 46.6843 59.6771 35.1578C71.0055 22.9203 85.7912 15.9016 100.243 15.9016C114.785 15.9016 128.805 22.8912 139.72 35.5828C149.669 47.1508 155.609 62.1048 155.609 75.585C155.609 87.3779 147.436 97.6963 131.975 105.425C120.118 111.351 106.317 114.421 100.304 114.708C100.083 114.718 99.845 114.724 99.5947 114.724Z" fill="#000072"/>
<g opacity="0.559998">
<g opacity="0.559998">
<path opacity="0.559998" fill-rule="evenodd" clip-rule="evenodd" d="M101.56 69.4623C102.69 69.7602 103.525 70.3031 103.427 70.6756C103.329 71.0476 102.334 71.1083 101.205 70.8103C100.076 70.5129 99.2398 69.9696 99.3379 69.597C99.436 69.225 100.431 69.1643 101.56 69.4623Z" fill="white"/>
</g>
</g>
<path d="M71.6855 55.3726C73.7719 58.1443 75.8228 60.2875 77.8381 61.8023C80.8031 64.0306 84.0123 64.4207 84.3677 61.9665C82.7728 61.7838 81.111 61.0422 79.3819 59.7432C75.122 56.5404 73.7895 54.4783 71.6855 55.3726Z" fill="#000072"/>
<path d="M120.171 20.1547C130.352 24.8028 139.339 32.9505 146.942 44.4212C148.33 13.3334 144.114 5.06 140.237 3.69579C137.277 2.65542 131.41 4.72428 120.171 20.1547ZM149.08 52.7852L146.921 49.2165C138.809 35.8065 128.973 26.6122 117.689 21.8891L116.196 21.2642L117.136 19.9464C127.542 5.36097 135.376 -0.754356 141.094 1.25798C148.387 3.82409 151 18.8738 149.316 48.6206L149.08 52.7852Z" fill="#000072"/>
</svg>
